<svg width="898" height="540" viewBox="0 0 898 540" fill="none" xmlns="http://www.w3.org/2000/svg">
<g clip-path="url(#clip0_33_2)">
<mask id="mask0_33_2" style="mask-type:alpha" maskUnits="userSpaceOnUse" x="0" y="0" width="909" height="591">
<rect width="909" height="591" fill="url(#paint0_linear_33_2)"/>
</mask>
<g mask="url(#mask0_33_2)">
<mask id="mask1_33_2" style="mask-type:alpha" maskUnits="userSpaceOnUse" x="0" y="3" width="909" height="487">
<rect y="3" width="909" height="487" fill="url(#paint1_linear_33_2)"/>
</mask>
<g mask="url(#mask1_33_2)">
<path d="M709.777 96.743V38.1774L720.149 39.0919V98.2736L709.777 96.743Z" fill="#BDBABB"/>
<path d="M210.937 526.59L206.406 281.315C206.406 281.315 241.908 239.634 591.261 263.988C594.744 264.229 618.306 256.894 641.359 249.78C663.2 243.042 902.099 323.641 905.476 323.901" fill="#D8D8D8"/>
<path d="M898 292H0V540H898V292Z" fill="#D8D8D8"/>
<path d="M652.453 359.72V400.285C652.453 400.285 630.429 446.067 338.142 479.017C45.8536 511.968 92.5076 483.137 92.5076 483.137L292.854 374.679L652.453 359.72Z" fill="url(#paint2_linear_33_2)"/>
<path d="M265.365 379.926L263.306 295.042H261.026L259.881 386.327L344.261 423.166L479.422 316.999L313.395 298.7L301.272 371.917L286.436 372.6L282.058 296.178L280.23 295.957L281.375 377.635L265.365 379.926Z" fill="#C4C4C4"/>
<path d="M216.883 403.712L190.136 340.795L209.109 298.007L248.22 299.383L241.581 395.019L216.883 403.712Z" fill="#C4C4C4"/>
<path d="M151.708 353.839L152.401 340.564L186.239 313.11L178.696 332.334L151.708 353.839Z" fill="#EAEAEA"/>
<path d="M304.014 365.053L315.781 301.338L358.673 306.016L362.561 335.992L365.534 306.478L394.802 308.99L399.151 360.471L403.269 308.769L412.409 310.598L414.468 336.675L419.048 309.452L403.721 306.709L345.184 301.674L302.869 299.383L304.014 365.053Z" fill="#BBBBBB"/>
<path d="M186.085 277.349C186.085 277.349 188.529 301.415 187.307 306.228C186.085 311.041 181.207 319.493 181.207 319.493L151.939 352.443L143.28 395.761L108.518 436.797L114.002 436.335L118.582 430.694L126.356 435.728L143.732 416.967L155.47 366.776L156.307 367.392L158.52 364.187L164.014 362.204L154.104 433.89L181.044 389.966L175.867 371.358L181.197 365.583L186.836 369.087L192.175 353.685L200.71 348.188L206.482 319.82L244.516 300.568L239.032 384.315L253.887 358.69L254.349 294.85L186.085 277.349Z" fill="#BBBBBB"/>
<path d="M299.666 299.47C299.358 300.385 299.666 369.741 299.666 369.741L301.34 374.015L304.39 367.604V298.508L299.666 299.47Z" fill="#EAEAEA"/>
<path d="M593.531 336.454L629.438 362.762L603.364 385.413L523.786 407.148L540.017 393.19L473.322 371.301L475.535 414.012L380.399 398.908L367.131 422.252L337.179 427.739L331.002 422.704L358.212 383.584L409.898 370.309L413.333 368.711L444.198 326.616L462.267 315.17L593.531 336.454Z" fill="#B5B5B5"/>
<path d="M193.253 317.153L192.955 330.12L224.513 293.357L221.463 293.666L193.253 317.153Z" fill="#DEDEDE"/>
<path d="M468.896 412.414L473.322 371.531L520.351 378.087L548.484 400.285L468.896 412.414Z" fill="#C4C4C4"/>
<path d="M496.336 409.661L490.621 371.455L536.13 402.797L496.336 409.661Z" fill="#B5B5B5"/>
<path d="M348.379 425.457L365.841 420.269L367.131 422.252L380.399 398.908L424.532 406.465L438.714 415.61L425.215 419.277L348.379 425.457Z" fill="#C4C4C4"/>
<path d="M246.007 291.528L245.853 299.768L212.313 330.726L206.829 322.188L234.721 291.528H246.007Z" fill="#EAEAEA"/>
<path d="M222.829 284.386C223.137 286.523 175.569 270.659 425.292 264.864C675.015 259.069 424.686 259.088 424.686 259.088C424.686 259.088 247.835 262.448 228.313 268.551C208.792 274.654 222.829 284.386 222.829 284.386Z" fill="#B5B5B5"/>
<path d="M255.763 296.255V356.659L252.713 362.002V382.438L291.285 366.728L339.306 426.064L365.688 419.046L371.633 423.166L379.86 422.252L387.49 398.908L440.696 406.84L470.58 400.285L470.118 410.508L526.826 401.045L473.322 371.301L536.438 345.984V326.308L593.454 339.12V386.25L584.459 392.805L516.002 407.61L485.06 415.08L452.588 417.978L431.854 417.525L421.328 412.491L418.134 419.354L407.002 421.491L411.274 410.662L392.82 402.576L383.67 423.619L368.276 425.457L365.841 420.269L348.148 426.67L333.514 427.44L317.504 429.722L257.293 406.696L228.775 430.338L199.969 429.269L229.237 367.951L239.301 377.558L253.021 356.207V294.888L255.763 296.255Z" fill="#EAEAEA"/>
<path d="M471.638 411.721L475.987 375.344L477.363 411.952L471.638 411.721Z" fill="#DADADA"/>
<path d="M379.561 371.917L407.002 373.284L361.569 350.104L379.561 371.917Z" fill="#EAEAEA"/>
<path d="M417.21 256.605C417.21 256.605 221.001 264.845 223.291 277.648C227.438 300.895 782.649 319.743 623.944 381.514C569.757 402.614 549.86 417.67 304.697 430.02C304.697 430.02 792.049 390.553 544.356 330.264C439.166 304.639 178.465 302.348 186.239 275.809C186.239 275.809 173.433 259.801 425.898 255.681" fill="#EAEAEA"/>
<path d="M189.443 426.372L175.04 371.917L181.669 365.053L186.239 368.48L192.878 353.386L200.421 348.121L201.104 350.864L194.706 355.437L189.674 368.48L183.045 391.13L191.502 399.823L189.443 426.372Z" fill="#EAEAEA"/>
<path d="M140.961 435.517L143.251 415.61L127.472 435.979L119.014 431.397L113.752 436.662L140.961 435.517Z" fill="#EAEAEA"/>
<path d="M155.374 366.199L155.595 355.899L170.691 343.317L155.374 366.199Z" fill="#EAEAEA"/>
<path d="M333.061 310.367L337.631 310.136L336.948 373.746L331.002 369.164L333.975 368.711L333.061 310.367Z" fill="#9D9D9D"/>
<path d="M290.294 357.266L286.869 356.582V304.649L289.611 304.87L290.294 357.266Z" fill="#9D9D9D"/>
<path d="M418.98 238.758C208.878 258.434 287.773 273.691 287.773 273.691C285.907 272.007 219.895 258.472 421.819 239.104" fill="white"/>
<path d="M467.068 235.552C467.068 235.552 238.079 257.827 353.026 277.657C317.619 271.246 281.597 257.115 467.068 235.552Z" fill="white"/>
<path d="M427.428 280.093C427.428 280.093 270.359 261.562 415.382 244.591C419.009 244.168 416.45 246.266 419.096 244.187C361.127 251.455 311.942 263.314 427.428 280.093Z" fill="white"/>
<path d="M414.622 244.091V227.312L460.67 183.995L414.622 244.091Z" fill="#EAEAEA"/>
<path d="M474.688 186.738L474.082 192.533L479.874 196.499L510.066 157.455L474.688 186.738Z" fill="#EAEAEA"/>
<path d="M520.736 159.284V176.371L557.018 126.642L520.736 159.284Z" fill="#EAEAEA"/>
<path d="M414.006 268.811V238.912L461.276 183.08L477.738 190.714L509.489 157.157L518.023 159.284V170.576H520.765L557.057 125.727L568.949 129.693L571.383 134.882L580.533 112.617L609.801 133.967L623.521 195.575L614.679 222.114L538.151 272.757L640.907 280.68L682.674 292.886C682.674 292.886 472.927 283.731 399.718 274.596C399.68 274.606 388.394 272.777 414.006 268.811Z" fill="#BABABA"/>
<path d="M557.018 126.642L534.495 155.02L527.76 192.081L521.439 195.594L511.067 213.884L506.496 212.921L497.347 183.638L483.319 201.928L468.078 261.726L465.336 272.401L482.106 275.751L532.137 276.974L568.112 223.587L572.999 130.54L557.018 126.642ZM480.48 274.606L489.938 202.612L496.336 190.098L507.882 229.151L480.48 274.606Z" fill="#C4C4C4"/>
<path d="M516.156 269.408L503.658 211.987L509.142 207.482L513.722 210.842L519.514 194.362L528.356 189.481L527.673 192.081L521.265 197.221L509.604 231.769L519.322 238.296L516.156 269.408Z" fill="#EAEAEA"/>
<path d="M459.448 270.938L474.688 250.502L482.616 197.413L497.26 183.687L483.232 209.927L468.598 273.99L459.448 270.938Z" fill="#EAEAEA"/>
<path d="M538.949 171.221L533.465 163.597L567.611 128.817L596.273 67.4987L600.237 44.0109L619.75 40.3433L655.734 0.385071L709.402 28.4454L708.257 39.1689L659.39 22.352L632.556 61.3957L581.639 114.474L571.575 143.459L538.949 171.221Z" fill="#EAEAEA"/>
<path d="M619.827 136.095L656.119 65.6312V2.62793L709.248 30.0914L709.171 42.7498L720.149 39.0919L738.747 50.9898V85.7595L761.001 60.1347L799.727 80.8791L806.895 88.0505L807.347 88.503L823.203 104.377L833.883 110.171L809.185 183.687L721.063 231.278L691.179 239.817L680.509 255.989L667.703 267.28L621.963 225.483L619.827 136.095Z" fill="#C4C4C4"/>
<path d="M664.345 269.716L687.215 227.62L734.783 219.072L771.065 167.216L819.547 136.711L833.883 110.172L839.367 115.658L845.467 141.591L871.685 152.873L880.528 198.03L819.239 214.192L793.935 254.468L676.237 276.733L664.345 269.716Z" fill="#BBBBBB"/>
<path d="M797.293 238.902L800.151 212.786L907.978 240.731L900.348 323.718L904.927 388.993L755.517 295.649L797.293 238.902Z" fill="#C4C4C4"/>
<path d="M817.113 218.62L825.647 265.442L829.149 304.187L827.167 315.931L897.759 347.206L894.402 233.569L817.113 218.62Z" fill="#BBBBBB"/>
<path d="M836.741 117.15L866.577 84.999L881.673 85.4611L896.884 94.837L905.918 163.597L908.661 237.381L895.277 253.168L871.387 250.646L800.151 212.786L864.527 188.307L864.748 155.703L833.421 156.955L836.741 117.15Z" fill="#EAEAEA"/>
<path d="M629.284 215.722L639.647 149.215L657.331 107.727L625.013 152.267L629.284 215.722Z" fill="#BBBBBB"/>
<path d="M604.048 58.9121L617.691 130.608L656.119 65.6312V2.62793L620.173 42.2107L604.048 58.9121Z" fill="#BBBBBB"/>
<path d="M628.976 123.898L656.119 65.6312L614.035 118.71L628.976 123.898Z" fill="#EAEAEA"/>
<path d="M599.4 68.0666L603.595 44.9638L620.173 42.2107L619.22 120.539L599.4 68.0666Z" fill="#C4C4C4"/>
<path d="M578.06 234.936L579.272 115.658L599.4 68.0667L617.691 115.35L628.976 119.932L630.805 239.21L578.06 234.936Z" fill="#DADADA"/>
<path d="M585.68 230.056L586.902 130.146L590.25 130.001L592.848 234.176L605.654 217.397L606.568 139.762L612.206 226.09L603.97 240.587L585.68 230.056Z" fill="#C4C4C4"/>
<path d="M521.342 277.34L556.104 209.013L566.774 219.688L579.58 197.721L580.494 224.569L617.085 208.099L664.047 266.058L695.451 261.476L712.519 240.125L769.843 247.749L797.293 238.902L793.627 269.639L756.739 296.255L688.129 285.888L521.342 277.34Z" fill="#EAEAEA"/>
<path d="M729.299 101.017L724.719 187.652L716.483 99.188L729.299 101.017Z" fill="#BBBBBB"/>
<path d="M677.767 86.3756L729.299 101.017L693.007 99.4865L677.767 86.3756Z" fill="#EAEAEB"/>
<path d="M693.007 99.4865L689.351 167.823L677.767 86.3756L693.007 99.4865Z" fill="#BBBBBB"/>
<path d="M739.661 72.3406L737.525 171.182L761.001 60.1346L739.661 72.3406Z" fill="#BBBBBB"/>
<path d="M799.727 80.8791L802.469 127.556L807.347 88.503L799.727 80.8791Z" fill="#BBBBBB"/>
<path d="M732.339 213.893L706.121 212.363L686.907 190.704L732.339 213.893Z" fill="#EAEAEA"/>
<path d="M865.21 129.501L840.628 117.603L867.385 87.9735L879.392 87.858L883.395 93.1235L886.935 90.717L893.112 95.2991L891.852 112.231L865.21 129.501Z" fill="#C4C4C4"/>
<path d="M891.814 271.246L856.599 267.733L856.137 307.546L903.552 321.119L891.814 271.246Z" fill="#EAEAEA"/>
<path d="M835.711 202.371L851.711 166.677L853.549 146.318L855.608 147.463L853.549 166.908L866.124 198.713L835.711 202.371Z" fill="#EAEAEA"/>
<path d="M713.135 240.587L703.533 238.748L690.034 271.699L673.341 283.366L706.727 293.666L738.516 303.041L767.563 303.503L779.224 263.237L763.445 261.63L746.069 254.314L730.28 290.46L722.737 289.777L737.15 251.339L719.081 243.561L702.84 285.426L699.867 284.973L713.135 240.587Z" fill="#C4C4C4"/>
<path d="M797.514 262.323L805.067 256.374L802.325 216.329L800.718 213.816L797.514 262.323Z" fill="#DADADA"/>
<path d="M396.168 270.794C396.168 270.794 441.908 279.024 633.094 290.47C824.281 301.915 886.474 316.094 906.602 358.19C926.729 400.285 748.811 390.678 748.811 390.678C748.811 390.678 601.536 311.512 548.032 311.06C494.527 310.607 390.847 275.289 390.847 275.289L396.168 270.794Z" fill="#D8D8D8"/>
<path d="M372.394 209.013H368.737V469.844H372.394V209.013Z" fill="#B4B4B4"/>
<path d="M370.104 212.671H365.534V469.767H370.104V212.671Z" fill="#DEDEDE"/>
<path d="M409.219 166.635L374.883 132.282C371.561 128.958 366.176 128.958 362.855 132.282L328.518 166.635C325.196 169.958 325.196 175.346 328.518 178.67L362.854 213.023C366.176 216.346 371.561 216.346 374.883 213.023L409.219 178.67C412.541 175.346 412.541 169.958 409.219 166.635Z" fill="#DEDEDE"/>
<path d="M406.981 166.628L374.876 134.507C371.554 131.184 366.169 131.184 362.848 134.507L330.743 166.628C327.421 169.952 327.421 175.339 330.743 178.663L362.848 210.784C366.169 214.107 371.554 214.107 374.876 210.784L406.981 178.663C410.303 175.339 410.302 169.952 406.981 166.628Z" fill="#BBBBBB"/>
<path d="M404.647 166.635L374.883 136.856C371.561 133.533 366.176 133.533 362.854 136.856L333.09 166.635C329.768 169.958 329.768 175.346 333.09 178.669L362.854 208.449C366.176 211.772 371.561 211.772 374.883 208.449L404.647 178.669C407.969 175.346 407.969 169.958 404.647 166.635Z" fill="#C3C3C3"/>
<path d="M363.542 202.227H372.855C372.855 202.227 374.231 193.072 367.083 190.406C359.934 187.739 364.494 182.859 369.142 183.311C373.789 183.764 383.17 179.037 380.35 170.73C377.531 162.422 365.485 163.029 366.698 158.986V156.541H374.78L363.234 139.993L351.688 156.541L359.078 156.772C359.078 156.772 357.779 164.396 363.349 166.841C368.92 169.286 372.268 170.499 372.115 172.713C371.961 174.927 367.766 176.91 361.743 177.526C355.72 178.142 350.986 190.434 360.53 195.681C364.389 197.798 363.542 202.227 363.542 202.227Z" fill="#929292"/>
<path d="M734.475 330.736C734.475 330.736 700.627 305.409 569.209 297.487L564.638 291.076C564.638 291.076 694.835 297.814 735.081 328.907L734.475 330.736Z" fill="white"/>
<path d="M583.843 449.706C583.843 449.706 765.273 405.175 756.431 353.916L764.657 358.498C764.657 358.498 784.179 406.696 595.735 456.425L583.843 449.706Z" fill="white"/>
<path d="M903.398 338.052C778.079 238.296 422.242 263.468 422.242 263.468C422.242 263.468 821.529 246.536 895.162 354.984L903.398 338.052Z" fill="white"/>
</g>
</g>
<path d="M743.939 423.135C745.315 423.588 1019.27 300.95 496.958 279.907L497.987 277.27C497.987 277.27 1004.64 284.008 757.659 430.913L743.939 423.135Z" fill="url(#paint3_linear_33_2)"/>
<path d="M814.665 404.528C816.041 404.98 997.77 272.582 490.204 272.755C489.933 272.749 489.672 272.654 489.461 272.484C489.25 272.315 489.1 272.081 489.036 271.818C488.971 271.555 488.995 271.278 489.103 271.03C489.212 270.781 489.399 270.576 489.636 270.445C489.636 270.445 985.724 254.581 828.386 412.306L814.665 404.528Z" fill="url(#paint4_linear_33_2)"/>
</g>
<defs>
<linearGradient id="paint0_linear_33_2" x1="176" y1="439" x2="0" y2="439" gradientUnits="userSpaceOnUse">
<stop stop-color="white"/>
<stop offset="1" stop-color="white" stop-opacity="0"/>
</linearGradient>
<linearGradient id="paint1_linear_33_2" x1="454.5" y1="364.748" x2="454.5" y2="445.915" gradientUnits="userSpaceOnUse">
<stop stop-color="white"/>
<stop offset="1" stop-color="white" stop-opacity="0"/>
</linearGradient>
<linearGradient id="paint2_linear_33_2" x1="89.7752" y1="427.267" x2="652.453" y2="427.267" gradientUnits="userSpaceOnUse">
<stop stop-color="white" stop-opacity="0"/>
<stop offset="1" stop-color="#767676"/>
</linearGradient>
<linearGradient id="paint3_linear_33_2" x1="878.859" y1="375.966" x2="511.162" y2="325.383" gradientUnits="userSpaceOnUse">
<stop stop-color="#E2000B"/>
<stop offset="1" stop-color="#580000"/>
</linearGradient>
<linearGradient id="paint4_linear_33_2" x1="878.859" y1="375.966" x2="511.162" y2="325.383" gradientUnits="userSpaceOnUse">
<stop stop-color="#E2000B"/>
<stop offset="1" stop-color="#580000"/>
</linearGradient>
<clipPath id="clip0_33_2">
<rect width="898" height="540" fill="white"/>
</clipPath>
</defs>
</svg>
