<svg width="898" height="400" viewBox="0 0 898 400" fill="none" xmlns="http://www.w3.org/2000/svg">
<g clip-path="url(#clip0_33_150)">
<mask id="mask0_33_150" style="mask-type:alpha" maskUnits="userSpaceOnUse" x="0" y="-9" width="898" height="814">
<path d="M898 -9H-1.62125e-05V805H898V-9Z" fill="url(#paint0_linear_33_150)"/>
</mask>
<g mask="url(#mask0_33_150)">
<mask id="mask1_33_150" style="mask-type:alpha" maskUnits="userSpaceOnUse" x="0" y="0" width="898" height="846">
<path d="M898 0H-1.62125e-05V846H898V0Z" fill="url(#paint1_linear_33_150)"/>
</mask>
<g mask="url(#mask1_33_150)">
<path d="M-238.5 245.39H912.5V637.39H-238.5V245.39Z" fill="url(#paint2_linear_33_150)"/>
<path d="M226.32 248.39C226.32 248.39 322.55 249.14 372.32 340.39C408.5 406.72 439.84 507.39 448.32 644.39C616.32 643.39 900.32 644.39 900.32 644.39L896.32 269.39L892.32 245.39L226.32 248.39Z" fill="url(#paint3_linear_33_150)"/>
<path d="M235.5 248.39C235.5 248.39 329.5 246.39 381.5 336.39C433.5 426.39 459.5 525.39 473.5 644.39C641.5 643.39 909.5 644.39 909.5 644.39L905.5 269.39L901.5 245.39L235.5 248.39Z" fill="url(#paint4_linear_33_150)"/>
<path d="M235 248.39C235 248.39 329 246.39 381 336.39C433 426.39 459 525.39 473 644.39C641 643.39 909 644.39 909 644.39L905 269.39L901 245.39L235 248.39Z" fill="url(#paint5_linear_33_150)"/>
<path d="M326.83 256.06L378.5 275.39V272.06L326.83 256.06Z" fill="white"/>
<path d="M398.17 285.72V288.39L535.83 347.06V342.72L398.17 285.72Z" fill="white"/>
<path d="M562.17 332.39V335.72L898.5 470.72V460.06L562.17 332.39Z" fill="white"/>
<path d="M661.17 353.06L661.5 348.72L899.83 416.06V427.06L661.17 353.06Z" fill="white"/>
<path d="M201.34 248.05C201.34 248.05 307.67 241.72 358 325.72C408.33 409.72 435.17 542.05 439 738.39C439.49 763.17 166 700.39 166 700.39L169 637.39C169 637.39 258.5 477.22 278 421.89C299.84 365.89 311.34 319.8 284.34 282.3C273.45 267.18 238.28 255.98 200.19 247.99L201.34 248.05Z" fill="url(#paint6_linear_33_150)"/>
<path d="M271 271.18L294.15 267.84C300.586 270.975 306.809 274.53 312.78 278.48L285 283.39C284.72 282.98 278.5 274.8 271 271.18Z" fill="white"/>
<path d="M349.94 313.63C352.838 317.525 355.538 321.563 358.03 325.73C364.769 336.888 370.781 348.468 376.03 360.4L294.7 372.29C299.11 353.49 301.21 335.88 299.15 319.57L349.94 313.63Z" fill="white"/>
<path d="M537.25 234.14V240.64L374.75 246.14V244.14L537.25 234.14Z" fill="white"/>
<path d="M477.5 219.39V223.14L369.75 237.64V235.89L477.5 219.39Z" fill="white"/>
<path d="M430.25 219.64V223.89L844 124.39V108.89L430.25 219.64Z" fill="white"/>
<path d="M338.25 239.89V242.39L304 246.39L338.25 239.89Z" fill="white"/>
<path d="M899.5 33.39L748.5 94.89L752.5 117.39L604.5 166.89L617 179.89L615 198.89L534.5 220.89L536 225.39L550.5 230.39V245.39H901L899.5 33.39Z" fill="#959595"/>
<path d="M906 51.89L763.5 104.39V115.89L947 53.89L906 51.89Z" fill="#C2C2C2"/>
<path d="M904.5 103.39L617 179.89L615.75 198.14L909.5 120.89L904.5 103.39Z" fill="#C2C2C2"/>
<path d="M643.5 190.39L651.5 201.89L545 228.39L536 225.39L534.5 220.89L643.5 190.39Z" fill="#C2C2C2"/>
<path d="M900.25 172.89L787 193.89L784.5 173.89L907.5 150.89L900.25 172.89L899.87 175.01Z" fill="#C2C2C2"/>
<path d="M897 224.39L606 233.39L620 221.89L912.5 195.39L905 223.89L897 224.39Z" fill="#C2C2C2"/>
<path d="M850.83 266.39L851.5 269.39L559.5 258.06V256.06L850.83 266.39Z" fill="#D8D8D8"/>
<path d="M909.5 270.39C909.5 270.39 731.45 264.69 666 261.89C596 258.89 319 247.39 319 247.39C319 247.39 596 261.89 716 273.89C840.51 286.34 959 298.89 959 298.89L938.5 285.89L913.5 269.89" fill="url(#paint7_linear_33_150)"/>
<path d="M489.17 268.72V271.06L653.5 298.06V292.06L489.17 268.72Z" fill="white"/>
<path d="M557.17 259.06V265.06L394.17 254.72V252.39L557.17 259.06Z" fill="white"/>
<path d="M898.5 328.05C898.5 328.05 659.84 279.39 556.5 270.05C453.16 260.71 396.5 254.72 308.84 251.72C221.18 248.72 214.17 248.05 214.17 248.05C214.17 248.05 366.84 250.72 441.17 256.72C515.5 262.72 585.17 268.72 641.5 277.05C697.83 285.38 746.17 292.39 811.84 304.39C877.51 316.39 907.5 323.72 907.5 323.72L898.5 328.05Z" fill="#F0F0F0"/>
<path d="M873 291.89L824.5 298.89L679 279.89C679 279.89 714.5 274.39 716 274.39C717.5 274.39 873 291.89 873 291.89Z" fill="#F0F0F0"/>
<path d="M770.83 276.06V279.06L563.17 262.06V259.72L770.83 276.06Z" fill="#C8C8C8"/>
<path d="M694.5 265.39L491.5 255.06L696.17 264.06V266.39L694.5 265.39Z" fill="#D5D5D5"/>
<path d="M879.5 271.72V274.39L721.17 266.72V264.72L879.5 271.72Z" fill="#D8D8D8"/>
<path d="M857.83 273.72V276.39L699.5 268.72V266.72L857.83 273.72Z" fill="white"/>
<path d="M795.75 6.89001L799.5 2.39001H802.25L900.25 172.89L898.75 181.39L795.75 6.89001Z" fill="#7A7A7A"/>
<path d="M802.25 2.39001L900.25 172.89L899.87 175.01L799.74 2.39001H802.25Z" fill="white"/>
<path d="M769.66 70.26C782.45 59.26 797.57 51.56 812.61 44.16C806.203 33.4934 799.79 22.8267 793.37 12.16C778.83 20.71 764.37 29.67 752.89 42.27C758.517 51.5967 764.107 60.9267 769.66 70.26Z" fill="#787878"/>
<path d="M786.94 98.87C800.67 89.07 816.33 82.51 831.82 76.11L812.57 44.11C797.57 51.51 782.41 59.18 769.62 70.21C775.35 79.85 781.16 89.36 786.94 98.87Z" fill="#EBEBEB"/>
<path d="M820.82 155.71C836.75 148.88 853.69 144.55 870.35 140.01L851.11 108.01C835.01 113.01 818.58 118.01 803.85 126.41C809.72 136.1 815.3 145.85 820.82 155.71Z" fill="#EBEBEB"/>
<path d="M803.85 126.46C818.58 118.04 835.01 113.07 851.11 108.06C844.69 97.3934 838.273 86.7267 831.86 76.0601C816.37 82.4601 800.71 89.0599 786.98 98.8199L803.85 126.46Z" fill="#787878"/>
<path d="M836.86 184.14C854.37 179.79 872.03 176.06 889.6 171.96L870.35 140.01C853.69 144.55 836.75 148.88 820.82 155.71C826.14 165.203 831.487 174.68 836.86 184.14Z" fill="#787878"/>
<path d="M744.49 100.08C751.29 88.9 759.781 78.8408 769.66 70.26C764.12 60.9267 758.53 51.5933 752.89 42.26C743.36 52.59 736.89 64.3199 730.77 76.8199C738.74 89.8399 739.83 92.02 744.49 100.08Z" fill="#EBEBEB"/>
<path d="M759.94 124.97C767.622 115.002 776.718 106.21 786.94 98.87C781.12 89.36 775.31 79.87 769.62 70.26C759.741 78.8408 751.25 88.9 744.45 100.08C749.34 108.52 754.31 117.04 759.94 124.97Z" fill="#787878"/>
<path d="M791.12 173.53C800.43 166.657 810.375 160.69 820.82 155.71C815.3 145.85 809.72 136.1 803.82 126.46C793.39 132.33 784.22 140.05 775.89 148.6C781.62 156.48 786.31 165.1 791.12 173.53Z" fill="#787878"/>
<path d="M775.94 148.63C784.27 140.08 793.44 132.36 803.87 126.49L786.94 98.87C776.718 106.21 767.622 115.002 759.94 124.97C765.273 132.85 770.607 140.737 775.94 148.63Z" fill="#EBEBEB"/>
<path d="M803.94 195.81C814.423 190.67 825.462 186.755 836.84 184.14C831.473 174.667 826.14 165.19 820.84 155.71C810.395 160.69 800.45 166.657 791.14 173.53C795.43 181.07 796.35 182.79 803.94 195.81Z" fill="#EBEBEB"/>
<path d="M727.87 131.12C730.74 120.22 738.61 109.53 744.49 100.12C739.83 92.06 738.74 89.88 730.77 76.91C725.88 88.21 720.02 99.83 717.08 111.85C724.44 124.05 724.64 125.01 727.87 131.12Z" fill="#787878"/>
<path d="M740.26 152.84C744.86 142.84 753.39 133.59 759.97 124.97C754.31 117.04 749.34 108.52 744.49 100.08C738.61 109.53 730.74 120.22 727.87 131.08C731.11 137.24 735.17 143.95 740.26 152.84Z" fill="#EBEBEB"/>
<path d="M765.73 195.47C772.99 187.22 782.73 180.47 791.12 173.53C786.31 165.1 781.62 156.48 775.92 148.6C768.11 156.69 758.87 164.74 752.36 174.01C757.62 183.19 762.33 190.5 765.73 195.47Z" fill="#EBEBEB"/>
<path d="M752.36 174.01C758.87 164.74 768.11 156.69 775.92 148.6C770.587 140.707 765.253 132.83 759.92 124.97C753.34 133.59 744.81 142.82 740.21 152.84C745.35 161.73 747.09 164.83 752.36 174.01Z" fill="#787878"/>
<path d="M777.08 212.63C784.85 205.73 795.01 200.79 803.96 195.8C796.35 182.8 795.43 181.06 791.12 173.52C782.68 180.41 772.99 187.21 765.73 195.46C769.14 200.45 769.14 200.09 777.08 212.63Z" fill="#787878"/>
<path d="M725.83 150.42C725.93 142.42 726.04 138.15 727.83 131.12C724.6 125.01 724.4 124.05 717.04 111.81C715.39 119.31 715.29 123.95 715.23 132.4C721.72 142.93 722.61 144.75 725.83 150.42Z" fill="#EBEBEB"/>
<path d="M737.06 169.79C737.48 162.73 737.79 159.02 740.26 152.79C735.17 143.9 731.11 137.19 727.87 131.07C726.04 138.07 725.93 142.39 725.87 150.37C729.05 156.1 732.07 160.92 737.06 169.79Z" fill="#787878"/>
<path d="M760.22 208.54C761.38 202.95 762.22 200.15 765.73 195.47C762.33 190.47 757.62 183.19 752.36 174.01C748.98 179.63 748.47 182.85 747.8 189.01C751.513 195.782 755.662 202.306 760.22 208.54Z" fill="#787878"/>
<path d="M747.8 189.06C748.47 182.85 748.98 179.63 752.36 174.06C747.09 164.88 745.36 161.78 740.26 152.89C737.79 159.07 737.48 162.78 737.06 169.89C742.04 178.63 743.23 180.88 747.8 189.06Z" fill="#EBEBEB"/>
<path d="M770.76 223.51C772.57 218.51 773.71 216.12 777.08 212.64C769.14 200.09 769.14 200.45 765.73 195.47C762.19 200.15 761.38 202.95 760.22 208.54C763.19 212.42 762.82 211.21 770.76 223.51Z" fill="#EBEBEB"/>
<path d="M725.89 168.93C726.03 162.53 725.73 158.41 725.83 150.42C722.61 144.75 721.72 142.93 715.27 132.42C715.2 140.86 715.49 145.19 715.39 151.42C721.01 160.55 722.62 163.39 725.89 168.93Z" fill="#787878"/>
<path d="M736.46 186.51C736.84 180.51 736.63 176.84 737.06 169.79C732.06 160.92 729.06 156.1 725.83 150.42C725.73 158.42 726.03 162.53 725.89 168.93C729.17 174.47 731.11 177.63 736.46 186.51Z" fill="#EBEBEB"/>
<path d="M758.4 222.49C758.99 217.1 759.05 214.13 760.22 208.54C755.664 202.322 751.515 195.815 747.8 189.06C747.13 195.28 747.37 198.48 747 204.06C751.34 211.28 756.12 219.14 758.4 222.49Z" fill="#EBEBEB"/>
<path d="M747 204.04C747.37 198.48 747.13 195.28 747.8 189.04C743.23 180.86 742.04 178.64 737.06 169.77C736.63 176.77 736.84 180.49 736.46 186.49C741.8 195.42 742.66 196.8 747 204.04Z" fill="#787878"/>
<path d="M767.45 236.63C768.117 232.158 769.225 227.763 770.76 223.51C762.82 211.21 763.19 212.42 760.22 208.51C759.05 214.1 758.99 217.07 758.4 222.46C760.67 225.84 759.79 224.05 767.45 236.63Z" fill="#787878"/>
<path d="M724.49 183.63C725.4 176.18 725.75 175.36 725.89 168.96C722.62 163.42 721.01 160.58 715.39 151.45C715.34 156.518 715.006 161.579 714.39 166.61C718.85 174.07 721.01 177.75 724.49 183.63Z" fill="#EBEBEB"/>
<path d="M734.66 200.36C735.74 193.16 736.07 192.51 736.46 186.51C731.11 177.6 729.17 174.51 725.89 168.93C725.75 175.33 725.4 176.15 724.49 183.6C727.94 189.46 729.28 191.63 734.66 200.36Z" fill="#787878"/>
<path d="M756.23 235.25C757.367 231.077 758.093 226.804 758.4 222.49C756.12 219.14 751.34 211.28 747 204.04C746.791 208.488 746.169 212.907 745.14 217.24C749.35 224.01 754.18 232.11 756.23 235.25Z" fill="#787878"/>
<path d="M745.14 217.24C746.169 212.907 746.791 208.488 747 204.04C742.66 196.8 741.8 195.42 736.46 186.51C736.07 192.51 735.74 193.16 734.66 200.36C740.04 209.09 740.94 210.48 745.14 217.24Z" fill="#EBEBEB"/>
<path d="M765.06 249.46C766.75 243.09 766.49 241.92 767.45 236.63C759.79 224.05 760.67 225.84 758.45 222.49C758.143 226.804 757.417 231.077 756.28 235.25C758.29 238.4 757.16 236.27 765.06 249.46Z" fill="#EBEBEB"/>
<path d="M718.76 204.38C723.05 196.13 723.57 191.06 724.49 183.6C721.01 177.75 718.85 174.07 714.38 166.6C713.63 174.26 713.14 179.22 709.13 187.77C712.34 193.52 714.94 197.96 718.76 204.38Z" fill="#787878"/>
<path d="M728.28 220.43C732.93 212.61 733.58 207.56 734.66 200.36C729.28 191.63 727.97 189.46 724.49 183.6C723.57 191.06 723.05 196.13 718.76 204.38C722.55 210.81 723.58 212.51 728.28 220.43Z" fill="#EBEBEB"/>
<path d="M747.5 252.37C753.39 246.17 754.61 241.71 756.23 235.25C754.23 232.11 749.35 224.01 745.14 217.25C743.76 224.08 742.74 228.83 737.42 235.93C740.94 241.92 745.78 249.84 747.5 252.37Z" fill="#EBEBEB"/>
<path d="M737.42 235.92C742.74 228.82 743.76 224.07 745.14 217.24C740.94 210.48 740.04 209.09 734.66 200.36C733.58 207.56 732.93 212.61 728.28 220.43C732.94 228.34 733.85 229.92 737.42 235.92Z" fill="#787878"/>
<path d="M755.81 265.63C762.09 260.15 763.37 255.84 765.06 249.48C757.16 236.29 758.29 238.42 756.23 235.27C754.61 241.73 753.39 246.19 747.5 252.39C749.21 254.9 747.79 252.25 755.81 265.63Z" fill="#787878"/>
<path d="M699.94 220.26C711.3 216.73 714.44 212.63 718.73 204.38C714.94 197.96 712.31 193.52 709.1 187.75C705.1 196.3 702.1 200.62 691.47 205.75C693.18 209.08 696.14 213.94 699.94 220.26Z" fill="#EBEBEB"/>
<path d="M708.31 234.22C720.31 232.04 723.64 228.22 728.31 220.43C723.61 212.51 722.58 210.81 718.79 204.43C714.5 212.68 711.36 216.78 700 220.31C703.8 226.57 704.37 227.38 708.31 234.22Z" fill="#787878"/>
<path d="M724.15 261.04C737.46 261.34 741.61 258.57 747.5 252.37C745.78 249.84 740.99 241.92 737.42 235.92C732.1 243.01 728.32 246.38 715.9 247.64C718.76 252.63 723.23 259.89 724.15 261.04Z" fill="#787878"/>
<path d="M715.94 247.63C728.36 246.37 732.14 243 737.46 235.91C733.89 229.91 733.02 228.33 728.32 220.42C723.68 228.23 720.32 232.03 708.32 234.21C712.26 241.06 713.05 242.68 715.94 247.63Z" fill="#EBEBEB"/>
<path d="M730.84 271.44C745.12 273.34 749.54 271.09 755.84 265.61C747.84 252.25 749.24 254.9 747.53 252.37C741.64 258.57 737.53 261.37 724.18 261.04C725.07 262.2 723.14 258.63 730.84 271.44Z" fill="#EBEBEB"/>
<path d="M193.67 245.39C193.67 245.39 260.67 255.39 278.67 289.39C296.67 323.39 290.67 347.39 288.17 359.39C285.67 371.39 272.67 412.39 241.17 476.39C209.67 540.39 168.67 619.89 144.67 651.39C120.67 682.89 -252.83 672.05 -252.83 672.05L-323.5 419.39L-240.5 245.32C-240.5 245.32 192.59 246.47 193.67 245.39Z" fill="#D8D8D8"/>
<path d="M460.5 277.06V280.06L756.17 354.06L756.5 342.72L460.5 277.06Z" fill="url(#paint8_linear_33_150)"/>
<path d="M503.17 280.06V282.06L802.17 339.06L802.5 330.73L503.17 280.06Z" fill="url(#paint9_linear_33_150)"/>
</g>
</g>
</g>
<defs>
<linearGradient id="paint0_linear_33_150" x1="449" y1="325.62" x2="449" y2="398.557" gradientUnits="userSpaceOnUse">
<stop stop-color="white"/>
<stop offset="1" stop-color="#D9D9D9" stop-opacity="0"/>
</linearGradient>
<linearGradient id="paint1_linear_33_150" x1="320.571" y1="325.05" x2="3.82286e-05" y2="325.05" gradientUnits="userSpaceOnUse">
<stop stop-color="white"/>
<stop offset="1" stop-color="#D9D9D9" stop-opacity="0"/>
</linearGradient>
<linearGradient id="paint2_linear_33_150" x1="341.71" y1="455.62" x2="291.71" y2="304.62" gradientUnits="userSpaceOnUse">
<stop stop-color="#DCDCDC"/>
<stop offset="1" stop-color="#B1B1B1"/>
</linearGradient>
<linearGradient id="paint3_linear_33_150" x1="635.98" y1="466.05" x2="583.98" y2="317.38" gradientUnits="userSpaceOnUse">
<stop stop-color="#DCDCDC"/>
<stop offset="1" stop-color="white"/>
</linearGradient>
<linearGradient id="paint4_linear_33_150" x1="698.52" y1="461.9" x2="496.52" y2="149.9" gradientUnits="userSpaceOnUse">
<stop stop-color="#DCDCDC"/>
<stop offset="1" stop-color="#B1B1B1"/>
</linearGradient>
<linearGradient id="paint5_linear_33_150" x1="572" y1="495.47" x2="572" y2="358.77" gradientUnits="userSpaceOnUse">
<stop stop-color="#D8D8D8"/>
<stop offset="1" stop-color="#B1B1B1"/>
</linearGradient>
<linearGradient id="paint6_linear_33_150" x1="302.5" y1="578.02" x2="302.5" y2="380.89" gradientUnits="userSpaceOnUse">
<stop stop-color="#D8D8D8"/>
<stop offset="1" stop-color="#A3A3A3"/>
</linearGradient>
<linearGradient id="paint7_linear_33_150" x1="1006.32" y1="294.47" x2="567.73" y2="254.18" gradientUnits="userSpaceOnUse">
<stop stop-color="#787878"/>
<stop offset="1" stop-color="#A3A3A3"/>
</linearGradient>
<linearGradient id="paint8_linear_33_150" x1="527.18" y1="296.31" x2="692.18" y2="333.81" gradientUnits="userSpaceOnUse">
<stop stop-color="#5D160C"/>
<stop offset="0.02" stop-color="#67160D"/>
<stop offset="0.08" stop-color="#87170F"/>
<stop offset="0.15" stop-color="#A21811"/>
<stop offset="0.22" stop-color="#B81812"/>
<stop offset="0.31" stop-color="#C91914"/>
<stop offset="0.42" stop-color="#D51914"/>
<stop offset="0.58" stop-color="#DC1915"/>
<stop offset="1" stop-color="#DE1915"/>
</linearGradient>
<linearGradient id="paint9_linear_33_150" x1="502.84" y1="256.64" x2="570.17" y2="278.97" gradientUnits="userSpaceOnUse">
<stop stop-color="#5D160C"/>
<stop offset="0.02" stop-color="#67160D"/>
<stop offset="0.08" stop-color="#87170F"/>
<stop offset="0.15" stop-color="#A21811"/>
<stop offset="0.22" stop-color="#B81812"/>
<stop offset="0.31" stop-color="#C91914"/>
<stop offset="0.42" stop-color="#D51914"/>
<stop offset="0.58" stop-color="#DC1915"/>
<stop offset="1" stop-color="#DE1915"/>
</linearGradient>
<clipPath id="clip0_33_150">
<rect width="898" height="400" fill="white" transform="matrix(-1 0 0 1 898 0)"/>
</clipPath>
</defs>
</svg>
