<svg width="65" height="60" viewBox="0 0 65 60" fill="none" xmlns="http://www.w3.org/2000/svg">
<g clip-path="url(#clip0_187_538)">
<path d="M28.14 55.26C38.7107 55.26 47.28 46.6907 47.28 36.12C47.28 25.5493 38.7107 16.98 28.14 16.98C17.5693 16.98 9 25.5493 9 36.12C9 46.6907 17.5693 55.26 28.14 55.26Z" fill="#959595"/>
<mask id="mask0_187_538" style="mask-type:luminance" maskUnits="userSpaceOnUse" x="27" y="-1" width="39" height="38">
<path d="M27.1399 36.1101L33.1799 -1L65.6599 22.49L27.1399 36.1101Z" fill="white"/>
</mask>
<g mask="url(#mask0_187_538)">
<path d="M29.18 11.6301C35.3853 11.6669 41.326 14.1482 45.7139 18.5362C50.1018 22.9241 52.5832 28.8647 52.6199 35.0701C52.6199 35.4701 52.62 35.9101 52.67 36.3601C52.6952 36.6886 52.837 36.997 53.0699 37.23L57.5399 41.6902C57.6266 41.7799 57.7359 41.8444 57.8563 41.877C57.9766 41.9095 58.1036 41.9086 58.2236 41.8748C58.3436 41.8409 58.4522 41.7752 58.5378 41.6846C58.6235 41.5939 58.683 41.4819 58.71 41.3601C59.1813 39.2966 59.4194 37.1867 59.4199 35.0701C59.4385 31.0937 58.669 27.1531 57.1558 23.4759C55.6427 19.7986 53.4159 16.4575 50.6042 13.6458C47.7924 10.834 44.4515 8.6074 40.7742 7.09426C37.0969 5.58112 33.1563 4.81156 29.18 4.8301C27.0637 4.83655 24.9544 5.07459 22.89 5.54006C22.7682 5.56885 22.6564 5.62969 22.5662 5.71633C22.476 5.80298 22.4106 5.91227 22.377 6.03274C22.3433 6.1532 22.3424 6.28051 22.3746 6.40139C22.4068 6.52227 22.4708 6.63223 22.5599 6.71999L26.9399 11.1001C27.2762 11.4318 27.719 11.6337 28.1899 11.6702C28.5204 11.6744 28.8509 11.661 29.18 11.6301Z" fill="#D51F11"/>
</g>
</g>
<defs>
<clipPath id="clip0_187_538">
<rect width="65" height="60" fill="white"/>
</clipPath>
</defs>
</svg>
