<svg width="51" height="61" viewBox="0 0 51 61" fill="none" xmlns="http://www.w3.org/2000/svg">
<g clip-path="url(#clip0_187_557)">
<path d="M21.14 56.26C31.7107 56.26 40.28 47.6907 40.28 37.12C40.28 26.5493 31.7107 17.98 21.14 17.98C10.5693 17.98 2 26.5493 2 37.12C2 47.6907 10.5693 56.26 21.14 56.26Z" fill="#959595"/>
<mask id="mask0_187_557" style="mask-type:luminance" maskUnits="userSpaceOnUse" x="21" y="0" width="39" height="38">
<path d="M21.1399 37.1101L27.1799 0L59.6599 23.49L21.1399 37.1101Z" fill="white"/>
</mask>
<g mask="url(#mask0_187_557)">
<path d="M21.18 13.6301C27.3853 13.6669 33.326 16.1482 37.7139 20.5362C42.1018 24.9241 44.5832 30.8647 44.6199 37.0701C44.6199 37.4701 44.62 37.9101 44.67 38.3601C44.6952 38.6886 44.837 38.997 45.0699 39.23L49.5399 43.6902C49.6266 43.7799 49.7359 43.8444 49.8563 43.877C49.9766 43.9095 50.1036 43.9086 50.2236 43.8748C50.3436 43.8409 50.4522 43.7752 50.5378 43.6846C50.6235 43.5939 50.683 43.4819 50.71 43.3601C51.1813 41.2966 51.4194 39.1867 51.4199 37.0701C51.4385 33.0937 50.669 29.1531 49.1558 25.4759C47.6427 21.7986 45.4159 18.4575 42.6042 15.6458C39.7924 12.834 36.4515 10.6074 32.7742 9.09426C29.0969 7.58112 25.1563 6.81156 21.18 6.8301C19.0637 6.83655 16.9544 7.07459 14.89 7.54006C14.7682 7.56885 14.6564 7.62969 14.5662 7.71633C14.476 7.80298 14.4106 7.91227 14.377 8.03274C14.3433 8.1532 14.3424 8.28051 14.3746 8.40139C14.4068 8.52227 14.4708 8.63223 14.5599 8.71999L18.9399 13.1001C19.2762 13.4318 19.719 13.6337 20.1899 13.6702C20.5204 13.6744 20.8509 13.661 21.18 13.6301Z" fill="#D51F11"/>
</g>
</g>
<defs>
<clipPath id="clip0_187_557">
<rect width="51" height="61" fill="white"/>
</clipPath>
</defs>
</svg>
