<svg width="67" height="61" viewBox="0 0 67 61" fill="none" xmlns="http://www.w3.org/2000/svg">
<path d="M16.7365 19.759C21.1503 15.3969 27.1059 12.9507 33.3116 12.9507C39.5172 12.9507 45.4727 15.3969 49.8865 19.759C50.1665 20.039 50.4965 20.3392 50.8265 20.6392C51.076 20.8556 51.3962 20.973 51.7265 20.9692H58.0466C58.1704 20.9692 58.2919 20.9362 58.3989 20.8738C58.5058 20.8114 58.5943 20.7218 58.6553 20.614C58.7163 20.5062 58.7477 20.3841 58.7461 20.2603C58.7446 20.1364 58.7102 20.0154 58.6465 19.9092C57.5013 18.1004 56.1599 16.4235 54.6465 14.9092C51.8465 12.0861 48.5151 9.84552 44.8448 8.31641C41.1744 6.78729 37.2377 6 33.2615 6C29.2854 6 25.3485 6.78729 21.6781 8.31641C18.0078 9.84552 14.6766 12.0861 11.8765 14.9092C10.3808 16.4237 9.05934 18.1008 7.93657 19.9092C7.86994 20.0141 7.83276 20.1348 7.82915 20.259C7.82554 20.3832 7.85551 20.5062 7.91594 20.6147C7.97637 20.7233 8.06507 20.8136 8.17253 20.876C8.27999 20.9384 8.40229 20.9706 8.52654 20.9692H14.7265C15.1997 20.9669 15.6569 20.7968 16.0165 20.4893C16.2691 20.2586 16.5094 20.0147 16.7365 19.759Z" fill="#D51F11"/>
<path d="M60.0963 24.2791H55.1963C55.0018 24.2817 54.8162 24.361 54.6796 24.4995C54.543 24.638 54.4663 24.8245 54.4663 25.019V45.3792C54.4653 45.5662 54.5038 45.7514 54.5792 45.9226C54.6547 46.0938 54.7653 46.2473 54.9041 46.3728C55.0428 46.4983 55.2064 46.5932 55.3843 46.6511C55.5622 46.7091 55.7504 46.7289 55.9364 46.7092C58.4927 46.453 60.8968 45.3743 62.7877 43.6353C64.6787 41.8962 65.9545 39.5906 66.4234 37.0647C66.8922 34.5388 66.5289 31.929 65.3881 29.6272C64.2472 27.3253 62.3903 25.4556 60.0963 24.2991V24.2791Z" fill="#D51F11"/>
<path d="M6.52641 24.2791H11.4264C11.6227 24.2791 11.8108 24.3571 11.9496 24.4958C12.0884 24.6346 12.1664 24.8228 12.1664 25.019V45.3792C12.166 45.5667 12.1263 45.7521 12.0497 45.9233C11.9732 46.0946 11.8616 46.2477 11.7221 46.373C11.5826 46.4984 11.4183 46.5932 11.2399 46.6511C11.0615 46.709 10.873 46.7288 10.6864 46.7092C8.13018 46.453 5.72598 45.3743 3.835 43.6353C1.94402 41.8962 0.668268 39.5906 0.19938 37.0647C-0.269508 34.5388 0.0937997 31.929 1.23466 29.6272C2.37552 27.3253 4.2324 25.4556 6.52641 24.2991V24.2791Z" fill="#D51F11"/>
<path d="M33.3063 55.5392C43.877 55.5392 52.4462 46.9699 52.4462 36.3992C52.4462 25.8284 43.877 17.2592 33.3063 17.2592C22.7355 17.2592 14.1663 25.8284 14.1663 36.3992C14.1663 46.9699 22.7355 55.5392 33.3063 55.5392Z" fill="#959595"/>
</svg>
