<svg width="60" height="45" viewBox="0 0 60 45" fill="none" xmlns="http://www.w3.org/2000/svg">
<path d="M15.67 18.38L15.01 17.63L22.23 11.24C22.7806 10.7495 23.4926 10.4789 24.23 10.48H32.48V11.48H24.23C23.7357 11.4785 23.2583 11.6602 22.89 11.99L15.67 18.38Z" fill="#9C9C9C"/>
<path d="M7.06 31H3.01002C2.36554 31 1.74747 30.744 1.29175 30.2883C0.836041 29.8326 0.580024 29.2144 0.580024 28.5699V21.51C0.578776 20.9841 0.754721 20.4731 1.07947 20.0594C1.40423 19.6458 1.85883 19.3536 2.37 19.23C6.25 18.34 14.93 17.5 15.3 17.46H32.49V18.46H15.34C15.34 18.46 6.41001 19.32 2.60001 20.21C2.31114 20.2821 2.05514 20.4498 1.8736 20.6858C1.69206 20.9218 1.59565 21.2123 1.60001 21.51V28.5699C1.60001 28.9492 1.75069 29.313 2.01887 29.5812C2.28704 29.8494 2.65075 30 3.03001 30H7.08002L7.06 31Z" fill="#9C9C9C"/>
<path d="M32.49 30H17.53V31H32.49V30Z" fill="#9C9C9C"/>
<path d="M12.3 36.2399C11.1643 36.2419 10.0535 35.9069 9.10829 35.2774C8.16304 34.6479 7.42577 33.7521 6.98979 32.7034C6.55381 31.6548 6.43872 30.5004 6.65907 29.3863C6.87942 28.2722 7.42532 27.2484 8.22767 26.4446C9.03003 25.6409 10.0528 25.0933 11.1665 24.871C12.2802 24.6487 13.4348 24.7618 14.4843 25.196C15.5337 25.6301 16.4308 26.3657 17.0619 27.3099C17.6931 28.254 18.03 29.3643 18.03 30.4999C18.0273 32.0197 17.4231 33.4767 16.3494 34.5523C15.2757 35.6279 13.8198 36.2346 12.3 36.2399ZM12.3 25.77C11.3617 25.768 10.4438 26.0446 9.66282 26.5646C8.8818 27.0847 8.27273 27.8248 7.91273 28.6913C7.55273 29.5579 7.458 30.5118 7.64058 31.4322C7.82315 32.3526 8.2748 33.1981 8.9383 33.8616C9.60181 34.5251 10.4473 34.9768 11.3677 35.1594C12.2881 35.3419 13.242 35.2473 14.1085 34.8873C14.9751 34.5273 15.7153 33.9182 16.2353 33.1372C16.7554 32.3561 17.032 31.4383 17.03 30.4999C17.0273 29.2463 16.5281 28.0447 15.6417 27.1583C14.7552 26.2718 13.5537 25.7726 12.3 25.77Z" fill="#9C9C9C"/>
<path d="M33.12 0H32.12V44.01H33.12V0Z" fill="#D51F11"/>
<path d="M48.22 36.2399C47.0843 36.2419 45.9735 35.9069 45.0283 35.2774C44.083 34.6479 43.3458 33.7521 42.9098 32.7034C42.4738 31.6548 42.3587 30.5004 42.579 29.3863C42.7994 28.2722 43.3453 27.2484 44.1476 26.4446C44.95 25.6409 45.9728 25.0933 47.0865 24.871C48.2002 24.6487 49.3548 24.7618 50.4043 25.196C51.4537 25.6301 52.3507 26.3657 52.9819 27.3099C53.6131 28.254 53.95 29.3643 53.95 30.4999C53.9474 32.0197 53.3431 33.4767 52.2694 34.5523C51.1957 35.6279 49.7398 36.2346 48.22 36.2399ZM48.22 25.77C47.2816 25.768 46.3638 26.0446 45.5828 26.5646C44.8018 27.0847 44.1927 27.8248 43.8327 28.6913C43.4727 29.5579 43.378 30.5118 43.5606 31.4322C43.7432 32.3526 44.1948 33.1981 44.8583 33.8616C45.5218 34.5251 46.3673 34.9768 47.2877 35.1594C48.2081 35.3419 49.162 35.2473 50.0285 34.8873C50.8951 34.5273 51.6352 33.9182 52.1553 33.1371C52.6754 32.3561 52.952 31.4383 52.95 30.4999C52.9473 29.2463 52.4482 28.0447 51.5617 27.1583C50.6752 26.2718 49.4736 25.7726 48.22 25.77Z" fill="#D51F11"/>
<path d="M59.52 31H53.45V30H58.52V22.45C55.97 11.87 52.52 11.45 52.52 11.45H32.62V10.45H52.51C52.96 10.45 56.78 10.93 59.51 22.28V31.01L59.52 31Z" fill="#D51F11"/>
<path d="M42.98 30H32.62V31H42.98V30Z" fill="#D51F11"/>
<path d="M57.72 17.46H32.62V18.46H57.72V17.46Z" fill="#D51F11"/>
<path d="M59.07 30.77L53.84 30.38L51.41 26.3L48.35 25.28L46.43 25.53L43.88 27.32L42.99 29.75L42.86 30.64H32.39V17.75H57.41L58.56 21.57L58.94 25.53L58.69 29.23L59.07 30.77Z" fill="#D51F11"/>
</svg>
