<svg width="169" height="38" viewBox="0 0 169 38" fill="none" xmlns="http://www.w3.org/2000/svg">
<path fill-rule="evenodd" clip-rule="evenodd" d="M20.4098 0.520009C16.7943 0.138399 13.1469 0.837523 9.92882 2.52904C6.71075 4.22056 4.0666 6.82841 2.3308 10.0228C0.594997 13.2172 -0.154404 16.8547 0.177236 20.4751C0.508876 24.0955 1.90668 27.5362 4.19396 30.3621C6.48124 33.1879 9.55525 35.272 13.0271 36.3507C16.4989 37.4294 20.2126 37.4544 23.6986 36.4222C27.1846 35.3901 30.2862 33.3474 32.6111 30.5524C34.936 27.7574 36.3798 24.3356 36.7599 20.72C36.8949 19.4602 36.8949 18.1896 36.7599 16.9299C36.3348 12.7325 34.4772 8.80967 31.4995 5.82103C28.5218 2.83239 24.6056 0.960413 20.4098 0.520009ZM19.8098 28.52C17.8882 28.7762 15.9338 28.4567 14.1937 27.6019C12.4537 26.7471 11.0061 25.3956 10.0344 23.718C9.0627 22.0405 8.61045 20.1124 8.73473 18.1777C8.85901 16.2431 9.55429 14.3887 10.7327 12.8492C11.911 11.3098 13.5195 10.1545 15.3546 9.52941C17.1897 8.9043 19.169 8.83751 21.0421 9.33751C22.9152 9.83751 24.5979 10.8817 25.8773 12.3382C27.1568 13.7948 27.9755 15.5981 28.2298 17.52C28.3398 18.3765 28.3398 19.2435 28.2298 20.1C27.9499 22.2316 26.9752 24.2116 25.4568 25.7336C23.9384 27.2557 21.9608 28.235 19.8298 28.52H19.8098ZM46.5998 1.23998C45.9621 1.2428 45.333 1.38745 44.758 1.66344C44.1831 1.93943 43.6767 2.33983 43.2756 2.83568C42.8745 3.33153 42.5887 3.91034 42.439 4.53026C42.2892 5.15019 42.2793 5.79565 42.4098 6.41991C42.6362 7.39889 43.1917 8.2706 43.9834 8.88939C44.7751 9.50819 45.7552 9.83663 46.7599 9.81994H58.6998L40.1199 34.4C39.9723 34.5835 39.8805 34.8054 39.8555 35.0395C39.8304 35.2737 39.873 35.5101 39.9783 35.7207C40.0836 35.9313 40.2471 36.1072 40.4495 36.2276C40.6518 36.3481 40.8845 36.4079 41.1199 36.4H70.2499C71.2538 36.4181 72.2333 36.0899 73.0237 35.4707C73.8141 34.8515 74.3671 33.979 74.5898 33C74.7071 32.449 74.7143 31.8803 74.6113 31.3265C74.5083 30.7727 74.297 30.2448 73.9895 29.7728C73.682 29.3009 73.2843 28.8942 72.8193 28.5763C72.3543 28.2583 71.8311 28.0352 71.2798 27.9199C70.9949 27.8516 70.7028 27.818 70.4098 27.8199H55.8298L74.3899 3.27001C74.5867 3.0067 74.6719 2.67638 74.6269 2.3507C74.582 2.02502 74.4106 1.73021 74.1498 1.53002C73.9327 1.36901 73.67 1.28144 73.3998 1.28002L46.5998 1.23998ZM163 1.33996C162.033 1.56809 161.174 2.11999 160.565 2.90404C159.955 3.68809 159.632 4.65714 159.65 5.65001V19.9299L136.52 1.51C136.263 1.3093 135.938 1.21769 135.614 1.25512C135.29 1.29255 134.994 1.45595 134.79 1.70995C134.613 1.92761 134.518 2.19978 134.52 2.47997V31.96C134.502 32.9528 134.825 33.9218 135.435 34.7058C136.044 35.4898 136.903 36.0419 137.87 36.27C138.419 36.3908 138.986 36.4023 139.539 36.3038C140.093 36.2054 140.621 35.999 141.095 35.6963C141.569 35.3936 141.978 35.0004 142.3 34.5395C142.621 34.0786 142.849 33.5589 142.97 33.01C143.038 32.7047 143.071 32.3927 143.07 32.0799V17.6799L166.21 36.09C166.467 36.2907 166.792 36.3823 167.116 36.3448C167.44 36.3074 167.736 36.144 167.94 35.89C168.109 35.6691 168.201 35.3983 168.2 35.12V5.53002C168.201 4.96712 168.091 4.40946 167.877 3.88903C167.662 3.3686 167.347 2.89555 166.95 2.49706C166.552 2.09857 166.08 1.78248 165.56 1.56676C165.04 1.35105 164.483 1.23998 163.92 1.23998C163.61 1.24632 163.302 1.28315 163 1.34997V1.33996ZM102.76 8.99999C112.54 8.99999 119.85 14.1699 119.85 18.7999C119.85 23.4299 112.54 28.6 102.76 28.6C92.9799 28.6 85.6598 23.4199 85.6598 18.7999C85.6598 14.1799 92.9699 8.99999 102.76 8.99999ZM102.76 0.419912C88.5899 0.419912 77.1099 8.64992 77.1099 18.7999C77.1099 28.9499 88.5899 37.1699 102.76 37.1699C116.93 37.1699 128.4 28.9499 128.4 18.7999C128.4 8.64992 116.92 0.419912 102.76 0.419912Z" fill="#0069FF"/>
</svg>
