<svg width="182" height="55" viewBox="0 0 182 55" fill="none" xmlns="http://www.w3.org/2000/svg">
<path fill-rule="evenodd" clip-rule="evenodd" d="M112.89 42.7199C102.37 50.4799 87.12 54.6099 74 54.6099C56.4571 54.7 39.5131 48.2341 26.49 36.4799C25.49 35.5899 26.38 34.3799 27.56 35.0699C42.0367 43.3448 58.4251 47.6918 75.0999 47.6799C87.5577 47.6226 99.8811 45.1009 111.36 40.26C113.14 39.51 114.63 41.4299 112.89 42.7199Z" fill="#FF9900"/>
<path fill-rule="evenodd" clip-rule="evenodd" d="M117.26 37.72C115.92 36 108.38 36.9099 104.99 37.3099C103.99 37.4299 103.8 36.54 104.73 35.89C110.73 31.66 120.6 32.8899 121.73 34.2999C122.86 35.7099 121.43 45.6099 115.78 50.2999C114.91 51.0299 114.08 50.6399 114.47 49.6799C115.74 46.5099 118.58 39.4099 117.23 37.6799" fill="#FF9900"/>
<path fill-rule="evenodd" clip-rule="evenodd" d="M105.22 6.02002V1.91003C105.22 1.64482 105.325 1.39042 105.513 1.20288C105.7 1.01534 105.955 0.910034 106.22 0.910034H124.64C124.776 0.901842 124.913 0.921566 125.041 0.96814C125.17 1.01471 125.287 1.0871 125.386 1.18079C125.486 1.27447 125.565 1.38753 125.619 1.51294C125.673 1.63835 125.7 1.77351 125.7 1.91003V5.42993C125.468 6.39373 124.993 7.28207 124.32 8.01001L114.83 21.64C118.472 21.4341 122.102 22.2112 125.34 23.89C125.634 24.0441 125.881 24.2734 126.057 24.5546C126.232 24.8357 126.33 25.1586 126.34 25.49V29.88C126.34 30.48 125.68 31.1799 124.99 30.8199C121.982 29.2669 118.646 28.4565 115.26 28.4565C111.875 28.4565 108.538 29.2669 105.53 30.8199C104.9 31.1599 104.23 30.4699 104.23 29.8199V25.65C104.165 24.6641 104.399 23.6814 104.9 22.83L115.96 6.96997H106.34C106.203 6.97959 106.065 6.96085 105.936 6.91492C105.806 6.86899 105.688 6.79684 105.587 6.703C105.487 6.60917 105.407 6.49563 105.352 6.36951C105.298 6.24338 105.27 6.1074 105.27 5.96997M38.1 31.63H32.5001C32.2468 31.6191 32.006 31.5168 31.8222 31.3422C31.6384 31.1675 31.524 30.9323 31.5001 30.6799V1.92993C31.4996 1.7916 31.5279 1.65468 31.5831 1.52783C31.6382 1.40098 31.7191 1.28698 31.8206 1.19299C31.9221 1.09901 32.0421 1.02709 32.1728 0.981812C32.3035 0.936536 32.4422 0.918864 32.5801 0.929932H37.8001C38.0614 0.942104 38.3087 1.05136 38.4937 1.23633C38.6786 1.42129 38.7879 1.66864 38.8001 1.92993V5.67993H38.9001C40.2601 2.04993 42.8301 0.359985 46.2801 0.359985C49.7301 0.359985 51.9701 2.04993 53.5501 5.67993C54.073 4.31566 54.9477 3.11407 56.0852 2.19714C57.2227 1.28021 58.5826 0.680631 60.0268 0.459229C61.471 0.237826 62.9481 0.402472 64.308 0.936523C65.668 1.47058 66.8624 2.35505 67.7701 3.5C69.5401 5.92 69.1801 9.44 69.1801 12.5V30.64C69.1671 30.915 69.0466 31.1738 68.8446 31.3608C68.6426 31.5479 68.3752 31.6482 68.1 31.64H62.51C62.2502 31.6235 62.0054 31.5128 61.8213 31.3287C61.6372 31.1447 61.5266 30.8998 61.51 30.64V15.4C61.5926 13.6019 61.5391 11.8001 61.35 10.01C60.94 8.08001 59.6801 7.53992 58.0601 7.53992C57.3326 7.56462 56.6281 7.80113 56.0331 8.22034C55.438 8.63954 54.9782 9.22333 54.7101 9.90002C54.1401 11.35 54.19 13.77 54.19 15.4V30.64C54.1771 30.915 54.0566 31.1738 53.8546 31.3608C53.6526 31.5479 53.3852 31.6482 53.1101 31.64H47.5201C47.2595 31.6256 47.0134 31.5157 46.8289 31.3312C46.6444 31.1467 46.5344 30.9006 46.5201 30.64V15.4C46.5201 12.2 47.05 7.47998 43.07 7.47998C39.09 7.47998 39.2001 12.08 39.2001 15.4V30.64C39.1871 30.915 39.0666 31.1738 38.8646 31.3608C38.6626 31.5479 38.3952 31.6482 38.1201 31.64M141.6 0.349976C149.91 0.349976 154.41 7.48994 154.41 16.5599C154.41 25.3299 149.41 32.2899 141.6 32.2899C133.43 32.2899 128.99 25.1499 128.99 16.2899C128.99 7.42992 133.49 0.380005 141.6 0.380005M141.6 6.25C137.47 6.25 137.21 11.87 137.21 15.38C137.21 18.89 137.16 26.38 141.56 26.38C145.96 26.38 146.1 20.32 146.1 16.64C146.193 14.07 145.913 11.5 145.27 9.01001C145.096 8.18216 144.629 7.445 143.955 6.9342C143.28 6.42341 142.444 6.17332 141.6 6.22998M165.15 31.7H159.57C159.31 31.6834 159.065 31.5729 158.881 31.3888C158.697 31.2047 158.587 30.9598 158.57 30.7V1.93994C158.6 1.67749 158.728 1.43604 158.928 1.26367C159.128 1.0913 159.386 1.00075 159.65 1.01001H164.83C165.061 1.01605 165.284 1.09751 165.465 1.24194C165.645 1.38637 165.773 1.58578 165.83 1.80994V6.20996H165.94C167.5 2.26996 169.7 0.400024 173.57 0.400024C174.863 0.336587 176.149 0.616896 177.298 1.2124C178.446 1.80791 179.417 2.69722 180.11 3.78992C181.58 6.08992 181.58 9.95999 181.58 12.74V30.84C181.537 31.0942 181.405 31.3247 181.207 31.4897C181.008 31.6548 180.758 31.7436 180.5 31.74H174.88C174.635 31.7289 174.401 31.6331 174.219 31.469C174.037 31.3049 173.917 31.0825 173.88 30.84V15.22C173.88 12.08 174.24 7.46997 170.37 7.46997C169.665 7.50272 168.984 7.738 168.41 8.14771C167.835 8.55741 167.391 9.12422 167.13 9.78003C166.437 11.5059 166.133 13.3633 166.24 15.22V30.7C166.22 30.974 166.096 31.2301 165.893 31.4159C165.691 31.6017 165.425 31.7032 165.15 31.7ZM90.5001 17.97C90.5001 20.15 90.5601 21.97 89.5001 23.91C89.1418 24.6443 88.5925 25.2685 87.9098 25.7172C87.2271 26.1659 86.4362 26.4224 85.6201 26.46C83.4701 26.46 82.2101 24.82 82.2101 22.4C82.2101 17.62 86.49 16.76 90.54 16.76L90.5001 17.97ZM96.1501 31.62C95.9701 31.7743 95.7475 31.8703 95.5118 31.8953C95.2761 31.9203 95.0384 31.8731 94.8301 31.76C93.5398 30.7207 92.4517 29.453 91.6201 28.02C88.5401 31.16 86.36 32.1 82.38 32.1C77.66 32.1 74.0001 29.19 74.0001 23.37C73.9343 21.411 74.4754 19.4794 75.5494 17.8397C76.6234 16.2 78.1779 14.9323 80.0001 14.21C83.0001 12.87 87.2901 12.63 90.5301 12.26V11.5399C90.5301 10.2099 90.64 8.62998 89.85 7.47998C89.4831 7.00153 89.0059 6.61884 88.4592 6.36462C87.9125 6.11041 87.3124 5.99224 86.7101 6.02002C85.6787 5.93957 84.6533 6.23718 83.8252 6.8573C82.9972 7.47742 82.4231 8.37767 82.2101 9.39001C82.1738 9.64235 82.0567 9.87613 81.8765 10.0564C81.6962 10.2367 81.4624 10.3537 81.2101 10.39L75.7801 9.80994C75.6479 9.78943 75.5212 9.74259 75.4074 9.67224C75.2937 9.60189 75.1952 9.50948 75.1178 9.40039C75.0404 9.2913 74.9857 9.16785 74.9569 9.03723C74.928 8.90662 74.9257 8.77154 74.9501 8.64001C76.1901 2.05001 82.1501 0.0599365 87.4701 0.0599365C90.2001 0.0599365 93.76 0.789976 95.91 2.84998C98.64 5.39998 98.38 8.78999 98.38 12.49V21.22C98.38 23.84 99.4701 24.99 100.49 26.41C100.684 26.6097 100.792 26.8769 100.792 27.155C100.792 27.4332 100.684 27.7004 100.49 27.9C99.3401 28.9 97.31 30.63 96.19 31.62H96.1501ZM17.0601 17.97C17.0601 20.15 17.12 21.97 16.01 23.91C15.6535 24.6435 15.1059 25.2672 14.425 25.7159C13.744 26.1647 12.9547 26.4217 12.1401 26.46C9.99005 26.46 8.73005 24.82 8.73005 22.4C8.73005 17.62 13.0101 16.76 17.0601 16.76V17.97ZM22.7101 31.62C22.5301 31.7743 22.3076 31.8703 22.0718 31.8953C21.8361 31.9203 21.5984 31.8731 21.3901 31.76C20.1025 30.7151 19.0121 29.4485 18.1701 28.02C15.1001 31.16 12.9201 32.1 8.94006 32.1C4.23006 32.1 0.550058 29.19 0.550058 23.37C0.485702 21.4113 1.02742 19.4803 2.10127 17.8409C3.17511 16.2015 4.72874 14.9335 6.55006 14.21C9.55006 12.87 13.8301 12.63 17.0801 12.26V11.5399C17.0801 10.2099 17.1801 8.62998 16.4001 7.47998C16.0331 7.00153 15.556 6.61884 15.0092 6.36462C14.4625 6.11041 13.8624 5.99224 13.26 6.02002C12.2279 5.94137 11.2022 6.23938 10.3729 6.85901C9.54372 7.47863 8.96716 8.37787 8.75006 9.39001C8.71693 9.64362 8.60092 9.87908 8.42007 10.0599C8.23922 10.2408 8.00366 10.3569 7.75006 10.39L2.32006 9.80994C2.187 9.79063 2.05919 9.74476 1.94428 9.67493C1.82938 9.60509 1.72975 9.51279 1.65133 9.40356C1.57291 9.29434 1.51734 9.17038 1.48791 9.03918C1.45848 8.90799 1.4558 8.77227 1.48005 8.64001C2.73005 2.05001 8.68005 0.0599365 14.01 0.0599365C16.74 0.0599365 20.3001 0.789976 22.4501 2.84998C25.1701 5.39998 24.9101 8.78999 24.9101 12.49V21.22C24.9101 23.84 26.0001 24.99 27.0301 26.41C27.1283 26.5076 27.2063 26.6236 27.2595 26.7515C27.3127 26.8793 27.3401 27.0165 27.3401 27.155C27.3401 27.2935 27.3127 27.4306 27.2595 27.5585C27.2063 27.6863 27.1283 27.8024 27.0301 27.9C25.8901 28.9 23.8501 30.63 22.7401 31.62H22.7101Z" fill="#221F1F"/>
</svg>
