<svg width="258" height="63" viewBox="0 0 258 63" fill="none" xmlns="http://www.w3.org/2000/svg">
<path d="M230.1 20.9199C231.55 20.9199 232.75 20.1699 232.91 19.1899L234.35 2.92993C234.35 1.31993 232.47 0 230.1 0C227.73 0 225.86 1.31993 225.86 2.92993L227.29 19.1899C227.45 20.1899 228.65 20.9199 230.1 20.9199ZM221.31 26C222.04 24.74 221.98 23.33 221.21 22.7L207.83 13.35C206.44 12.55 204.36 13.5199 203.17 15.5699C201.98 17.6199 202.17 19.9 203.58 20.71L218.38 27.6C219.31 27.94 220.57 27.28 221.29 26.02M238.87 26.02C239.6 27.28 240.87 27.94 241.78 27.6L256.58 20.71C257.98 19.9 258.17 17.6199 257 15.5699C255.83 13.5199 253.72 12.57 252.34 13.35L238.97 22.73C238.21 23.36 238.15 24.73 238.88 26.03M230.09 41.27C231.54 41.27 232.74 42.02 232.9 43L234.34 59.26C234.34 60.87 232.46 62.1899 230.09 62.1899C227.72 62.1899 225.85 60.87 225.85 59.26L227.28 43C227.44 42 228.64 41.27 230.09 41.27ZM238.88 36.1899C239.61 34.9299 240.88 34.28 241.79 34.62L256.59 41.51C257.99 42.32 258.18 44.61 257.01 46.65C255.84 48.69 253.73 49.65 252.35 48.87L238.98 39.5C238.22 38.87 238.16 37.4999 238.89 36.1899M221.31 36.1899C222.04 37.4499 221.98 38.87 221.21 39.5L207.85 48.87C206.46 49.67 204.38 48.7 203.19 46.66C202 44.62 202.19 42.32 203.6 41.51L218.4 34.63C219.33 34.28 220.59 34.93 221.31 36.2" fill="#FDBB30"/>
<path d="M145.83 39.4299C145.837 39.9258 145.776 40.4204 145.65 40.9C145.293 41.9336 144.616 42.8264 143.716 43.4486C142.817 44.0709 141.743 44.3901 140.65 44.36C140.167 44.4035 139.68 44.3412 139.223 44.1774C138.766 44.0136 138.351 43.7522 138.005 43.4115C137.66 43.0708 137.392 42.6588 137.222 42.2043C137.052 41.7499 136.983 41.2639 137.02 40.78C137.02 37.05 141.11 36.0299 145.78 36.0499V39.4299H145.83ZM153.14 32.9399C153.14 26.7999 150.52 21.4 141.66 21.4C138.134 21.3433 134.65 22.1755 131.53 23.8199L132.97 28.75C135.21 27.4266 137.758 26.7128 140.36 26.6799C144.85 26.6799 145.59 29.22 145.59 30.86V31.25C135.79 31.25 129.59 34.6299 129.59 41.5399C129.59 45.7599 132.74 49.72 138.23 49.72C139.723 49.7738 141.209 49.4865 142.574 48.88C143.94 48.2735 145.149 47.3638 146.11 46.22H146.27C146.27 46.22 147.39 50.9 153.56 49.11C153.239 46.9487 153.095 44.7647 153.13 42.58V32.9399M0.449951 13.0399C0.449951 13.0399 6.85 39.2799 7.87 43.5399C9.06 48.5399 11.2099 50.34 17.4099 49.11L21.4099 32.84C22.4099 28.84 23.1 25.91 23.75 21.84H23.87C24.3287 25.5373 24.9762 29.2088 25.8099 32.84C25.8099 32.84 27.4399 40.23 28.2699 44.11C29.0999 47.99 31.43 50.43 37.5 49.11L47.0299 13.0399H39.34L36.09 28.64C35.21 33.17 34.4199 36.72 33.8099 40.87H33.7C33.14 36.76 32.4299 33.3499 31.5399 28.9299L28.1599 13.0399H20.1599L16.5299 28.53C15.5299 33.24 14.5299 37.0399 13.9399 41.0499H13.83C13.21 37.2699 12.38 32.4999 11.48 27.9399C11.48 27.9399 9.31995 16.8599 8.56995 13.0399H0.469971M61.6 39.4299C61.6166 40.099 61.4937 40.7644 61.2391 41.3834C60.9846 42.0024 60.6039 42.5616 60.1213 43.0254C59.6387 43.4892 59.0648 43.8474 58.4362 44.0771C57.8075 44.3069 57.1379 44.4032 56.47 44.36C55.9867 44.4035 55.4996 44.3412 55.0428 44.1774C54.5861 44.0136 54.1706 43.7522 53.8251 43.4115C53.4796 43.0708 53.2125 42.6588 53.0424 42.2043C52.8722 41.7499 52.8031 41.2639 52.84 40.78C52.84 37.05 56.93 36.0299 61.6 36.0499V39.4299ZM68.9099 32.9399C68.9099 26.7999 66.2899 21.4 57.4299 21.4C53.9003 21.3416 50.4128 22.1738 47.2899 23.8199L48.74 28.75C50.9803 27.4266 53.5282 26.7128 56.13 26.6799C60.62 26.6799 61.36 29.22 61.36 30.86V31.25C51.56 31.25 45.36 34.6299 45.36 41.5399C45.36 45.7599 48.51 49.72 53.99 49.72C55.4843 49.7723 56.9711 49.4845 58.3379 48.8782C59.7047 48.2719 60.9159 47.3629 61.88 46.22H62.0399C62.0399 46.22 63.16 50.9 69.33 49.11C69.0089 46.9487 68.865 44.7647 68.8999 42.58V32.9399M81.11 41.45V13.0399H73.7899V49.11H81.11V41.45ZM176.93 13.0399V39.65C176.93 43.32 177.63 45.89 179.1 47.46C179.895 48.2237 180.836 48.8179 181.868 49.2064C182.899 49.5949 183.999 49.7697 185.1 49.72C186.9 49.7349 188.692 49.4683 190.41 48.9299L190.31 43.21C189.4 43.4342 188.467 43.545 187.53 43.5399C185.03 43.5399 184.2 41.94 184.2 38.65V28.47H190.58V21.5699H184.2V13.0399H176.97M158.07 22.0399V49.14H165.62V35.27C165.61 34.5994 165.667 33.9294 165.79 33.27C166.018 31.8713 166.759 30.6077 167.868 29.7258C168.978 28.8439 170.376 28.4069 171.79 28.5C172.52 28.5097 173.249 28.5732 173.97 28.6899V21.6C173.425 21.4823 172.868 21.4253 172.31 21.4299C170.635 21.4913 169.021 22.0774 167.697 23.1056C166.372 24.1338 165.405 25.5521 164.93 27.16H164.73V22.0399H158.1M86.3099 22.0399V49.14H93.6699V33.25C93.6549 32.4952 93.7734 31.7436 94.0199 31.03C94.3273 30.0678 94.9189 29.2212 95.7168 28.6018C96.5147 27.9824 97.4816 27.6191 98.49 27.5599C101.49 27.5599 102.85 30.07 102.85 33.7V49.14H110.21V33.0599C110.204 32.3153 110.308 31.5739 110.52 30.86C110.805 29.9102 111.387 29.077 112.181 28.4829C112.975 27.8888 113.938 27.5653 114.93 27.5599C117.93 27.5599 119.39 30.0299 119.39 34.2899V49.14H126.75V33.14C126.75 24.72 122.48 21.39 117.65 21.39C115.766 21.3586 113.912 21.8688 112.31 22.86C110.939 23.7332 109.767 24.8848 108.87 26.24H108.77C108.176 24.7607 107.14 23.501 105.802 22.6329C104.465 21.7649 102.893 21.3308 101.3 21.39C99.7149 21.3016 98.1367 21.6572 96.7428 22.4169C95.3489 23.1765 94.1947 24.31 93.4099 25.6899H93.2999V22H86.2999" fill="#1A75CF"/>
</svg>
