<svg width="117" height="172" viewBox="0 0 117 172" fill="none" xmlns="http://www.w3.org/2000/svg">
<path fill-rule="evenodd" clip-rule="evenodd" d="M56.0568 116.9H31.3668V112.9H56.0568V116.9Z" fill="#D51F11"/>
<path fill-rule="evenodd" clip-rule="evenodd" d="M56.0569 127.33H14.4769V123.33H56.0569V127.33Z" fill="#D51F11"/>
<path fill-rule="evenodd" clip-rule="evenodd" d="M56.0569 106.48H21.2969V102.48H56.0569V106.48Z" fill="#D51F11"/>
<path fill-rule="evenodd" clip-rule="evenodd" d="M63.1569 99.42H94.7668V131.03H63.1569V99.42ZM67.1569 103.42V127.03H90.7668V103.42H67.1569Z" fill="#D51F11"/>
<path fill-rule="evenodd" clip-rule="evenodd" d="M58.587 64C31.1826 64 8.96692 86.2156 8.96692 113.62C8.96692 141.024 31.1826 163.24 58.587 163.24C85.9913 163.24 108.207 141.024 108.207 113.62C108.207 86.2156 85.9913 64 58.587 64ZM0.966919 113.62C0.966919 81.7973 26.7643 56 58.587 56C90.4096 56 116.207 81.7974 116.207 113.62C116.207 145.443 90.4096 171.24 58.587 171.24C26.7643 171.24 0.966919 145.443 0.966919 113.62Z" fill="white"/>
<g clip-path="url(#clip0_164_59)">
<path fill-rule="evenodd" clip-rule="evenodd" d="M57.5 79.2841L57.22 0.01416L62 -1.22391e-08L62.28 79.27L57.5 79.2841Z" fill="#D51F11"/>
</g>
<path d="M60.8453 88.8249L70.3854 79.285C70.7212 78.9381 70.9132 78.4768 70.9227 77.9941C70.9323 77.5114 70.7586 77.043 70.4368 76.6831C70.1149 76.3232 69.6687 76.0986 69.1879 76.0544C68.7071 76.0102 68.2274 76.1497 67.8453 76.4449L59.4353 84.8549L50.9453 76.3049C50.5445 76.0464 50.0615 75.9472 49.5912 76.0268C49.1209 76.1065 48.6974 76.3592 48.404 76.7353C48.1107 77.1114 47.9686 77.5836 48.0059 78.0592C48.0431 78.5347 48.257 78.9791 48.6053 79.3049L58.1454 88.8449C58.5074 89.1977 58.994 89.3935 59.4995 89.3897C60.005 89.386 60.4885 89.183 60.8453 88.8249Z" fill="#D51F11"/>
<defs>
<clipPath id="clip0_164_59">
<rect width="79" height="4" fill="white" transform="translate(61) rotate(90)"/>
</clipPath>
</defs>
</svg>
