<svg width="107" height="107" viewBox="0 0 107 107" fill="none" xmlns="http://www.w3.org/2000/svg">
<path fill-rule="evenodd" clip-rule="evenodd" d="M51.1175 56.1801H28.3722V52.4951H51.1175V56.1801Z" fill="#D51F11"/>
<path fill-rule="evenodd" clip-rule="evenodd" d="M51.1177 65.7885H12.8126V62.1035H51.1177V65.7885Z" fill="#D51F11"/>
<path fill-rule="evenodd" clip-rule="evenodd" d="M51.1177 46.5807H19.0955V42.8958H51.1177V46.5807Z" fill="#D51F11"/>
<path fill-rule="evenodd" clip-rule="evenodd" d="M57.6583 40.0768H86.7786V69.1971H57.6583V40.0768ZM61.3433 43.7617V65.5121H83.0937V43.7617H61.3433Z" fill="#D51F11"/>
<path fill-rule="evenodd" clip-rule="evenodd" d="M53.4484 7.44655C28.2025 7.44655 7.73659 27.9124 7.73659 53.1583C7.73659 78.4042 28.2025 98.8701 53.4484 98.8701C78.6943 98.8701 99.1602 78.4042 99.1602 53.1583C99.1602 27.9124 78.6943 7.44655 53.4484 7.44655ZM0.366699 53.1583C0.366699 23.8421 24.1322 0.0766602 53.4484 0.0766602C82.7646 0.0766602 106.53 23.8421 106.53 53.1583C106.53 82.4745 82.7646 106.24 53.4484 106.24C24.1322 106.24 0.366699 82.4745 0.366699 53.1583Z" fill="white"/>
</svg>
