<svg width="116" height="263" viewBox="0 0 116 263" fill="none" xmlns="http://www.w3.org/2000/svg">
<path fill-rule="evenodd" clip-rule="evenodd" d="M57.62 82C30.2156 82 8 104.216 8 131.62C8 159.024 30.2156 181.24 57.62 181.24C85.0244 181.24 107.24 159.024 107.24 131.62C107.24 104.216 85.0244 82 57.62 82ZM0 131.62C0 99.7974 25.7974 74 57.62 74C89.4426 74 115.24 99.7974 115.24 131.62C115.24 163.443 89.4426 189.24 57.62 189.24C25.7974 189.24 0 163.443 0 131.62Z" fill="white"/>
<path fill-rule="evenodd" clip-rule="evenodd" d="M57.5653 252.803L57.2853 167.013L61.2853 167L61.5653 252.79L57.5653 252.803Z" fill="#D51F11"/>
<path fill-rule="evenodd" clip-rule="evenodd" d="M56.94 97.2319L56.65 0.0119315L60.65 -1.26763e-08L60.94 97.22L56.94 97.2319Z" fill="#D51F11"/>
<path d="M60.4953 261.617L70.0354 252.077C70.3929 251.735 70.6037 251.267 70.6234 250.773C70.643 250.278 70.4699 249.795 70.1407 249.426C69.8115 249.056 69.3517 248.829 68.8582 248.792C68.3648 248.755 67.8762 248.911 67.4953 249.227L59.0853 257.647L50.5953 249.097C50.1945 248.838 49.7114 248.739 49.2412 248.819C48.7709 248.898 48.3474 249.151 48.054 249.527C47.7607 249.903 47.6186 250.375 47.6558 250.851C47.6931 251.326 47.907 251.771 48.2553 252.097L57.7954 261.637C58.1574 261.989 58.644 262.185 59.1495 262.181C59.655 262.178 60.1385 261.975 60.4953 261.617Z" fill="#D51F11"/>
<path fill-rule="evenodd" clip-rule="evenodd" d="M59.34 118.17C51.7019 118.17 45.51 124.362 45.51 132C45.51 139.638 51.7019 145.83 59.34 145.83C66.9781 145.83 73.17 139.638 73.17 132C73.17 124.362 66.9781 118.17 59.34 118.17ZM41.51 132C41.51 122.153 49.4928 114.17 59.34 114.17C69.1872 114.17 77.17 122.153 77.17 132C77.17 141.847 69.1872 149.83 59.34 149.83C49.4928 149.83 41.51 141.847 41.51 132Z" fill="#D51F11"/>
<path fill-rule="evenodd" clip-rule="evenodd" d="M84.21 134.09H65.96V130.09H84.21V134.09Z" fill="#D51F11"/>
<path fill-rule="evenodd" clip-rule="evenodd" d="M52.72 134.09H34.47V130.09H52.72V134.09Z" fill="#D51F11"/>
<path fill-rule="evenodd" clip-rule="evenodd" d="M61.34 107.22V125.47H57.34V107.22H61.34Z" fill="#D51F11"/>
<path fill-rule="evenodd" clip-rule="evenodd" d="M61.34 138.71V156.96H57.34V138.71H61.34Z" fill="#D51F11"/>
</svg>
