<svg width="65" height="61" viewBox="0 0 65 61" fill="none" xmlns="http://www.w3.org/2000/svg">
<g clip-path="url(#clip0_107_41)">
<path d="M33.0801 13.21C29.1759 13.21 25.3594 14.3678 22.1131 16.5369C18.8669 18.7059 16.3368 21.789 14.8427 25.396C13.3487 29.003 12.9577 32.9718 13.7194 36.801C14.4811 40.6302 16.3611 44.1478 19.1218 46.9084C21.8825 49.6691 25.3998 51.5491 29.229 52.3108C33.0582 53.0725 37.0272 52.6816 40.6342 51.1875C44.2413 49.6934 47.3243 47.1632 49.4933 43.917C51.6624 40.6708 52.8201 36.8542 52.8201 32.95C52.8201 27.7146 50.7403 22.6937 47.0384 18.9917C43.3364 15.2897 38.3155 13.21 33.0801 13.21ZM42.3601 25.95L33.8501 33.8501C33.6359 34.0504 33.3533 34.1613 33.0601 34.1602H25.2601C24.8888 34.1602 24.5327 34.0126 24.2702 33.75C24.0076 33.4874 23.8601 33.1313 23.8601 32.76V32.6001C23.8601 32.2288 24.0076 31.8727 24.2702 31.6101C24.5327 31.3476 24.8888 31.2 25.2601 31.2H31.7601C32.0513 31.2 32.3323 31.0934 32.5501 30.9001L40.3701 23.77C40.5063 23.6427 40.6667 23.5438 40.8416 23.4792C41.0166 23.4147 41.2027 23.3859 41.389 23.3943C41.5753 23.4027 41.7581 23.4481 41.9266 23.5281C42.0951 23.6081 42.2458 23.721 42.3701 23.8601L42.4901 23.99C42.7325 24.2673 42.855 24.6296 42.8306 24.9971C42.8062 25.3646 42.637 25.7071 42.3601 25.95Z" fill="#959595"/>
<path d="M63.1599 12.9202L59.9199 14.48C57.1755 10.4891 53.5765 7.15995 49.3842 4.73437C45.192 2.30879 40.512 0.847696 35.6843 0.457511C30.8567 0.0673261 26.0028 0.757916 21.4754 2.47875C16.948 4.19959 12.861 6.90742 9.51134 10.4058C6.16172 13.9041 3.63363 18.1051 2.11095 22.7029C0.588271 27.3007 0.109226 32.1799 0.708609 36.9861C1.30799 41.7922 2.97076 46.4043 5.57604 50.4873C8.18132 54.5703 11.6637 58.0216 15.7699 60.5901C16.0728 60.7794 16.4116 60.904 16.7651 60.956C17.1185 61.0081 17.4789 60.9867 17.8236 60.8928C18.1683 60.7989 18.4898 60.6346 18.7679 60.4104C19.0461 60.1862 19.2749 59.9069 19.4399 59.5901L19.6599 59.1501C19.9548 58.5817 20.0259 57.9235 19.8593 57.3052C19.6927 56.6869 19.3004 56.1533 18.7599 55.8101C15.3544 53.7215 12.4549 50.9035 10.2703 47.5588C8.08566 44.2142 6.6705 40.4264 6.12676 36.4687C5.58302 32.5111 5.92425 28.482 7.12591 24.6721C8.32756 20.8623 10.3597 17.3665 13.0757 14.437C15.7918 11.5075 19.124 9.21718 22.8322 7.73119C26.5404 6.24521 30.5321 5.60072 34.5196 5.84399C38.507 6.08725 42.3909 7.21219 45.8909 9.13793C49.391 11.0637 52.4201 13.742 54.7599 16.98L51.6799 18.46C51.4386 18.5739 51.2368 18.7575 51.1005 18.9868C50.9641 19.2161 50.8993 19.4809 50.9143 19.7473C50.9293 20.0137 51.0235 20.2694 51.1849 20.4819C51.3462 20.6944 51.5673 20.8539 51.8199 20.9399L59.3399 23.5701C59.9301 23.7718 60.5761 23.7326 61.1377 23.4612C61.6993 23.1897 62.1313 22.708 62.3399 22.1201L64.9699 14.6001C65.0601 14.3524 65.0752 14.0836 65.0134 13.8274C64.9515 13.5711 64.8156 13.3387 64.6224 13.1594C64.4292 12.9801 64.1874 12.8617 63.9272 12.8191C63.6671 12.7765 63.4002 12.8118 63.1599 12.9202Z" fill="#D51F11"/>
</g>
<defs>
<clipPath id="clip0_107_41">
<rect width="65" height="61" fill="white"/>
</clipPath>
</defs>
</svg>
