<svg width="748" height="400" viewBox="0 0 748 400" fill="none" xmlns="http://www.w3.org/2000/svg">
<g clip-path="url(#clip0_28_2)">
<path d="M603.545 1.276V38.3934L698.727 73.1173V45.1273L603.545 1.276Z" fill="#E6E6E6"/>
<path d="M698.727 73.1172V45.1273L656.333 25.5951V57.9255L698.727 73.1172Z" fill="#C4C4C4"/>
<path d="M472.13 110.644V137.369L499.877 131.639V115.183L472.13 110.644Z" fill="#D8D8D8"/>
<path d="M240.088 123.194L235.395 130.064V114.65L240.088 107.122V123.194Z" fill="white"/>
<path d="M573.532 102.161L507.969 85.2706V71.5298L573.532 88.2345V102.161Z" fill="#F2F2F2"/>
<path d="M573.532 128.403L507.969 112.467V98.7261L573.532 114.476V128.403Z" fill="#F2F2F2"/>
<path d="M525.091 116.497V102.719L523.935 102.434V116.212L525.091 116.497Z" fill="#C6C6C6"/>
<path d="M523.935 89.239L525.091 89.5491V75.7587L523.935 75.4611V89.239Z" fill="#C6C6C6"/>
<path d="M542.653 80.2977V94.1376L543.809 94.4352V80.5953L542.653 80.2977Z" fill="#C6C6C6"/>
<path d="M542.653 106.998V120.838L543.809 121.123V107.283L542.653 106.998Z" fill="#C6C6C6"/>
<path d="M561.381 111.562V125.451L562.537 125.736V111.847L561.381 111.562Z" fill="#C6C6C6"/>
<path d="M561.381 85.1467V99.0362L562.537 99.3339V85.4443L561.381 85.1467Z" fill="#C6C6C6"/>
<path d="M398.914 137.493L437.956 122.214V105.051L398.914 120.974V137.493Z" fill="#B8B8B8"/>
<path d="M574.561 50.6706L579.07 48.2276V40.3031L574.561 42.833V50.6706Z" fill="white"/>
<path d="M584.781 61.0011L589.429 58.6324V50.3855L584.781 52.8409V61.0011Z" fill="white"/>
<path d="M574.561 85.8658L579.07 83.7452V75.7711L574.561 77.9537V85.8658Z" fill="white"/>
<path d="M574.561 66.1973L579.07 63.9031V55.8422L574.561 58.2108V66.1973Z" fill="white"/>
<path d="M584.781 81.0913L589.429 78.9087V70.761L584.781 73.0056V81.0913Z" fill="white"/>
<path d="M594.03 31.9446V40.1172L598.631 37.6245V29.3776L594.03 31.9446Z" fill="white"/>
<path d="M584.781 45.1273L589.429 42.6098V34.5117L584.781 37.116V45.1273Z" fill="white"/>
<path d="M594.03 56.2886L598.631 53.9447V45.549L594.03 47.9672V56.2886Z" fill="white"/>
<path d="M594.03 76.7633L598.631 74.6178V66.2965L594.03 68.5287V76.7633Z" fill="white"/>
<mask id="mask0_28_2" style="mask-type:luminance" maskUnits="userSpaceOnUse" x="-76" y="-373" width="933" height="676">
<path d="M856.72 -372.204H-75.7363V302.853H856.72V-372.204Z" fill="white"/>
</mask>
<g mask="url(#mask0_28_2)">
<path d="M698.727 330.868L603.545 327.346V1.276L698.727 45.1273V330.868Z" fill="#C9C9C9"/>
<path d="M192.549 305.333L154.398 305.098V229.276L166.722 218.263L192.549 218.114V305.333Z" fill="#BABABA"/>
<path d="M173.474 303.473H254.401V31.8826L173.474 177.81V303.473Z" fill="#BBBBBB"/>
<path d="M205.463 120.131L173.474 177.81V303.473H205.463V120.131Z" fill="#C6C6C6"/>
<path d="M430.129 303.473H254.401V31.8826L430.129 77.1477V303.473Z" fill="#CDCDCD"/>
<path d="M334.172 52.4317L254.401 31.8826V303.473H334.172V52.4317Z" fill="#D8D8D8"/>
<path d="M430.129 303.473H254.401V159.617L430.129 177.909V303.473Z" fill="#F0F0F0"/>
<path d="M507.97 305.953L472.13 305.842V81.4882L507.97 59.637V305.953Z" fill="#C3C3C3"/>
<path d="M464.431 304.713H437.956V214.741L464.431 207.573V304.713Z" fill="#D8D8D8"/>
<path d="M586.585 314.225L507.97 312.923V59.637L586.585 81.079V314.225Z" fill="white"/>
<path d="M499.877 131.639L437.956 144.45V105.051L499.877 115.183V131.639Z" fill="white"/>
<path d="M664.263 325.672L748.405 328.363V149.076L664.263 126.753V325.672Z" fill="white"/>
<path d="M656.333 25.5951V329.293L698.727 330.868V45.1273L656.333 25.5951Z" fill="#D5D5D5"/>
<path d="M228.77 97.9077L226.458 101.802V305.023H228.77V97.9077Z" fill="#ACACAC"/>
<path d="M217.406 305.023H219.718V113.161L217.406 117.055V305.023Z" fill="#ACACAC"/>
<path d="M238.99 80.6945L236.678 84.5885V305.023H238.99V80.6945Z" fill="#ACACAC"/>
<path d="M221.013 171.708L216.25 177.227V162.407L221.013 156.256V171.708Z" fill="white"/>
<path d="M221.013 196.933L216.25 201.459V186.305L221.013 181.171V196.933Z" fill="white"/>
<path d="M229.822 159.778L225.417 164.925V150.936L229.822 145.269V159.778Z" fill="white"/>
<path d="M229.822 186.516L225.417 191.662V177.673L229.822 172.006V186.516Z" fill="white"/>
<path d="M182.075 187.867L205.486 151.717V143.173L182.075 181.369V187.867Z" fill="#D5D5D5"/>
<path d="M183.659 207.809L205.463 180.774V173.63L183.659 202.303V207.809Z" fill="#D5D5D5"/>
<path d="M173.474 260.378L201.509 241.863V237.436L173.474 257.253V260.378Z" fill="white"/>
<path d="M205.07 278.571L173.474 286.992V289.621L205.07 282.453V278.571Z" fill="#D8D8D8"/>
<path d="M205.07 261.209L173.474 276.128V279.017L205.07 265.351V261.209Z" fill="#D8D8D8"/>
<path d="M205.07 269.865L173.474 281.386V284.561L205.07 274.429V269.865Z" fill="#D8D8D8"/>
<path d="M205.07 245.645L173.474 264.644V269.158L205.07 252.317V245.645Z" fill="white"/>
<path d="M573.532 153.168L507.97 139.663V125.922L573.532 139.241V153.168Z" fill="#F2F2F2"/>
<path d="M573.532 177.14L507.97 166.859V153.119L573.532 163.201V177.14Z" fill="#F2F2F2"/>
<path d="M573.532 202.712L507.97 194.056V180.327L573.532 188.785V202.712Z" fill="#F2F2F2"/>
<path d="M573.532 228.346L507.97 221.252V207.524L573.532 215.138V228.346Z" fill="#F2F2F2"/>
<path d="M573.532 252.714L507.97 248.448V234.72L573.532 238.788V252.714Z" fill="#F2F2F2"/>
<path d="M573.532 278.212L507.97 275.657V261.916L573.532 264.272V278.212Z" fill="#F2F2F2"/>
<path d="M525.091 169.464V155.673L523.935 155.5V169.278L525.091 169.464Z" fill="#C6C6C6"/>
<path d="M525.091 143.086V129.296L523.935 129.06V142.838L525.091 143.086Z" fill="#C6C6C6"/>
<path d="M543.809 250.767V236.927L542.653 236.853V250.693L543.809 250.767Z" fill="#C6C6C6"/>
<path d="M542.653 211.517V224.972L543.809 225.109V211.653L542.653 211.517Z" fill="#C6C6C6"/>
<path d="M542.653 184.767V198.607L543.809 198.756V184.916L542.653 184.767Z" fill="#C6C6C6"/>
<path d="M542.653 132.917V146.757L543.809 146.992V133.152L542.653 132.917Z" fill="#C6C6C6"/>
<path d="M542.653 158.414V172.254L543.809 172.44V158.6L542.653 158.414Z" fill="#C6C6C6"/>
<path d="M525.091 196.251V182.46L523.935 182.312V196.089L525.091 196.251Z" fill="#C6C6C6"/>
<path d="M525.091 223.05V209.446L523.935 209.309V222.926L525.091 223.05Z" fill="#C6C6C6"/>
<path d="M561.382 161.341V175.23L562.538 175.416V161.514L561.382 161.341Z" fill="#C6C6C6"/>
<path d="M525.091 249.527V235.749L523.935 235.675V249.453L525.091 249.527Z" fill="#C6C6C6"/>
<path d="M561.382 136.774V150.663L562.538 150.911V137.009L561.382 136.774Z" fill="#C6C6C6"/>
<path d="M561.382 187.21V201.112L562.538 201.261V187.371L561.382 187.21Z" fill="#C6C6C6"/>
<path d="M525.091 276.302V262.511L523.935 262.474V276.252L525.091 276.302Z" fill="#C6C6C6"/>
<path d="M543.809 263.193L542.653 263.156V276.996L543.809 277.033V263.193Z" fill="#C6C6C6"/>
<path d="M562.538 263.875L561.382 263.838V277.728L562.538 277.777V263.875Z" fill="#C6C6C6"/>
<path d="M561.382 213.724V227.031L562.538 227.155V213.861L561.382 213.724Z" fill="#C6C6C6"/>
<path d="M561.382 238.031V251.921L562.538 252.007V238.105L561.382 238.031Z" fill="#C6C6C6"/>
<path d="M173.474 201.162L194.48 168.732V161.068L173.474 195.321V201.162Z" fill="#B5B5B5"/>
<path d="M173.474 220.595L193.509 195.742V189.169L173.474 215.522V220.595Z" fill="#B5B5B5"/>
<g style="mix-blend-mode:multiply">
<path d="M548.433 70.6742V158.166C548.433 158.166 534.467 162.692 507.969 172.651V312.923L586.585 314.225V81.079L548.433 70.6742Z" fill="#D8D8D8"/>
</g>
<path d="M429.747 314.225L391.596 313.357V129.531L429.747 112.082V314.225Z" fill="#CDCDCD"/>
<path d="M516.837 314.051L429.748 314.399V112.082L516.837 128.849V314.051Z" fill="url(#paint0_linear_28_2)"/>
<path d="M301.027 305.544L270.644 305.457V217.693L301.027 202.613V305.544Z" fill="#C6C6C6"/>
<path d="M432.441 305.544L301.027 305.457V202.613L432.441 209.632V305.544Z" fill="#DBDBDB"/>
<path d="M453.633 116.683L429.748 112.082V314.399L453.633 314.3V116.683Z" fill="#F2F2F2"/>
<path d="M464.038 352.669L438.603 352.62V214.183L464.038 207.586V352.669Z" fill="#BBBBBB"/>
<path d="M410.672 120.801L391.596 129.531V313.357L410.672 313.791V120.801Z" fill="#D7D7D7"/>
<path d="M495.831 124.806V314.138L516.837 314.051V128.849L495.831 124.806Z" fill="url(#paint1_linear_28_2)"/>
<path d="M487.703 123.244L464.038 118.68V314.262L487.703 314.163V123.244Z" fill="url(#paint2_linear_28_2)"/>
<path d="M527.623 349.768L464.038 349.73V207.586L527.623 211.703V349.768Z" fill="#B1B1B1"/>
<path d="M748.347 323.315L700.08 320.773V190L748.347 197.751V323.315Z" fill="#D6D6D6"/>
<path d="M720.023 193.2L698.727 189.728V320.773L720.023 321.306V193.2Z" fill="#F2F2F2"/>
<path d="M391.596 207.449V305.507L432.441 305.544V209.632L391.596 207.449Z" fill="white"/>
<path d="M482.154 208.751L464.038 207.586V349.73L482.154 349.743V208.751Z" fill="url(#paint3_linear_28_2)"/>
<path d="M391.596 235.067V290.439L406.429 290.452V235.067H391.596Z" fill="#C8C8C8"/>
<path fill-rule="evenodd" clip-rule="evenodd" d="M405.434 225.888H391.596V224.999H406.267V235.067H405.434V225.888Z" fill="#C8C8C8"/>
<path fill-rule="evenodd" clip-rule="evenodd" d="M405.851 229.608H391.596V228.72H405.851V229.608Z" fill="#C8C8C8"/>
<g opacity="0.5">
<path d="M516.837 136.054L453.633 124.36V127.039L516.767 138.77L516.837 136.054Z" fill="#D8D8D8"/>
<path d="M453.633 158.104L516.791 166.239L516.814 163.585L453.633 155.45V158.104Z" fill="#AFAFAF"/>
<path d="M453.633 172.75L516.791 181.369L516.814 178.703L453.633 170.096V172.75Z" fill="#AFAFAF"/>
</g>
<path d="M603.545 330.917L569.636 330.806V21.9615L603.545 1.276V330.917Z" fill="#A3A3A3"/>
<path d="M584.781 161.055L589.429 159.667V151.432L584.781 152.895V161.055Z" fill="white"/>
<path d="M574.561 164.044L579.07 162.717V154.656L574.561 156.058V164.044Z" fill="white"/>
<path d="M594.03 158.364L598.631 157V148.605L594.03 150.043V158.364Z" fill="white"/>
<path d="M584.469 12.9085V307.355H579.07V16.3065" fill="#9E9E9E"/>
<path d="M594.03 7.07983V307.355H589.429V9.94455" fill="#9E9E9E"/>
<path d="M698.727 62.8861L604.412 25.4463V19.9649L698.727 59.0293V62.8861Z" fill="#C4C4C4"/>
<path d="M698.727 76.7013L604.412 41.0473V35.5659L698.727 71.5671V76.7013Z" fill="#C4C4C4"/>
<path d="M698.727 88.4454L604.412 56.3754V50.894L698.727 83.2988V88.4454Z" fill="#C4C4C4"/>
<path d="M698.727 99.6934L604.412 70.2401V64.7587L698.727 94.5469V99.6934Z" fill="#C4C4C4"/>
<path d="M698.692 113.124L604.412 84.9854V79.5164L698.692 107.99V113.124Z" fill="#C4C4C4"/>
<path d="M698.692 126.418L604.412 99.3338V93.8524L698.692 121.272V126.418Z" fill="#C4C4C4"/>
<path d="M698.692 139.663L604.412 114.935V109.466L698.692 134.517V139.663Z" fill="#C4C4C4"/>
<path d="M698.692 153.317L604.412 130.635V125.154L698.692 148.17V153.317Z" fill="#C4C4C4"/>
<path d="M698.692 168.459L604.412 147.637V142.168L698.692 163.313V168.459Z" fill="#C4C4C4"/>
<path d="M698.692 183.961L604.412 166.537V161.056L698.692 178.814V183.961Z" fill="#C4C4C4"/>
<path d="M656.333 143.123L698.692 153.317V148.17L656.333 137.84V143.123Z" fill="#E9E9E9"/>
<path d="M656.333 128.552L698.692 139.663V134.517L656.333 123.256V128.552Z" fill="#E9E9E9"/>
<path d="M656.333 114.253L698.692 126.418V121.272L656.333 108.957V114.253Z" fill="#E9E9E9"/>
<path d="M656.333 159.108L698.692 168.459V163.313L656.333 153.813V159.108Z" fill="#E9E9E9"/>
<path d="M656.333 176.123L698.692 183.961V178.814L656.333 170.84V176.123Z" fill="#E9E9E9"/>
<path d="M656.333 74.0226L698.727 88.4454V83.2988L656.333 68.7396V74.0226Z" fill="#E9E9E9"/>
<path d="M656.333 41.4689V46.0574L698.727 62.8861V59.0293L656.333 41.4689Z" fill="#E9E9E9"/>
<path d="M656.333 100.487L698.692 113.124V107.99L656.333 95.2042V100.487Z" fill="#E9E9E9"/>
<path d="M656.333 60.6787L698.727 76.7013V71.5671L656.333 55.3833V60.6787Z" fill="#E9E9E9"/>
<path d="M656.333 86.4488L698.727 99.6935V94.5469L656.333 81.1658V86.4488Z" fill="#E9E9E9"/>
<path fill-rule="evenodd" clip-rule="evenodd" d="M444.948 305.135V214.605H446.131V305.135H444.948Z" fill="#C6C6C6"/>
<path fill-rule="evenodd" clip-rule="evenodd" d="M453.041 301.414V210.884H454.224V301.414H453.041Z" fill="#C6C6C6"/>
<path fill-rule="evenodd" clip-rule="evenodd" d="M488.88 300.174V209.644H490.063V300.174H488.88Z" fill="#C6C6C6"/>
<path fill-rule="evenodd" clip-rule="evenodd" d="M476.36 300.174V209.644H477.543V300.174H476.36Z" fill="white"/>
<path fill-rule="evenodd" clip-rule="evenodd" d="M503.528 302.655V212.124H504.711V302.655H503.528Z" fill="#C6C6C6"/>
<path fill-rule="evenodd" clip-rule="evenodd" d="M515.089 301.414V210.884H516.272V301.414H515.089Z" fill="#C6C6C6"/>
<path d="M507.068 272.656H502.351C500.691 272.656 499.345 274.099 499.345 275.88V276.723C499.345 278.504 500.691 279.948 502.351 279.948H507.068C508.728 279.948 510.074 278.504 510.074 276.723V275.88C510.074 274.099 508.728 272.656 507.068 272.656Z" fill="white"/>
<path d="M520.918 272.656H516.201C514.541 272.656 513.195 274.099 513.195 275.88V276.723C513.195 278.504 514.541 279.948 516.201 279.948H520.918C522.578 279.948 523.924 278.504 523.924 276.723V275.88C523.924 274.099 522.578 272.656 520.918 272.656Z" fill="white"/>
<path d="M512.34 304.589H510.709L511.114 230.813H512.051L512.34 304.589Z" fill="white"/>
<path d="M511.843 237.907L511.195 237.46C512.646 235.363 514.417 233.544 516.432 232.078C521.681 228.841 524.826 229.995 523.369 231.223C522.652 231.843 520.525 231.024 516.698 232.835C514.213 234.025 511.866 237.87 511.843 237.907Z" fill="white"/>
<path d="M370.948 307.181H368.497L369.098 195.581H370.52L370.948 307.181Z" fill="white"/>
<path d="M370.173 206.296L369.202 205.626C369.352 205.378 373.191 199.921 377.121 197.491C385.052 192.53 389.839 194.341 387.654 196.251C386.567 197.181 383.364 195.941 377.572 198.731C373.78 200.442 370.243 206.246 370.173 206.296Z" fill="white"/>
<path d="M281.859 305.333L247.175 305.259V286.731L281.859 284.115V305.333Z" fill="#A2A2A2"/>
<path d="M375.792 290.452L359.607 290.377V269.233H375.792V290.452Z" fill="#B8B8B8"/>
<path d="M373.191 302.543L337.93 302.469V281.324H373.191V302.543Z" fill="#A2A2A2"/>
<path d="M445.54 305.333L281.859 305.259V284.115H445.54V305.333Z" fill="#AAAAAA"/>
<path d="M569.44 309.327L444.869 309.674V279.91L569.44 271.465V309.327Z" fill="#BABABA"/>
<path d="M375.064 307.975L367.699 307.789V260.986H375.064V307.975Z" fill="#A2A2A2"/>
<path d="M402.672 307.975L375.064 307.789V260.986H402.672V307.975Z" fill="#C1C1C1"/>
<path d="M402.672 307.975L375.064 307.838V273.71H402.672V307.975Z" fill="#C9C9C9"/>
<path opacity="0.44" d="M338.993 286.644L326.369 286.744V304.44L338.993 304.428V286.644Z" fill="url(#paint4_linear_28_2)"/>
<path d="M324.923 286.756L312.495 286.855V304.453L324.923 304.44V286.756Z" fill="url(#paint5_linear_28_2)"/>
<path d="M299.778 304.465L311.05 304.453V286.868L299.778 286.954V304.465Z" fill="url(#paint6_linear_28_2)"/>
<path opacity="0.44" d="M355.41 286.52L340.438 286.632V304.428L355.41 304.416V286.52Z" fill="url(#paint7_linear_28_2)"/>
<path d="M298.333 286.967L288.506 287.041V304.478L298.333 304.465V286.967Z" fill="url(#paint8_linear_28_2)"/>
<path opacity="0.44" d="M356.855 286.508V304.416L368.278 304.403V286.421L356.855 286.508Z" fill="url(#paint9_linear_28_2)"/>
<path opacity="0.74" d="M442.846 286.062L430.152 286.161V303.758L442.846 303.746V286.062Z" fill="url(#paint10_linear_28_2)"/>
<path opacity="0.82" d="M419.077 303.758H428.684V286.173L418.996 286.26L419.077 303.758Z" fill="url(#paint11_linear_28_2)"/>
<path opacity="0.27" d="M415.689 286.272L402.672 286.347V303.771H415.689V286.272Z" fill="url(#paint12_linear_28_2)"/>
<path d="M568.862 304.304L398.914 303.064L568.862 298.513" fill="#AFAFAF"/>
<path d="M246.043 241.255L249.337 242.136C249.552 242.194 249.777 242.199 249.994 242.151C250.211 242.102 250.415 242.001 250.59 241.855C250.765 241.709 250.906 241.522 251.004 241.309C251.101 241.095 251.152 240.861 251.153 240.623V229.325C251.151 228.99 251.048 228.665 250.861 228.397C250.674 228.129 250.411 227.933 250.112 227.837L246.817 226.758C246.6 226.686 246.37 226.67 246.145 226.711C245.921 226.752 245.709 226.849 245.526 226.993C245.343 227.138 245.193 227.327 245.09 227.544C244.987 227.762 244.933 228.002 244.933 228.246V239.742C244.932 240.092 245.041 240.431 245.242 240.706C245.444 240.981 245.726 241.174 246.043 241.255Z" fill="white"/>
<path d="M323.779 307.814H321.328L321.929 196.213H323.351L323.779 307.814Z" fill="white"/>
<path d="M323.039 206.941L322.068 206.271C322.218 206.01 326.056 200.554 329.987 198.123C337.918 193.163 342.704 194.973 340.531 196.883C339.433 197.826 336.23 196.573 330.438 199.363C326.623 201.075 323.074 206.879 323.039 206.941Z" fill="white"/>
<path d="M417.319 303.771H415.689L416.094 220.892H417.03L417.319 303.771Z" fill="#D5D5D5"/>
<path d="M416.822 227.986L416.186 227.539C417.625 225.435 419.393 223.614 421.412 222.157C426.66 218.908 429.817 220.074 428.348 221.301C427.632 221.922 425.516 221.103 421.678 222.914C419.192 224.104 416.845 227.936 416.822 227.986Z" fill="#D5D5D5"/>
<path d="M218.539 304.478H219.695L219.417 251.846H218.747L218.539 304.478Z" fill="white"/>
<path d="M218.885 256.906L219.348 256.583C218.314 255.089 217.051 253.793 215.614 252.751C211.868 250.432 209.625 251.263 210.642 252.144C211.151 252.578 212.666 251.995 215.394 253.285C216.802 254.187 217.997 255.427 218.885 256.906Z" fill="white"/>
<path d="M166.896 304.999H167.797L167.578 263.665H167.057L166.896 304.999Z" fill="white"/>
<path d="M167.161 267.633L167.52 267.385C166.716 266.205 165.726 265.186 164.595 264.372C161.647 262.549 159.889 263.206 160.687 263.888C161.092 264.235 162.271 263.776 164.421 264.793C165.529 265.498 166.467 266.47 167.161 267.633Z" fill="white"/>
<path d="M610.077 308.558H608.447L608.851 234.782H609.788L610.077 308.558Z" fill="white"/>
<path d="M609.579 241.863L608.932 241.429C610.38 239.329 612.151 237.509 614.169 236.047C619.418 232.798 622.574 233.963 621.106 235.191C620.389 235.811 618.273 234.993 614.435 236.803C611.95 237.994 609.603 241.826 609.579 241.863Z" fill="white"/>
<path d="M281.882 245.745L285.176 246.625C285.392 246.681 285.617 246.684 285.834 246.634C286.051 246.584 286.254 246.481 286.429 246.334C286.603 246.188 286.745 246 286.842 245.786C286.94 245.573 286.991 245.338 286.992 245.1V233.814C286.99 233.478 286.889 233.151 286.701 232.881C286.514 232.611 286.251 232.412 285.951 232.314L282.656 231.235C282.439 231.163 282.209 231.147 281.984 231.188C281.76 231.229 281.548 231.326 281.365 231.47C281.182 231.615 281.033 231.804 280.93 232.021C280.827 232.239 280.773 232.479 280.772 232.723V244.219C280.77 244.57 280.879 244.912 281.08 245.188C281.281 245.465 281.564 245.661 281.882 245.745Z" fill="white"/>
<path d="M321.49 307.814H323.952L323.351 196.213H321.929L321.49 307.814Z" fill="white"/>
<path d="M322.23 206.941L323.201 206.271C323.05 206.01 319.212 200.554 315.281 198.123C307.351 193.163 302.564 194.973 304.749 196.883C305.836 197.826 309.039 196.573 314.831 199.363C318.657 201.075 322.195 206.879 322.23 206.941Z" fill="white"/>
<path d="M322.392 250.333C308.054 245.962 293.494 242.479 278.783 239.904C256.725 236.183 248.852 235.712 248.725 235.699L248.794 234.459C248.875 234.459 256.794 234.993 278.853 238.676C293.614 241.257 308.224 244.748 322.611 249.13L322.392 250.333Z" fill="white"/>
</g>
<path d="M154.5 293.242L219.348 293.143V289.621L154.5 292V293.242Z" fill="white"/>
<path d="M255.557 289.001L440.152 288.591L441.69 292.101H255.557V289.001Z" fill="white"/>
<path d="M449.205 288.591L676.183 286.731L677.732 293.961L450.361 292.101L449.205 288.591Z" fill="white"/>
<path d="M907.6 286.731H692.368V294.383H907.6V286.731Z" fill="white"/>
<path d="M99.4827 304.713L433.597 328.896V337.577L99.4827 306.735V304.713Z" fill="white"/>
<path d="M34.3015 311.224L101.067 322.546V319.905L34.3015 311.224Z" fill="white"/>
<path d="M243.707 326.106V331.686L8.92505 304.713L243.707 326.106Z" fill="white"/>
<path d="M316.831 337.577V343.468L749.561 396.174V381.602L316.831 337.577Z" fill="white"/>
<path d="M749.214 317.115L300.067 312.774L749.214 323.315V317.115Z" fill="#AFAFAF"/>
<path d="M250.181 233.505C251.32 232.335 251.281 230.308 250.093 228.977C248.905 227.646 247.019 227.515 245.88 228.685C244.74 229.855 244.78 231.882 245.967 233.213C247.155 234.544 249.042 234.675 250.181 233.505Z" fill="#E21914"/>
<path d="M286.033 238.049C287.172 236.879 287.133 234.852 285.945 233.521C284.757 232.19 282.871 232.059 281.732 233.229C280.592 234.399 280.632 236.426 281.819 237.757C283.007 239.088 284.894 239.219 286.033 238.049Z" fill="#E21914"/>
<path d="M324.855 282.256C325.994 281.086 325.955 279.059 324.767 277.728C323.579 276.397 321.693 276.267 320.553 277.437C319.414 278.606 319.454 280.634 320.641 281.965C321.829 283.295 323.715 283.426 324.855 282.256Z" fill="#E21914"/>
</g>
<defs>
<linearGradient id="paint0_linear_28_2" x1="473.287" y1="216.663" x2="473.287" y2="137.183" gradientUnits="userSpaceOnUse">
<stop stop-color="#D8D8D8"/>
<stop offset="0.85" stop-color="#AFAFAF"/>
</linearGradient>
<linearGradient id="paint1_linear_28_2" x1="506.34" y1="314.126" x2="506.34" y2="124.806" gradientUnits="userSpaceOnUse">
<stop stop-color="white"/>
<stop offset="0.85" stop-color="#AFAFAF"/>
</linearGradient>
<linearGradient id="paint2_linear_28_2" x1="475.865" y1="314.262" x2="475.865" y2="118.68" gradientUnits="userSpaceOnUse">
<stop stop-color="white"/>
<stop offset="0.85" stop-color="#AFAFAF"/>
</linearGradient>
<linearGradient id="paint3_linear_28_2" x1="473.101" y1="349.743" x2="473.101" y2="207.586" gradientUnits="userSpaceOnUse">
<stop stop-color="#C6C6C6"/>
<stop offset="1" stop-color="white"/>
</linearGradient>
<linearGradient id="paint4_linear_28_2" x1="332.681" y1="304.44" x2="332.681" y2="286.644" gradientUnits="userSpaceOnUse">
<stop offset="0.19" stop-color="#D8D8D8"/>
<stop offset="0.41" stop-color="#ECECEC"/>
<stop offset="0.65" stop-color="#FAFAFA"/>
<stop offset="0.85" stop-color="white"/>
</linearGradient>
<linearGradient id="paint5_linear_28_2" x1="318.704" y1="304.453" x2="318.704" y2="286.756" gradientUnits="userSpaceOnUse">
<stop offset="0.19" stop-color="#D8D8D8"/>
<stop offset="0.41" stop-color="#ECECEC"/>
<stop offset="0.65" stop-color="#FAFAFA"/>
<stop offset="0.85" stop-color="white"/>
</linearGradient>
<linearGradient id="paint6_linear_28_2" x1="305.409" y1="304.465" x2="305.409" y2="286.868" gradientUnits="userSpaceOnUse">
<stop offset="0.19" stop-color="#D8D8D8"/>
<stop offset="0.41" stop-color="#ECECEC"/>
<stop offset="0.65" stop-color="#FAFAFA"/>
<stop offset="0.85" stop-color="white"/>
</linearGradient>
<linearGradient id="paint7_linear_28_2" x1="347.93" y1="304.428" x2="347.93" y2="286.52" gradientUnits="userSpaceOnUse">
<stop offset="0.19" stop-color="#D8D8D8"/>
<stop offset="0.41" stop-color="#ECECEC"/>
<stop offset="0.65" stop-color="#FAFAFA"/>
<stop offset="0.85" stop-color="white"/>
</linearGradient>
<linearGradient id="paint8_linear_28_2" x1="293.42" y1="304.478" x2="293.42" y2="286.967" gradientUnits="userSpaceOnUse">
<stop offset="0.19" stop-color="#D8D8D8"/>
<stop offset="0.41" stop-color="#ECECEC"/>
<stop offset="0.65" stop-color="#FAFAFA"/>
<stop offset="0.85" stop-color="white"/>
</linearGradient>
<linearGradient id="paint9_linear_28_2" x1="362.566" y1="304.416" x2="362.566" y2="286.421" gradientUnits="userSpaceOnUse">
<stop offset="0.19" stop-color="#D8D8D8"/>
<stop offset="0.41" stop-color="#ECECEC"/>
<stop offset="0.65" stop-color="#FAFAFA"/>
<stop offset="0.85" stop-color="white"/>
</linearGradient>
<linearGradient id="paint10_linear_28_2" x1="436.499" y1="303.758" x2="436.499" y2="286.062" gradientUnits="userSpaceOnUse">
<stop offset="0.19" stop-color="#D8D8D8"/>
<stop offset="0.41" stop-color="#ECECEC"/>
<stop offset="0.65" stop-color="#FAFAFA"/>
<stop offset="0.85" stop-color="white"/>
</linearGradient>
<linearGradient id="paint11_linear_28_2" x1="423.84" y1="303.758" x2="423.84" y2="286.173" gradientUnits="userSpaceOnUse">
<stop offset="0.19" stop-color="#D8D8D8"/>
<stop offset="0.41" stop-color="#ECECEC"/>
<stop offset="0.65" stop-color="#FAFAFA"/>
<stop offset="0.85" stop-color="white"/>
</linearGradient>
<linearGradient id="paint12_linear_28_2" x1="409.181" y1="303.771" x2="409.181" y2="286.272" gradientUnits="userSpaceOnUse">
<stop offset="0.19" stop-color="#D8D8D8"/>
<stop offset="0.41" stop-color="#ECECEC"/>
<stop offset="0.65" stop-color="#FAFAFA"/>
<stop offset="0.85" stop-color="white"/>
</linearGradient>
<clipPath id="clip0_28_2">
<rect width="748" height="400" fill="white"/>
</clipPath>
</defs>
</svg>
