<svg width="49" height="50" viewBox="0 0 49 50" fill="none" xmlns="http://www.w3.org/2000/svg">
<g clip-path="url(#clip0_107_40)">
<path d="M19.14 49.5C29.7107 49.5 38.28 40.9307 38.28 30.36C38.28 19.7892 29.7107 11.22 19.14 11.22C8.56927 11.22 0 19.7892 0 30.36C0 40.9307 8.56927 49.5 19.14 49.5Z" fill="#959595"/>
<mask id="mask0_107_40" style="mask-type:luminance" maskUnits="userSpaceOnUse" x="19" y="-7" width="39" height="38">
<path d="M19.14 30.3501L25.18 -6.76001L57.66 16.73L19.14 30.3501Z" fill="white"/>
</mask>
<g mask="url(#mask0_107_40)">
<path d="M19.18 6.8702C25.3853 6.90693 31.326 9.38829 35.7139 13.7762C40.1018 18.1641 42.5832 24.1048 42.6199 30.3101C42.6199 30.7101 42.62 31.1502 42.67 31.6002C42.6952 31.9286 42.837 32.2371 43.0699 32.4701L47.5399 36.9303C47.6266 37.02 47.7359 37.0845 47.8563 37.117C47.9766 37.1496 48.1036 37.1487 48.2236 37.1148C48.3436 37.081 48.4522 37.0153 48.5378 36.9246C48.6235 36.834 48.683 36.7219 48.71 36.6002C49.1813 34.5367 49.4194 32.4268 49.4199 30.3101C49.4385 26.3338 48.669 22.3932 47.1558 18.7159C45.6427 15.0386 43.4159 11.6976 40.6042 8.88582C37.7924 6.07408 34.4515 3.84745 30.7742 2.33431C27.0969 0.821175 23.1563 0.0516132 19.18 0.0701513C17.0637 0.0765997 14.9544 0.314645 12.89 0.780112C12.7682 0.808905 12.6564 0.869736 12.5662 0.956382C12.476 1.04303 12.4106 1.15232 12.377 1.27279C12.3433 1.39325 12.3424 1.52056 12.3746 1.64144C12.4068 1.76232 12.4708 1.87228 12.5599 1.96004L16.9399 6.34017C17.2762 6.67181 17.719 6.87379 18.1899 6.91024C18.5204 6.91445 18.8509 6.90106 19.18 6.8702Z" fill="#D51F11"/>
</g>
</g>
<defs>
<clipPath id="clip0_107_40">
<rect width="50" height="50" fill="white" transform="translate(-1)"/>
</clipPath>
</defs>
</svg>
