<svg width="1121" height="450" viewBox="0 0 1121 450" fill="none" xmlns="http://www.w3.org/2000/svg">
<g clip-path="url(#clip0_28_2)">
<path d="M1121 320.759H639.3V340.291H1121V320.759Z" fill="#D8D8D8"/>
<path d="M570.569 317.969H-1.84705V340.291H570.569V317.969Z" fill="#D8D8D8"/>
<path d="M944.148 309.598H565.392V340.291H944.148V309.598Z" fill="#D8D8D8"/>
<path d="M686.573 288.67H509.971V340.291H686.573V288.67Z" fill="#D8D8D8"/>
<path d="M1001.66 288.67H965.731V340.291H1001.66V288.67Z" fill="#D8D8D8"/>
<path d="M776.596 288.67H727.532V340.291H776.596V288.67Z" fill="#D8D8D8"/>
<path d="M327.748 304.017H191.202V340.291H327.748V304.017Z" fill="#D8D8D8"/>
<path d="M136.378 295.116H-0.167603V340.291H136.378V295.116Z" fill="#D8D8D8"/>
<path d="M347.915 283.09H317.797V340.291H347.915V283.09Z" fill="#D8D8D8"/>
<path d="M363.238 260.921H344.709V337.501H363.238V260.921Z" fill="#D8D8D8"/>
<path d="M460.686 311.677H411.15V337.501H460.686V311.677Z" fill="#D8D8D8"/>
<path d="M1033.78 294.432H997.848V338.212H1033.78V294.432Z" fill="#D8D8D8"/>
<path d="M818.761 299.971H769.698V334.264H818.761V299.971Z" fill="#D8D8D8"/>
<path d="M854.57 284.429H770.586V326.688H854.57V284.429Z" fill="#D8D8D8"/>
</g>
<defs>
<clipPath id="clip0_28_2">
<rect width="1121" height="450" fill="white"/>
</clipPath>
</defs>
</svg>
