<svg width="65" height="61" viewBox="0 0 65 61" fill="none" xmlns="http://www.w3.org/2000/svg">
<g clip-path="url(#clip0_187_554)">
<path d="M32.6219 12.8584C28.7176 12.8584 24.9011 14.0162 21.6549 16.1853C18.4086 18.3544 15.8786 21.4374 14.3845 25.0444C12.8904 28.6514 12.4995 32.6203 13.2611 36.4495C14.0228 40.2786 15.9029 43.7962 18.6635 46.5569C21.4242 49.3176 24.9416 51.1976 28.7708 51.9592C32.6 52.7209 36.569 52.33 40.176 50.8359C43.783 49.3419 46.866 46.8117 49.0351 43.5654C51.2041 40.3192 52.3618 36.5026 52.3618 32.5984C52.3618 27.363 50.2821 22.3421 46.5801 18.6401C42.8781 14.9382 37.8572 12.8584 32.6219 12.8584ZM41.9018 25.5984L33.3919 33.4985C33.1777 33.6988 32.8951 33.8098 32.6018 33.8086H24.8018C24.4305 33.8086 24.0745 33.661 23.8119 33.3984C23.5494 33.1359 23.4018 32.7798 23.4018 32.4084V32.2485C23.4018 31.8772 23.5494 31.5211 23.8119 31.2585C24.0745 30.996 24.4305 30.8484 24.8018 30.8484H31.3018C31.593 30.8484 31.8741 30.7419 32.0918 30.5486L39.9118 23.4185C40.0481 23.2911 40.2084 23.1922 40.3834 23.1277C40.5584 23.0631 40.7444 23.0343 40.9308 23.0427C41.1171 23.0511 41.2999 23.0965 41.4683 23.1765C41.6368 23.2565 41.7876 23.3695 41.9118 23.5085L42.0318 23.6384C42.2742 23.9157 42.3967 24.278 42.3723 24.6455C42.348 25.013 42.1787 25.3556 41.9018 25.5984Z" fill="#959595"/>
<path d="M62.7019 12.5686L59.4618 14.1284C56.7175 10.1375 53.1184 6.80838 48.9262 4.3828C44.734 1.95722 40.0539 0.496133 35.2263 0.105948C30.3987 -0.284236 25.5448 0.406354 21.0174 2.12719C16.49 3.84802 12.403 6.55586 9.05334 10.0542C5.70371 13.5525 3.17563 17.7535 1.65295 22.3513C0.130264 26.9491 -0.348782 31.8284 0.250601 36.6345C0.849984 41.4407 2.51275 46.0527 5.11803 50.1357C7.72331 54.2187 11.2056 57.67 15.3119 60.2385C15.6148 60.4279 15.9536 60.5524 16.3071 60.6045C16.6605 60.6566 17.0209 60.6352 17.3656 60.5412C17.7103 60.4473 18.0318 60.283 18.3099 60.0588C18.5881 59.8346 18.8169 59.5554 18.9819 59.2385L19.2019 58.7986C19.4968 58.2302 19.5679 57.5719 19.4013 56.9536C19.2347 56.3353 18.8424 55.8018 18.3019 55.4585C14.8964 53.37 11.9968 50.5519 9.81225 47.2073C7.62765 43.8626 6.21249 40.0749 5.66875 36.1172C5.12501 32.1595 5.46624 28.1304 6.6679 24.3205C7.86956 20.5107 9.90171 17.015 12.6177 14.0854C15.3338 11.1559 18.666 8.86561 22.3742 7.37963C26.0824 5.89365 30.0741 5.24916 34.0616 5.49242C38.049 5.73568 41.9328 6.86063 45.4329 8.78637C48.933 10.7121 51.9621 13.3904 54.3019 16.6284L51.2219 18.1084C50.9806 18.2223 50.7788 18.4059 50.6424 18.6352C50.5061 18.8646 50.4413 19.1294 50.4563 19.3957C50.4713 19.6621 50.5655 19.9179 50.7269 20.1304C50.8882 20.3429 51.1093 20.5023 51.3619 20.5884L58.8819 23.2185C59.4721 23.4202 60.1181 23.3811 60.6797 23.1096C61.2413 22.8382 61.6733 22.3564 61.8819 21.7685L64.5119 14.2485C64.6021 14.0008 64.6172 13.7321 64.5554 13.4758C64.4935 13.2196 64.3576 12.9872 64.1644 12.8079C63.9712 12.6285 63.7294 12.5101 63.4692 12.4675C63.2091 12.4249 62.9422 12.4602 62.7019 12.5686Z" fill="#D51F11"/>
</g>
<defs>
<clipPath id="clip0_187_554">
<rect width="65" height="61" fill="white"/>
</clipPath>
</defs>
</svg>
