<svg width="60" height="45" viewBox="0 0 60 45" fill="none" xmlns="http://www.w3.org/2000/svg">
<g clip-path="url(#clip0_187_792)">
<path fill-rule="evenodd" clip-rule="evenodd" d="M32.5401 0H31.5401V10.48H23.6601C22.9226 10.4789 22.2107 10.7495 21.6601 11.24L14.6207 17.4702L14.5355 17.4788C13.2007 17.6137 5.418 18.4001 1.80008 19.23C1.28532 19.3484 0.826362 19.6389 0.499071 20.0535C0.17178 20.468 -0.00424979 20.9818 7.79342e-05 21.51V28.5699C7.79342e-05 29.2144 0.256096 29.8326 0.711809 30.2883C1.16752 30.744 1.78561 31 2.43009 31H5.99192C6.04288 31.5827 6.1829 32.1574 6.4099 32.7034C6.84589 33.7521 7.58315 34.6479 8.5284 35.2774C9.47366 35.9069 10.5844 36.2419 11.7201 36.2399C13.2407 36.2373 14.6981 35.6314 15.7724 34.5552C16.7283 33.5977 17.3114 32.3374 17.4283 31H31.5401V44.01H32.5401V31H42.402C42.4529 31.5827 42.5929 32.1574 42.82 32.7034C43.2559 33.7521 43.9932 34.6479 44.9384 35.2774C45.8837 35.9069 46.9944 36.2419 48.1301 36.2399C49.6499 36.2346 51.1058 35.6279 52.1795 34.5523C53.1349 33.5953 53.7185 32.3364 53.8375 31H59.4301L59.4201 22.4V22.28C56.6901 10.93 52.8601 10.45 52.4201 10.45H32.5401V0ZM23.6901 11.48H31.5401V17.46H16.1439L22.3501 11.99C22.7184 11.6602 23.1957 11.4785 23.6901 11.48ZM56.9131 17.46H32.5401V11.45H52.4301C52.4301 11.45 54.6965 11.7193 56.9131 17.46ZM45.493 26.5646C46.274 26.0446 47.1918 25.768 48.1301 25.77C49.3838 25.7726 50.5854 26.2718 51.4718 27.1583C52.3583 28.0447 52.8575 29.2463 52.8601 30.4999C52.8621 31.4383 52.5855 32.3561 52.0655 33.1371C51.5454 33.9182 50.8052 34.5273 49.9387 34.8873C49.0721 35.2473 48.1183 35.3419 47.1978 35.1594C46.2774 34.9768 45.432 34.5251 44.7685 33.8616C44.105 33.1981 43.6533 32.3526 43.4707 31.4322C43.2882 30.5118 43.3829 29.5579 43.7429 28.6913C44.1029 27.8248 44.7119 27.0847 45.493 26.5646ZM9.08294 26.5646C9.86396 26.0446 10.7818 25.768 11.7201 25.77C12.9746 25.77 14.1777 26.2683 15.0647 27.1553C15.9518 28.0424 16.4501 29.2455 16.4501 30.4999C16.4521 31.4383 16.1755 32.3561 15.6554 33.1371C15.1354 33.9182 14.3952 34.5273 13.5286 34.8873C12.6621 35.2473 11.7082 35.3419 10.7878 35.1594C9.86743 34.9768 9.02192 34.5251 8.35842 33.8616C7.69492 33.1981 7.24328 32.3526 7.06071 31.4322C6.87813 30.5118 6.97283 29.5579 7.33283 28.6913C7.69283 27.8248 8.30192 27.0847 9.08294 26.5646Z" fill="#D51F11"/>
</g>
<defs>
<clipPath id="clip0_187_792">
<rect width="59.42" height="44.01" fill="white"/>
</clipPath>
</defs>
</svg>
