<svg width="59" height="45" viewBox="0 0 59 45" fill="none" xmlns="http://www.w3.org/2000/svg">
<path d="M42.4 30H32.04V31H42.4V30Z" fill="#9C9C9C"/>
<path d="M47.64 36.2401C46.5048 36.2401 45.395 35.9034 44.451 35.2726C43.5071 34.6419 42.7714 33.7456 42.337 32.6967C41.9025 31.6479 41.7888 30.4936 42.0103 29.3802C42.2318 28.2667 42.7785 27.244 43.5812 26.4412C44.384 25.6385 45.4068 25.0918 46.5202 24.8703C47.6337 24.6488 48.7878 24.7625 49.8366 25.197C50.8855 25.6314 51.7819 26.3672 52.4126 27.3111C53.0434 28.255 53.38 29.3648 53.38 30.5001C53.38 31.2538 53.2316 32.0003 52.9431 32.6967C52.6546 33.3931 52.2318 34.0259 51.6988 34.5589C51.1658 35.0919 50.533 35.5147 49.8366 35.8032C49.1402 36.0916 48.3938 36.2401 47.64 36.2401ZM47.64 25.7701C46.7021 25.7701 45.7853 26.0484 45.0056 26.5696C44.2259 27.0909 43.6183 27.8317 43.2599 28.6984C42.9014 29.5651 42.8081 30.5188 42.9918 31.4385C43.1755 32.3583 43.628 33.2028 44.2919 33.8653C44.9558 34.5278 45.8013 34.9785 46.7214 35.1602C47.6416 35.342 48.5949 35.2467 49.4609 34.8864C50.3268 34.5261 51.0664 33.917 51.586 33.1362C52.1057 32.3554 52.382 31.438 52.38 30.5001C52.38 29.8781 52.2573 29.2622 52.019 28.6877C51.7807 28.1132 51.4314 27.5913 50.9911 27.1519C50.5508 26.7126 50.0282 26.3644 49.4532 26.1273C48.8782 25.8901 48.262 25.7688 47.64 25.7701Z" fill="#9C9C9C"/>
<path d="M58.94 31H52.88V30H57.94V22.45C55.4 11.87 51.94 11.45 51.94 11.45H32.05V10.45H51.94C52.38 10.45 56.21 10.93 58.94 22.28V31.01V31Z" fill="#9C9C9C"/>
<path d="M57.14 17.46H32.04V18.46H57.14V17.46Z" fill="#9C9C9C"/>
<path fill-rule="evenodd" clip-rule="evenodd" d="M32.5401 0H31.5401V10.48H23.6601C22.9227 10.4789 22.2107 10.7495 21.6601 11.24L14.6207 17.4702L14.5355 17.4788C13.2007 17.6137 5.41801 18.4001 1.8001 19.23C1.28534 19.3484 0.826362 19.6389 0.499071 20.0535C0.17178 20.468 -0.00424979 20.9818 7.79342e-05 21.51V28.5699C7.79342e-05 29.2144 0.256096 29.8326 0.711809 30.2883C1.16752 30.744 1.78559 31 2.43007 31H6.00192C6.05265 31.5803 6.19169 32.1527 6.41703 32.6967C6.85148 33.7456 7.5872 34.6419 8.53113 35.2726C9.47507 35.9034 10.5848 36.2401 11.7201 36.2401C12.4739 36.2401 13.2203 36.0916 13.9167 35.8032C14.6131 35.5147 15.2459 35.0919 15.7789 34.5589C16.3119 34.0259 16.7347 33.3931 17.0232 32.6967C17.2477 32.1547 17.3874 31.5825 17.4383 31H31.5401V44.01H32.5401V0ZM23.6601 11.48H31.5401V17.46H16.1397L22.3201 11.99C22.6884 11.6602 23.1658 11.4785 23.6601 11.48ZM1.41267 20.6033C1.38864 20.6298 1.36561 20.6573 1.34368 20.6858C1.30583 20.735 1.27168 20.7866 1.24137 20.8401L1.41267 20.6033ZM9.08567 26.5696C9.86537 26.0484 10.7822 25.7701 11.7201 25.7701C12.3421 25.7688 12.9582 25.8901 13.5333 26.1273C14.1083 26.3644 14.6309 26.7126 15.0712 27.1519C15.5115 27.5913 15.8608 28.1132 16.0991 28.6877C16.3374 29.2622 16.4601 29.8781 16.4601 30.5001C16.4621 31.438 16.1858 32.3554 15.6661 33.1362C15.1465 33.917 14.4069 34.5261 13.541 34.8864C12.675 35.2467 11.7216 35.342 10.8015 35.1602C9.88139 34.9785 9.03589 34.5278 8.37199 33.8653C7.70808 33.2028 7.25564 32.3583 7.07194 31.4385C6.88823 30.5188 6.98151 29.5651 7.33997 28.6984C7.69844 27.8317 8.30597 27.0909 9.08567 26.5696Z" fill="#D51F11"/>
</svg>
