<svg width="554" height="121" viewBox="0 0 554 121" fill="none" xmlns="http://www.w3.org/2000/svg">
<path fill-rule="evenodd" clip-rule="evenodd" d="M67.6563 0.333609C55.7792 -0.920017 43.7971 1.37667 33.2254 6.93347C22.6537 12.4903 13.9675 21.0573 8.26519 31.5512C2.56291 42.0451 0.101054 53.9946 1.19052 65.8879C2.27999 77.7812 6.8719 89.0842 14.3858 98.3675C21.8998 107.651 31.9982 114.497 43.4035 118.041C54.8088 121.584 67.0087 121.666 78.4604 118.276C89.9121 114.885 100.101 108.175 107.739 98.9927C115.376 89.8108 120.119 78.57 121.368 66.6923C121.812 62.554 121.812 58.38 121.368 54.2417C119.972 40.4529 113.869 27.5659 104.087 17.748C94.305 7.93001 81.44 1.78038 67.6563 0.333609ZM65.6854 92.3162C59.3726 93.158 52.9522 92.1082 47.236 89.3002C41.5198 86.4922 36.7644 82.0521 33.5723 76.5412C30.3801 71.0303 28.8944 64.6964 29.3027 58.3409C29.711 51.9853 31.995 45.8934 35.8661 40.8363C39.7371 35.7791 45.0211 31.9839 51.0496 29.9303C57.0781 27.8768 63.5804 27.6574 69.7336 29.2999C75.8868 30.9425 81.4146 34.3729 85.6177 39.1576C89.8208 43.9424 92.5103 49.8666 93.346 56.1802C93.7072 58.9938 93.7072 61.842 93.346 64.6556C92.4262 71.6582 89.2243 78.1627 84.2362 83.1627C79.248 88.1628 72.7515 91.3798 65.7511 92.3162H65.6854ZM153.693 2.69878C151.598 2.70803 149.531 3.18325 147.643 4.08989C145.754 4.99654 144.09 6.3119 142.773 7.94081C141.455 9.56973 140.516 11.4711 140.024 13.5077C139.532 15.5442 139.5 17.6646 139.928 19.7153C140.672 22.9314 142.497 25.795 145.098 27.8278C147.699 29.8606 150.918 30.9396 154.219 30.8847H193.443L132.406 111.633C131.921 112.235 131.62 112.964 131.537 113.734C131.455 114.503 131.595 115.279 131.941 115.971C132.287 116.663 132.824 117.241 133.489 117.637C134.153 118.032 134.918 118.229 135.691 118.203H231.386C234.684 118.262 237.901 117.184 240.498 115.15C243.094 113.116 244.911 110.25 245.643 107.033C246.028 105.223 246.052 103.355 245.713 101.536C245.375 99.7167 244.681 97.9822 243.671 96.4318C242.661 94.8814 241.354 93.5456 239.827 92.5011C238.299 91.4566 236.58 90.7237 234.769 90.3449C233.833 90.1204 232.873 90.0102 231.911 90.0164H184.015L244.986 9.36762C245.633 8.50261 245.912 7.41748 245.765 6.34759C245.617 5.2777 245.054 4.30923 244.197 3.65159C243.484 3.12267 242.621 2.83497 241.733 2.83031L153.693 2.69878ZM536.078 3.02721C532.903 3.77664 530.08 5.58971 528.078 8.16538C526.076 10.7411 525.016 13.9245 525.073 17.1862V64.097L449.089 3.58582C448.245 2.92649 447.176 2.62555 446.112 2.74851C445.049 2.87146 444.076 3.40827 443.405 4.24268C442.826 4.95772 442.512 5.85183 442.518 6.77226V103.617C442.461 106.878 443.522 110.061 445.524 112.637C447.526 115.213 450.349 117.026 453.524 117.776C455.327 118.173 457.19 118.21 459.008 117.887C460.826 117.563 462.563 116.885 464.118 115.891C465.674 114.896 467.019 113.605 468.076 112.091C469.132 110.577 469.881 108.87 470.278 107.066C470.501 106.063 470.611 105.038 470.606 104.011V56.7055L546.623 117.184C547.467 117.844 548.536 118.144 549.599 118.022C550.663 117.899 551.635 117.362 552.306 116.527C552.863 115.802 553.163 114.912 553.16 113.998V16.792C553.165 14.9428 552.804 13.1108 552.1 11.4012C551.395 9.69149 550.36 8.1375 549.054 6.82841C547.748 5.51931 546.197 4.48094 544.489 3.77229C542.781 3.06365 540.949 2.69878 539.1 2.69878C538.083 2.71961 537.071 2.8406 536.078 3.06009V3.02721ZM338.184 28.1911C370.312 28.1911 394.326 45.1748 394.326 60.3848C394.326 75.5948 370.312 92.5789 338.184 92.5789C306.056 92.5789 282.009 75.562 282.009 60.3848C282.009 45.2077 306.023 28.1911 338.184 28.1911ZM338.184 0.00477869C291.634 0.00477869 253.921 27.0411 253.921 60.3848C253.921 93.7285 291.634 120.732 338.184 120.732C384.734 120.732 422.414 93.7285 422.414 60.3848C422.414 27.0411 384.701 0.00477869 338.184 0.00477869Z" fill="#0069FF"/>
</svg>
