<svg width="152" height="62" viewBox="0 0 152 62" fill="none" xmlns="http://www.w3.org/2000/svg">
<path d="M19.6401 13.9399C8.98008 13.9399 0.0900879 18.46 0.0900879 32.12C0.0900879 42.93 6.09011 49.74 19.9201 49.74C36.2201 49.74 37.2701 39 37.2701 39H29.3701C29.3701 39 27.6701 44.7899 19.4401 44.7899C12.7301 44.7899 7.90009 40.25 7.90009 33.9H38.1001V29.9C38.1001 23.62 34.1001 13.9 19.6401 13.9V13.9399ZM19.3701 19.03C25.7501 19.03 30.1101 22.9499 30.1101 28.8099H8.11011C8.07011 22.5799 13.7601 19.03 19.3701 19.03Z" fill="#E53238"/>
<path d="M38.09 0.719971V42.89C38.09 45.28 37.92 48.64 37.92 48.64H45.46C45.46 48.64 45.73 46.23 45.73 44.02C45.73 44.02 49.45 49.85 59.57 49.85C70.24 49.85 77.48 42.44 77.48 31.85C77.48 21.98 70.83 14.0499 59.59 14.0499C49.07 14.0499 45.8 19.73 45.8 19.73V0.72998L38.09 0.719971ZM57.65 19.26C64.89 19.26 69.49 24.63 69.49 31.84C69.49 39.57 64.17 44.63 57.7 44.63C49.97 44.63 45.8 38.63 45.8 31.91C45.8 25.68 49.54 19.26 57.65 19.26Z" fill="#0064D2"/>
<path d="M96.21 13.9399C80.21 13.9399 79.13 22.72 79.13 24.13H87.13C87.13 24.13 87.55 19 95.67 19C100.94 19 105.03 21.4099 105.03 26.0599V27.71H95.67C83.23 27.71 76.67 31.35 76.67 38.71C76.67 46.07 82.74 49.9199 90.95 49.9199C102.14 49.9199 105.74 43.74 105.74 43.74C105.74 46.2 105.93 48.62 105.93 48.62H113.03C113.03 48.62 112.75 45.62 112.75 43.7V27.09C112.73 16.23 103.95 13.9399 96.21 13.9399ZM105.02 32.6699V34.87C105.02 37.74 103.25 44.87 92.81 44.87C87.09 44.87 84.64 42.02 84.64 38.71C84.64 32.71 92.89 32.65 105.02 32.65V32.6699Z" fill="#F5AF02"/>
<path d="M108.43 15.35H117.43L130.33 41.1899L143.18 15.35H151.32L127.89 61.35H119.35L126.11 48.53L108.43 15.35Z" fill="#86B817"/>
</svg>
