<svg width="37" height="36" viewBox="0 0 37 36" fill="none" xmlns="http://www.w3.org/2000/svg">
<path d="M27.34 23.27V13.36L21.73 18.27L27.34 23.27Z" fill="white"/>
<path d="M18.18 0.179993C14.6378 0.179993 11.1751 1.23039 8.22977 3.19836C5.28448 5.16634 2.9889 7.96352 1.63333 11.2361C0.277767 14.5088 -0.0768937 18.1099 0.614168 21.5841C1.30523 25.0583 3.01099 28.2495 5.51575 30.7543C8.02051 33.259 11.2117 34.9648 14.6859 35.6559C18.1601 36.3469 21.7613 35.9923 25.0339 34.6367C28.3065 33.2811 31.1036 30.9855 33.0716 28.0403C35.0396 25.095 36.09 21.6323 36.09 18.09C36.09 13.34 34.2031 8.7845 30.8443 5.42572C27.4855 2.06694 22.9301 0.179993 18.18 0.179993ZM29.13 25.12C29.1313 25.2377 29.1093 25.3545 29.0652 25.4637C29.021 25.5728 28.9557 25.6721 28.8729 25.7558C28.7901 25.8395 28.6916 25.9059 28.5829 25.9513C28.4743 25.9966 28.3577 26.02 28.24 26.02H8.13001C7.89131 26.02 7.66241 25.9252 7.49362 25.7564C7.32484 25.5876 7.23001 25.3587 7.23001 25.12V11.05C7.23265 10.813 7.32863 10.5867 7.49713 10.42C7.66563 10.2534 7.89303 10.16 8.13001 10.16H28.24C28.4761 10.16 28.7024 10.2538 28.8694 10.4207C29.0363 10.5876 29.13 10.8139 29.13 11.05V25.12Z" fill="white"/>
<path d="M9.02002 13.37V23.31L14.65 18.29L9.02002 13.37Z" fill="white"/>
<path d="M20.3799 19.45L18.77 20.86C18.6053 21.0002 18.3962 21.0772 18.18 21.0772C17.9637 21.0772 17.7546 21.0002 17.59 20.86L16.0099 19.47L10.7 24.2H25.7L20.37 19.45H20.3799Z" fill="white"/>
<path d="M25.85 12.3H10.5L18.18 19L25.85 12.3Z" fill="white"/>
</svg>
