<svg width="36" height="36" viewBox="0 0 36 36" fill="none" xmlns="http://www.w3.org/2000/svg">
<path d="M17.7999 0C14.315 0 10.9084 1.0334 8.01078 2.96951C5.11319 4.90562 2.8548 7.65747 1.52119 10.8771C0.187571 14.0967 -0.16137 17.6395 0.518501 21.0575C1.19837 24.4754 2.8765 27.615 5.34071 30.0792C7.80491 32.5434 10.9445 34.2216 14.3624 34.9014C17.7804 35.5813 21.3232 35.2324 24.5428 33.8987C27.7625 32.5651 30.5143 30.3067 32.4504 27.4091C34.3865 24.5116 35.4199 21.1049 35.4199 17.62C35.4199 12.9469 33.5636 8.46516 30.2592 5.16077C26.9548 1.85638 22.473 0 17.7999 0ZM25.4199 25.93C25.2399 26.13 25.0499 26.31 24.8699 26.48C24.6047 26.7249 24.3542 26.9853 24.1199 27.26C23.8092 27.6019 23.4289 27.8733 23.0046 28.0561C22.5803 28.2389 22.1218 28.3289 21.6599 28.32H21.3299C20.0177 28.1912 18.7417 27.8146 17.5699 27.21C14.989 25.9602 12.7048 24.1737 10.8699 21.97C9.47822 20.3523 8.37236 18.5092 7.59992 16.52C7.19068 15.5154 7.00638 14.4334 7.05994 13.35C7.11697 12.5946 7.44345 11.8848 7.97993 11.35L9.43992 9.88C9.62611 9.68197 9.85074 9.52397 10.1 9.41565C10.3493 9.30733 10.6181 9.25097 10.8899 9.25C11.1584 9.25366 11.4233 9.31132 11.669 9.41956C11.9147 9.52779 12.1361 9.68439 12.3199 9.88C12.5999 10.13 12.8699 10.4 13.1199 10.67L13.5199 11.08L14.6899 12.24C14.9027 12.4277 15.0732 12.6585 15.1899 12.9171C15.3067 13.1757 15.367 13.4562 15.367 13.74C15.367 14.0237 15.3067 14.3042 15.1899 14.5629C15.0732 14.8215 14.9027 15.0523 14.6899 15.24L14.3299 15.6C14.0099 15.92 13.6899 16.26 13.3299 16.6C13.6398 17.2501 14.0259 17.861 14.4799 18.42C15.4698 19.6726 16.659 20.7537 17.9999 21.62C18.1352 21.705 18.2755 21.7818 18.4199 21.85L18.7499 22.02L20.0999 20.67C20.2865 20.4676 20.512 20.3049 20.7628 20.1915C21.0136 20.0781 21.2847 20.0164 21.5599 20.01C21.833 20.0174 22.1016 20.0807 22.3493 20.1959C22.5969 20.3112 22.8184 20.4759 22.9999 20.68L25.3499 23.03C25.5514 23.2173 25.7136 23.4429 25.8269 23.6935C25.9402 23.9442 26.0025 24.215 26.0099 24.49C26 25.0268 25.7895 25.5405 25.4199 25.93ZM17.5399 12.24C17.5668 12.089 17.6523 11.9548 17.7779 11.8667C17.9035 11.7786 18.0588 11.7438 18.2099 11.77C19.5575 12.0092 20.7997 12.6547 21.7699 13.62C22.7429 14.5886 23.3896 15.8366 23.6199 17.19C23.6461 17.3411 23.6113 17.4965 23.5233 17.622C23.4352 17.7476 23.301 17.8331 23.1499 17.86H23.0499C22.9137 17.8597 22.7819 17.8114 22.6777 17.7237C22.5734 17.6359 22.5034 17.5142 22.4799 17.38C22.2862 16.2625 21.7518 15.2321 20.9498 14.4301C20.1478 13.6281 19.1175 13.0937 17.9999 12.9C17.8516 12.8732 17.7199 12.7887 17.6336 12.665C17.5474 12.5413 17.5137 12.3885 17.5399 12.24ZM26.8099 17.68H26.7199C26.5826 17.6838 26.4486 17.6371 26.3435 17.5486C26.2384 17.4601 26.1695 17.336 26.1499 17.2C25.8112 15.2014 24.8591 13.3576 23.4257 11.9242C21.9923 10.4908 20.1486 9.53876 18.1499 9.20001C18.0743 9.18789 18.0017 9.16086 17.9366 9.12054C17.8714 9.08022 17.8148 9.02739 17.7702 8.96509C17.7256 8.90279 17.6937 8.83225 17.6765 8.75757C17.6593 8.68289 17.6571 8.60555 17.6699 8.53C17.6967 8.38162 17.7812 8.24991 17.9049 8.1637C18.0286 8.07748 18.1814 8.0438 18.3299 8.07001C20.5776 8.43726 22.654 9.4987 24.268 11.1055C25.882 12.7124 26.9527 14.784 27.3299 17.03C27.3443 17.1077 27.3419 17.1875 27.3227 17.2641C27.3035 17.3407 27.268 17.4123 27.2187 17.474C27.1693 17.5356 27.1073 17.586 27.0368 17.6215C26.9662 17.6571 26.8889 17.677 26.8099 17.68Z" fill="white"/>
</svg>
