<svg width="35" height="36" viewBox="0 0 35 36" fill="none" xmlns="http://www.w3.org/2000/svg">
<path d="M29.6 5.81999C26.7636 2.97825 23.0295 1.20816 19.0342 0.811479C15.0388 0.414795 11.0295 1.41606 7.68978 3.64461C4.35004 5.87316 1.88659 9.19102 0.719347 13.0326C-0.44789 16.8742 -0.246653 21.0017 1.28876 24.7115C2.82417 28.4214 5.59871 31.4839 9.13941 33.3769C12.6801 35.27 16.7678 35.8765 20.7056 35.093C24.6434 34.3096 28.1876 32.1846 30.7341 29.0804C33.2805 25.9762 34.6715 22.085 34.67 18.07C34.6729 15.7949 34.2266 13.5416 33.3565 11.4394C32.4865 9.33723 31.2099 7.42758 29.6 5.81999ZM24.68 14.3C24.7735 16.2749 24.3215 18.2376 23.3736 19.9727C22.4256 21.7078 21.0184 23.1485 19.306 24.1369C17.5936 25.1254 15.6421 25.6233 13.6655 25.5762C11.6889 25.5291 9.76336 24.9388 8.09997 23.87C10.1027 24.112 12.1197 23.5511 13.71 22.31C12.9184 22.2936 12.1518 22.0303 11.5171 21.557C10.8825 21.0837 10.4115 20.424 10.17 19.67C10.737 19.7813 11.3221 19.7608 11.88 19.61C11.0212 19.429 10.2521 18.9548 9.70473 18.2688C9.15734 17.5827 8.86576 16.7275 8.87998 15.85C9.40493 16.1393 9.99088 16.3004 10.59 16.32C9.78546 15.7857 9.21597 14.9637 8.9984 14.0227C8.78083 13.0818 8.93167 12.0932 9.41997 11.26C10.3681 12.4375 11.5535 13.4023 12.8991 14.0914C14.2447 14.7806 15.7203 15.1788 17.23 15.26C17.0455 14.4484 17.1326 13.5986 17.4779 12.8413C17.8232 12.084 18.4076 11.461 19.1413 11.068C19.875 10.675 20.7175 10.5338 21.5392 10.666C22.361 10.7982 23.1166 11.1966 23.69 11.8C24.5373 11.6351 25.3495 11.3238 26.09 10.88C25.8113 11.759 25.2209 12.5059 24.43 12.98C25.1794 12.8902 25.9109 12.6879 26.6 12.38C26.0821 13.1315 25.4315 13.7821 24.68 14.3Z" fill="white"/>
</svg>
