<svg width="62" height="62" viewBox="0 0 62 62" fill="none" xmlns="http://www.w3.org/2000/svg">
<path d="M52.52 9.89C47.5607 4.92445 41.0328 1.83236 34.049 1.14074C27.0653 0.449111 20.0577 2.20075 14.2208 6.09712C8.38382 9.99349 4.07868 15.7934 2.0391 22.5085C-0.000481725 29.2235 0.351731 36.4381 3.03568 42.9225C5.71963 49.407 10.5692 54.76 16.7579 58.0693C22.9467 61.3786 30.0915 62.4394 36.9747 61.0708C43.8579 59.7022 50.0535 55.989 54.5056 50.564C58.9577 45.139 61.3907 38.338 61.39 31.32C61.3961 27.3398 60.6157 23.3975 59.0935 19.7199C57.5713 16.0422 55.3373 12.7016 52.52 9.89ZM50.04 47.43C46.25 48.43 31.04 48.43 31.04 48.43C31.04 48.43 15.85 48.43 12.04 47.43C11.0078 47.1493 10.0674 46.6026 9.31284 45.8445C8.55824 45.0864 8.01588 44.1435 7.74 43.11C6.74 39.29 6.74 31.34 6.74 31.34C6.74 31.34 6.74 23.34 7.74 19.57C8.01772 18.5375 8.56069 17.5955 9.31501 16.8377C10.0693 16.0798 11.0087 15.5325 12.04 15.25C15.83 14.25 31.04 14.25 31.04 14.25C31.04 14.25 46.22 14.25 50.04 15.25C51.0698 15.5331 52.0077 16.0808 52.7603 16.8387C53.5129 17.5966 54.0541 18.5382 54.33 19.57C55.33 23.39 55.33 31.34 55.33 31.34C55.33 31.34 55.33 39.29 54.33 43.11C54.0542 44.1451 53.5106 45.0893 52.754 45.8477C51.9974 46.606 51.0545 47.1518 50.02 47.43H50.04Z" fill="white"/>
<path d="M26.0701 38.57L38.7701 31.34L26.0701 24.13V38.57Z" fill="white"/>
</svg>
