<svg width="1000" height="465" viewBox="0 0 1000 465" fill="none" xmlns="http://www.w3.org/2000/svg">
<g clip-path="url(#clip0_34_476)">
<mask id="mask0_34_476" style="mask-type:alpha" maskUnits="userSpaceOnUse" x="-1474" y="5" width="2474" height="460">
<rect width="2474" height="460" transform="matrix(-1 0 0 1 1000 5)" fill="url(#paint0_linear_34_476)"/>
</mask>
<g mask="url(#mask0_34_476)">
<path d="M471.591 216.165V201.3C471.591 201.3 479.867 193.005 486.375 192.708C492.883 192.411 497.906 202.177 497.906 202.177V258.664C497.906 258.664 502.631 253.03 511.799 275.223H518.901C518.901 275.223 519.793 257.772 527.816 257.177C535.84 256.582 538.218 273.157 538.218 273.157C538.218 273.157 538.797 267.211 545.9 262.499V199.189C545.9 199.189 554.815 191.207 570.446 196.826H587.801V215.169C587.801 215.169 596.717 211.914 596.969 220.788C596.969 220.788 593.567 209.163 604.072 215.466H617.668V233.512H623.284V192.099C623.284 192.099 625.662 186.153 663.507 192.099V271.076H734.83V260.432H737.801V288.913H741.575V202.251C741.575 202.251 764.636 170.307 791.843 200.482L795.691 201.969V216.834H799.822V177.784C799.822 177.784 816.375 166.843 836.776 177.784V218.915C836.776 218.915 845.364 218.32 845.691 226.897V234.33H854.8V200.899H860.134V178.705H866.924V200.601H892.095V230.777L894.072 230.866C894.072 230.866 897.118 224.563 902.987 224.266H935.825V252.673L940.847 250.295V227.819L961.546 218.35C961.546 218.35 958.886 192.604 969.525 193.199C980.164 193.793 988.529 186.346 988.529 186.346H1023.69V309.412C1023.69 309.412 683.804 309.724 676.42 309.903C471.487 314.63 433.73 310.289 433.73 310.289L471.591 216.165Z" fill="#E5E5E5"/>
<path d="M355.083 260.522H440.447V308.892H355.083V260.522Z" fill="#DFDFDF"/>
<path d="M737.341 310.438V294.086H743.061V199.724C743.061 199.724 765.35 172.209 787.801 197.361V296.851H795.097V217.963H802.199V176.342C807.572 173.672 813.58 172.545 819.555 173.086V295.662H837.296L837.489 218.93C837.489 218.93 843.596 218.93 843.596 221.501V235.697H855.483V200.765H859.034V312.935L737.341 310.438Z" fill="#C5C5C5"/>
<path d="M587.341 311.211V215.555C587.935 213.682 593.864 213.4 594.146 218.112C594.399 222.453 594.042 287.977 594.042 287.977H598.975L598.277 213.816C598.277 213.816 604.22 209.877 611.486 215.6C611.486 215.6 605.87 219.539 611.59 223.686V279.103C611.59 279.103 614.562 286.535 615.528 290.548H626.568L626.91 190.404C626.91 190.404 630.119 189.467 639.035 189.661V311.062L587.341 311.211Z" fill="#C5C5C5"/>
<path d="M674.057 308.253V271.18L721.962 271.328V310.036H674.25L674.057 308.253Z" fill="#C5C5C5"/>
<path d="M937.043 308.238V255.765L942.169 252.316L942.571 235.266C942.571 235.266 947.4 228.265 952.422 233.289V300.538H960.119V286.743L965.334 281.511V194.655C965.334 194.655 969.213 190.196 974.889 195.815L987.89 186.257L1001.5 186.45V224.013L998.143 216.923L1008.8 220.074V227.507H1011.77V236.188H1025.36V265.918H986.33V308.921L937.043 308.238Z" fill="#C5C5C5"/>
<path d="M887.95 314.184V269.812L893.076 264.684V234.3C893.076 234.3 899.019 235.326 908.455 229.959C912.794 227.507 913.091 225.5 913.091 225.5L913.388 309.219C913.388 309.219 887.266 313.485 887.95 314.184Z" fill="#C5C5C5"/>
<path d="M481.427 194.18C482.229 193.793 483.269 194.968 482.794 195.666L480.937 198.639C480.85 198.783 480.803 198.947 480.803 199.115V209.119C480.803 209.241 480.778 209.363 480.73 209.475C480.681 209.588 480.61 209.689 480.521 209.773L476.063 213.98C475.977 214.062 475.908 214.161 475.862 214.271C475.816 214.381 475.793 214.5 475.795 214.619V289.984C475.795 290.216 475.888 290.439 476.052 290.604C476.217 290.768 476.44 290.861 476.672 290.861H479.644C479.878 290.861 480.102 290.769 480.269 290.605C480.436 290.441 480.532 290.218 480.535 289.984V276.368C480.535 276.131 480.629 275.904 480.797 275.737C480.964 275.57 481.19 275.476 481.427 275.476H493.983C494.192 275.479 494.395 275.407 494.555 275.273C494.716 275.14 494.824 274.953 494.859 274.747C495.409 271.581 497.727 259.362 500.06 262.469C502.393 265.576 507.014 275.535 508.099 277.928C508.171 278.08 508.285 278.207 508.427 278.297C508.569 278.386 508.733 278.433 508.901 278.434H519.154C519.354 278.435 519.548 278.368 519.705 278.244C519.862 278.119 519.971 277.945 520.015 277.75C520.877 274.078 525.067 257.147 529.035 262.172C532.794 266.943 534.651 275.981 535.127 278.523C535.162 278.726 535.267 278.911 535.425 279.044C535.583 279.178 535.782 279.251 535.989 279.251H538.203C538.439 279.251 538.666 279.157 538.833 278.99C539 278.823 539.094 278.596 539.094 278.359V271.165C539.096 271.014 539.135 270.866 539.208 270.734C539.28 270.602 539.384 270.489 539.51 270.407L548.425 265.011C548.552 264.929 548.657 264.817 548.73 264.685C548.802 264.552 548.841 264.404 548.842 264.253V199.219C548.842 197.316 549.079 196.989 551.353 196.246H551.471C551.679 196.112 553.626 195.607 553.864 195.547C555.019 195.286 556.191 195.102 557.37 194.997C557.73 194.968 558.087 195.081 558.365 195.311C558.642 195.542 558.819 195.872 558.856 196.231V291.782C558.856 292.019 558.95 292.246 559.117 292.413C559.285 292.58 559.511 292.674 559.748 292.674H580.164C580.28 292.672 580.396 292.694 580.504 292.737C580.612 292.78 580.71 292.844 580.793 292.926C580.876 293.007 580.942 293.105 580.987 293.212C581.032 293.32 581.055 293.435 581.055 293.551V298.888C581.055 299.004 581.032 299.119 580.987 299.227C580.942 299.334 580.876 299.432 580.793 299.513C580.71 299.595 580.612 299.659 580.504 299.702C580.396 299.745 580.28 299.767 580.164 299.765H435.29C435.171 299.765 435.054 299.741 434.944 299.694C434.835 299.647 434.736 299.579 434.654 299.492C434.572 299.406 434.508 299.304 434.467 299.193C434.426 299.081 434.408 298.962 434.414 298.843L435.528 266.899C435.536 266.667 435.633 266.448 435.8 266.287C435.966 266.126 436.188 266.036 436.42 266.036H443.849C443.965 266.038 444.081 266.017 444.189 265.974C444.297 265.931 444.395 265.867 444.478 265.785C444.561 265.703 444.627 265.606 444.672 265.499C444.717 265.391 444.741 265.276 444.741 265.159V213.697C444.741 213.461 444.834 213.234 445.002 213.067C445.169 212.899 445.396 212.805 445.632 212.805H471.115C471.275 212.805 471.433 212.762 471.571 212.681C471.709 212.6 471.824 212.484 471.902 212.345L473.611 209.149C473.682 209.027 473.718 208.888 473.715 208.747L473.819 199.397C473.819 199.397 475.305 198.015 476.791 197.049C478.288 196.016 479.835 195.059 481.427 194.18Z" fill="#C5C5C5"/>
<path d="M355.083 302.336V260.522L365.721 260.819V285.673H378.738V260.67L389.971 260.522V287.739H412.155V278.568H422.794V302.247L355.083 302.336Z" fill="#C5C5C5"/>
<path d="M-235.169 533.886L-164.204 373.539L545.513 310.824L635.424 307.866L-126.343 305.488L-388.943 306.082L-235.169 533.886Z" fill="#D8D8D8"/>
<path d="M312.883 102.939L595.201 247.322L599.54 245.731L344.429 103.727L312.883 102.939Z" fill="white"/>
<path d="M632.259 269.812C632.259 269.812 533.493 223.255 532.497 223.062C531.501 222.869 520.877 223.255 520.877 223.255L629.109 269.812H632.259Z" fill="white"/>
<path d="M698.5 294.845L680.565 276.903H674.651L695.751 294.458L698.5 294.845Z" fill="white"/>
<path d="M931.337 244.75L741.085 297.401L920.684 245.345L931.337 244.75Z" fill="white"/>
<path d="M884.606 243.769L725.513 304.313L902.154 225.218H921.471L883.031 242.193L884.606 243.769Z" fill="white"/>
<path d="M719.213 301.742L819.748 257.564L814.428 257.965L790.58 268.608L791.367 266.839L868.44 228.77L858.395 228.577L719.213 301.742Z" fill="white"/>
<path d="M760.015 272.755L765.736 273.35L863.908 215.764L852.273 215.957L760.015 272.755Z" fill="white"/>
<path d="M754.696 265.858L800.625 226.213H793.73L752.333 265.858H754.696Z" fill="white"/>
<path d="M715.855 495.431L720.58 362.495H727.682L740.297 495.565L715.855 495.431Z" fill="white"/>
<path d="M726.211 344.538H721.471L721.62 314.674L724.428 314.808L726.211 344.538Z" fill="#C7C7C7"/>
<path d="M833.849 358.154H842.125L1068.35 473.535L1024.29 464.066L833.849 358.154Z" fill="#C7C7C7"/>
<path d="M802.497 333.597L899.198 380.645H911.323L806.345 333.895L802.497 333.597Z" fill="#C7C7C7"/>
<path d="M754.74 326.358H758.812L740.253 309.338H738.396L754.74 326.358Z" fill="#C7C7C7"/>
<path d="M663.195 376.601L547.296 523.228L523.641 523.823L696.925 330.937H699.287L663.195 376.601Z" fill="white"/>
<path d="M667.088 324.916L675.052 320.873H680.966L673.537 324.916H667.088Z" fill="white"/>
<path d="M658.737 329.168L665.736 325.615H672.274L665.751 329.168H658.737Z" fill="white"/>
<path d="M649.421 333.895L656.018 330.55H663.225L657.058 333.895H649.421Z" fill="white"/>
<path d="M581.799 388.523H568.975L666.167 331.338H672.081L581.799 388.523Z" fill="#C7C7C7"/>
<path d="M636.018 340.405L644.176 336.258H652.125L644.517 340.405H636.018Z" fill="white"/>
<path d="M620.699 348.492L631.189 343.17H640.045L630.268 348.492H620.699Z" fill="white"/>
<path d="M602.452 357.768L613.329 352.238H623.388L613.254 357.768H602.452Z" fill="white"/>
<path d="M573.73 372.35L591.204 363.476H602.749L586.464 372.35H573.73Z" fill="white"/>
<path d="M525.201 397.011L558.975 379.857H572.705L541.204 397.011H525.201Z" fill="white"/>
<path d="M413.017 454.003L499.585 410.018H517.296L436.553 454.003H413.017Z" fill="white"/>
<path d="M641.338 377.88H632.066L677.014 338.042H680.565L641.338 377.88Z" fill="#C7C7C7"/>
<path d="M782.69 322.657L1025.77 378.266L1026.36 369.986L803.388 321.468L782.69 322.657Z" fill="white"/>
<path d="M531.724 378.861H510.238L549.064 363.283H539.807L687.861 309.635H693.581L531.724 378.861Z" fill="#C7C7C7"/>
<path d="M508.069 359.536H498.99L675.84 309.828H679.376L508.069 359.536Z" fill="#C7C7C7"/>
<path d="M129.942 484.387H95.6325L512.794 361.306H520.684L129.942 484.387Z" fill="#C7C7C7"/>
<path d="M28 450.5H6.11298L430.194 356.965H436.702L28 450.5Z" fill="#EBEBEB"/>
<path d="M913.982 241.599L924.042 242.193L1027.25 213.192V206.384L913.982 241.599Z" fill="white"/>
<path d="M974.904 243.368L974.606 246.92L842.422 275.609L905.706 263.777V265.858L795.988 286.565L974.904 243.368Z" fill="white"/>
<path d="M996.791 243.962L1002.11 245.731L1026.36 242.193L1025.47 240.409L1022.51 239.235L996.791 243.962Z" fill="white"/>
<path d="M680.565 269.411L634.042 212.597H646.063L686.286 269.203L680.565 269.411Z" fill="white"/>
<path d="M750.922 327.28L747.385 323.236H741.219L744.517 327.28H750.922Z" fill="white"/>
<path d="M754.636 331.516L751.531 327.964H745.082L747.965 331.516H754.636Z" fill="white"/>
<path d="M758.767 336.258L755.84 332.899H749.094L751.828 336.258H758.767Z" fill="white"/>
<path d="M764.725 342.769L761.1 338.622H754.027L757.4 342.769H764.725Z" fill="white"/>
<path d="M772.125 350.84L767.474 345.519H759.391L763.73 350.84H772.125Z" fill="white"/>
<path d="M780.238 360.116L775.409 354.601H766.196L770.699 360.116H780.238Z" fill="white"/>
<path d="M792.987 374.713L785.231 365.839H775.364L782.601 374.713H792.987Z" fill="white"/>
<path d="M813.953 399.359L798.96 382.205H787.534L801.531 399.359H813.953Z" fill="white"/>
<path d="M862.615 456.366L824.161 412.381H810.372L846.241 456.366H862.615Z" fill="white"/>
<path d="M969.658 124.687H994.309C995.548 124.687 996.553 125.691 996.553 126.931C996.553 128.171 995.548 129.176 994.309 129.176H969.658C968.419 129.176 967.415 128.171 967.415 126.931C967.415 125.691 968.419 124.687 969.658 124.687Z" fill="#C0C0C0"/>
<path d="M969.555 17.6892H994.205C995.444 17.6892 996.449 18.6941 996.449 19.9338C996.449 21.1735 995.444 22.1784 994.205 22.1784H969.555C968.315 22.1784 967.311 21.1735 967.311 19.9338C967.311 18.6941 968.315 17.6892 969.555 17.6892Z" fill="#C0C0C0"/>
<path d="M506.494 9.0675H986.345V126.619H506.494V9.0675Z" fill="#8B8B8B"/>
<path d="M970.164 328.38V110.639H983.373V331.338C983.373 331.338 970.698 328.38 970.164 328.38Z" fill="#979797"/>
<path d="M517.534 5.21753H659.555C671.864 5.21753 681.843 15.2004 681.843 27.5148V99.1783C681.843 111.493 671.864 121.476 659.555 121.476H517.534C505.224 121.476 495.246 111.493 495.246 99.1783V27.5148C495.246 15.2004 505.224 5.21753 517.534 5.21753Z" fill="#AEAEAE"/>
<path d="M519.317 7.12036H656.865C669.175 7.12036 679.154 17.1032 679.154 29.4177V96.8596C679.154 109.174 669.175 119.157 656.865 119.157H519.317C507.008 119.157 497.029 109.174 497.029 96.8596V29.4177C497.029 17.1032 507.008 7.12036 519.317 7.12036Z" fill="#949494"/>
<path d="M706.211 5.21753H968.886C981.195 5.21753 991.174 15.2004 991.174 27.5148V99.1783C991.174 111.493 981.195 121.476 968.886 121.476H706.211C693.902 121.476 683.923 111.493 683.923 99.1783V27.5148C683.923 15.2004 693.902 5.21753 706.211 5.21753Z" fill="#AEAEAE"/>
<path d="M708.871 8.01221H964.146C976.455 8.01221 986.434 17.995 986.434 30.3095V97.7514C986.434 110.066 976.455 120.049 964.146 120.049H708.871C696.562 120.049 686.583 110.066 686.583 97.7514V30.3095C686.583 17.995 696.562 8.01221 708.871 8.01221Z" fill="#949494"/>
<path d="M982.288 334.043V18.4769C982.288 18.2539 982.66 11.0444 985.647 11.0444C988.098 11.1485 988.5 18.1052 988.47 17.912C988.44 17.7188 988.47 18.1647 988.47 18.2985V333.434C988.498 333.895 988.366 334.352 988.095 334.726C987.824 335.1 987.431 335.369 986.984 335.485L984.22 336.02C983.96 336.029 983.702 335.983 983.46 335.886C983.219 335.789 983.001 335.643 982.819 335.457C982.637 335.271 982.496 335.05 982.405 334.806C982.314 334.563 982.274 334.303 982.288 334.043Z" fill="#FCFCFC"/>
<path d="M509.139 7.1499H973.878C974.22 7.1499 984.933 7.50677 984.755 10.4203C984.606 12.8135 974.354 13.2149 974.651 13.1851H974.086H509.926C508.44 13.1851 505.84 12.5905 505.796 10.2122C505.751 7.83377 507.267 7.1499 509.139 7.1499Z" fill="#FCFCFC"/>
<path d="M511.412 123.26H972.838C975.94 123.26 978.455 125.775 978.455 128.878C978.455 131.982 975.94 134.497 972.838 134.497H511.412C508.31 134.497 505.795 131.982 505.795 128.878C505.795 125.775 508.31 123.26 511.412 123.26Z" fill="#C0C0C0"/>
<path d="M940.505 141.053C935.007 141.053 930.55 136.627 930.55 131.168C930.55 125.708 935.007 121.282 940.505 121.282C946.003 121.282 950.461 125.708 950.461 131.168C950.461 136.627 946.003 141.053 940.505 141.053Z" fill="#9B9B9B"/>
<path d="M943.801 138.522C940.733 138.065 938.668 134.857 939.189 131.358C939.71 127.858 942.619 125.391 945.688 125.848C948.756 126.305 950.821 129.513 950.3 133.013C949.779 136.513 946.869 138.979 943.801 138.522Z" fill="#DEDEDE"/>
<path d="M945.736 138.318C945.736 138.318 941.367 141.097 937.519 139.328C936.642 138.927 936.479 136.177 939.005 135.627C940.267 135.328 941.591 135.425 942.796 135.907C944 136.388 945.027 137.23 945.736 138.318Z" fill="#DEDEDE"/>
<path d="M945.186 123.512C945.186 123.512 939.807 123.274 937.756 126.485L934.369 122.159C934.369 122.159 937.519 117.7 941.798 119.186L945.186 123.512Z" fill="#9B9B9B"/>
<path d="M944.889 123.215C944.889 123.215 940.342 123.022 938.574 125.682L935.721 122.041C935.721 122.041 938.381 118.28 941.932 119.469L944.889 123.215Z" fill="#B2B2B2"/>
<path d="M834.235 141.647C828.737 141.647 824.28 137.222 824.28 131.762C824.28 126.303 828.737 121.877 834.235 121.877C839.733 121.877 844.19 126.303 844.19 131.762C844.19 137.222 839.733 141.647 834.235 141.647Z" fill="#9B9B9B"/>
<path d="M837.547 139.121C834.479 138.664 832.414 135.456 832.935 131.956C833.456 128.456 836.366 125.99 839.434 126.447C842.502 126.904 844.567 130.112 844.046 133.611C843.525 137.111 840.615 139.578 837.547 139.121Z" fill="#DEDEDE"/>
<path d="M839.465 138.912C839.465 138.912 835.111 141.692 831.263 139.923C830.371 139.522 830.208 136.757 832.749 136.222C834.009 135.926 835.33 136.025 836.532 136.506C837.733 136.988 838.758 137.828 839.465 138.912Z" fill="#DEDEDE"/>
<path d="M838.916 124.107C838.916 124.107 833.537 123.869 831.486 127.08L828.098 122.754C828.098 122.754 831.248 118.295 835.528 119.781L838.916 124.107Z" fill="#9B9B9B"/>
<path d="M838.618 123.81C838.618 123.81 834.086 123.616 832.318 126.277L829.45 122.62C829.45 122.62 832.11 118.874 835.661 120.064L838.618 123.81Z" fill="#B2B2B2"/>
<path d="M728.381 141.647C722.882 141.647 718.425 137.222 718.425 131.762C718.425 126.303 722.882 121.877 728.381 121.877C733.879 121.877 738.336 126.303 738.336 131.762C738.336 137.222 733.879 141.647 728.381 141.647Z" fill="#9B9B9B"/>
<path d="M731.674 139.114C728.605 138.657 726.541 135.449 727.061 131.949C727.582 128.45 730.492 125.983 733.56 126.44C736.628 126.897 738.693 130.105 738.172 133.605C737.651 137.104 734.742 139.571 731.674 139.114Z" fill="#DEDEDE"/>
<path d="M733.611 138.912C733.611 138.912 729.242 141.692 725.394 139.923C724.517 139.522 724.339 136.757 726.88 136.222C728.142 135.927 729.465 136.026 730.668 136.508C731.872 136.989 732.899 137.828 733.611 138.912Z" fill="#DEDEDE"/>
<path d="M733.046 124.107C733.046 124.107 727.667 123.869 725.617 127.08L722.229 122.754C722.229 122.754 725.379 118.295 729.659 119.781L733.046 124.107Z" fill="#9B9B9B"/>
<path d="M732.749 123.81C732.749 123.81 728.217 123.616 726.449 126.277L723.581 122.62C723.581 122.62 726.241 118.874 729.792 120.064L732.749 123.81Z" fill="#B2B2B2"/>
<path d="M641.234 141.454C635.735 141.454 631.278 137.028 631.278 131.569C631.278 126.11 635.735 121.684 641.234 121.684C646.732 121.684 651.189 126.11 651.189 131.569C651.189 137.028 646.732 141.454 641.234 141.454Z" fill="#9B9B9B"/>
<path d="M644.54 138.925C641.472 138.468 639.407 135.26 639.928 131.76C640.449 128.261 643.358 125.794 646.426 126.251C649.494 126.708 651.559 129.916 651.038 133.416C650.517 136.915 647.608 139.382 644.54 138.925Z" fill="#DEDEDE"/>
<path d="M646.464 138.779C646.464 138.779 642.11 141.543 638.262 139.789C637.37 139.388 637.207 136.623 639.748 136.088C641.008 135.792 642.329 135.891 643.53 136.373C644.732 136.854 645.756 137.694 646.464 138.779Z" fill="#DEDEDE"/>
<path d="M645.914 123.914C645.914 123.914 640.535 123.691 638.485 126.886L635.082 122.561C635.082 122.561 638.247 118.101 642.511 119.588L645.914 123.914Z" fill="#9B9B9B"/>
<path d="M645.617 123.616C645.617 123.616 641.085 123.408 639.302 126.084L636.375 122.427C636.375 122.427 639.035 118.681 642.586 119.87L645.617 123.616Z" fill="#B2B2B2"/>
<path d="M543.255 141.261C537.756 141.261 533.299 136.835 533.299 131.376C533.299 125.916 537.756 121.491 543.255 121.491C548.753 121.491 553.21 125.916 553.21 131.376C553.21 136.835 548.753 141.261 543.255 141.261Z" fill="#9B9B9B"/>
<path d="M546.56 138.716C543.492 138.258 541.427 135.051 541.948 131.551C542.469 128.051 545.379 125.585 548.447 126.042C551.515 126.499 553.58 129.706 553.059 133.206C552.538 136.706 549.629 139.173 546.56 138.716Z" fill="#DEDEDE"/>
<path d="M548.485 138.511C548.485 138.511 544.131 141.291 540.268 139.522C539.391 139.12 539.228 136.37 541.754 135.82C543.016 135.525 544.339 135.625 545.542 136.106C546.746 136.587 547.773 137.427 548.485 138.511Z" fill="#DEDEDE"/>
<path d="M547.935 123.705C547.935 123.705 542.556 123.468 540.506 126.678L537.118 122.353C537.118 122.353 540.283 117.893 544.547 119.306L547.935 123.705Z" fill="#9B9B9B"/>
<path d="M547.638 123.408C547.638 123.408 543.18 123.215 541.323 125.876L538.47 122.234C538.47 122.234 541.13 118.488 544.681 119.662L547.638 123.408Z" fill="#B2B2B2"/>
<path d="M10 366.5L11.1887 358.815L554.398 308.446L551.442 312.593L10 366.5Z" fill="#A7A7A7"/>
<path d="M11.3722 359.195L512.75 312.697L9.5 352" fill="white"/>
<path d="M1024.19 335.872L777.162 308.446L1036.02 308.847L1024.19 335.872Z" fill="#D3D3D3"/>
<path d="M1015.72 338.235L769.867 312.593V307.658L1015.91 331.531L1015.72 338.235Z" fill="#979797"/>
<path d="M1016.49 311.805L813.448 310.036V304.908L1018.66 306.677L1016.49 311.805Z" fill="white"/>
<path d="M696 298.799H-487.146V308.624L686.5 307L696 298.799Z" fill="url(#paint1_radial_34_476)"/>
<path d="M899.138 67.0109V56.9474H903.477V66.996L916.285 64.2758L901.471 78.2933L885.899 64.3947L899.138 67.0109Z" fill="#C2C2C2"/>
<path d="M756.003 67.3081V57.2446H760.357V67.2933L773.15 64.573L758.336 78.5906L742.764 64.6919L756.003 67.3081Z" fill="#C2C2C2"/>
<path d="M572.125 32.7623C572.183 32.6832 572.265 32.6247 572.358 32.5952C572.452 32.5657 572.552 32.5666 572.645 32.5981C572.738 32.6296 572.818 32.69 572.874 32.7703C572.931 32.8506 572.96 32.9466 572.957 33.0446C572.957 34.0434 573.353 35.0015 574.058 35.7091C574.762 36.4168 575.718 36.8164 576.717 36.8204H593.284C593.902 36.8192 594.507 36.646 595.032 36.3205C595.557 35.9949 595.98 35.5299 596.256 34.9771C596.269 34.9083 596.269 34.8378 596.256 34.769V34.5758H596.85V35.2297C596.836 35.3034 596.836 35.3791 596.85 35.4527C597.128 36 597.553 36.4578 598.079 36.7734C598.605 37.089 599.209 37.2494 599.822 37.2365H616.167C617.147 37.2325 618.086 36.8414 618.779 36.1481C619.472 35.4548 619.863 34.5156 619.867 33.5351C619.865 33.4371 619.894 33.341 619.95 33.2608C620.006 33.1805 620.087 33.1202 620.179 33.0887C620.272 33.0572 620.372 33.0561 620.466 33.0857C620.559 33.1152 620.641 33.1737 620.699 33.2528C626.642 40.7744 630.862 51.5515 630.164 66.3866C629.109 88.6839 606.746 101.943 596.821 102.806C587.073 102.419 563.478 89.5015 562.378 66.3866C561.799 51.3731 566.152 40.4028 572.125 32.7623Z" fill="#E1E1E1"/>
<path d="M628.351 66.3865C627.356 87.5541 606.271 100.144 596.91 100.977C587.727 100.605 565.454 88.3419 564.429 66.3865C564.137 60.9962 564.638 55.5922 565.914 50.3473H626.836C628.132 55.5891 628.643 60.9946 628.351 66.3865Z" fill="#B5B5B5"/>
<path d="M622.437 38.9459C624.233 42.1877 625.597 45.651 626.494 49.2474H566.301C567.184 45.6601 568.517 42.1988 570.268 38.9459H622.437Z" fill="#B5B5B5"/>
<path d="M580.983 76.6879C581.782 76.7278 582.582 76.6931 583.375 76.5839C585.066 76.4055 586.662 75.7157 587.951 74.6068C589.546 73.2118 590.576 71.2825 590.849 69.1812H590.745C590.101 69.9022 589.307 70.4728 588.419 70.853C587.53 71.2331 586.569 71.4135 585.604 71.3812C584.76 71.4286 583.916 71.3007 583.124 71.0058C582.332 70.7108 581.61 70.2552 581.003 69.6674C580.396 69.0795 579.917 68.3723 579.596 67.5902C579.276 66.8082 579.12 65.968 579.14 65.123C579.138 64.1546 579.33 63.1957 579.704 62.3028C580.079 61.4099 580.629 60.6014 581.322 59.925C582.015 59.2486 582.836 58.718 583.738 58.3648C584.639 58.0117 585.602 57.8431 586.57 57.8689C591.027 57.8689 593.806 61.273 593.806 66.4757C593.897 68.2485 593.607 70.0201 592.956 71.6714C592.305 73.3226 591.308 74.8154 590.032 76.0488C588.251 77.6049 586.026 78.5617 583.672 78.7839C582.768 78.9244 581.853 78.9791 580.938 78.9474L580.983 76.6879ZM582.067 64.9446C582.027 65.5129 582.107 66.0832 582.303 66.6184C582.498 67.1535 582.804 67.6413 583.201 68.0497C583.598 68.4581 584.077 68.778 584.607 68.9883C585.136 69.1987 585.703 69.2948 586.272 69.2703C587.111 69.3072 587.946 69.1316 588.699 68.7601C589.453 68.3885 590.1 67.833 590.581 67.1448C590.77 66.8421 590.863 66.49 590.849 66.1339C590.849 62.6406 589.467 59.9798 586.391 59.9798C583.85 59.9947 582.067 62.046 582.067 64.9446Z" fill="#DFDFDF"/>
<path d="M613.657 68.2C613.657 75.1567 610.79 79.0068 605.767 79.0068C601.31 79.0068 598.338 75.2607 598.249 68.4823C598.16 61.704 601.533 57.8243 606.154 57.8243C610.775 57.8243 613.657 61.6743 613.657 68.2ZM601.324 68.5121C601.324 73.8337 603.152 76.8661 605.946 76.8661C609.081 76.8661 610.582 73.5513 610.582 68.3188C610.582 63.0864 609.096 59.9648 605.975 59.9648C603.286 59.9945 601.324 62.9675 601.324 68.5121Z" fill="#DFDFDF"/>
<path d="M121.264 457.169V449.736C121.264 449.736 508.262 340.272 632.66 314.05L640.535 314.437C640.535 314.437 389.971 375.323 121.264 457.169Z" fill="url(#paint2_linear_34_476)"/>
<path d="M14.8007 439.42V428.376C14.8007 428.376 465.87 332.527 595.781 314.778L603.671 315.165C603.671 315.165 227.326 381.239 14.8007 439.42Z" fill="url(#paint3_linear_34_476)"/>
</g>
</g>
<defs>
<linearGradient id="paint0_linear_34_476" x1="1237" y1="315.67" x2="1237" y2="460" gradientUnits="userSpaceOnUse">
<stop stop-color="white"/>
<stop offset="1" stop-color="white" stop-opacity="0"/>
</linearGradient>
<radialGradient id="paint1_radial_34_476" cx="0" cy="0" r="1" gradientUnits="userSpaceOnUse" gradientTransform="translate(280.696 301.248) rotate(180) scale(807.602 776.856)">
<stop offset="0.13" stop-color="white"/>
<stop offset="0.21" stop-color="#FCFCFC" stop-opacity="0.94"/>
<stop offset="0.38" stop-color="#F4F4F4" stop-opacity="0.8"/>
<stop offset="0.62" stop-color="#E8E8E8" stop-opacity="0.56"/>
<stop offset="0.88" stop-color="#D8D8D8" stop-opacity="0.25"/>
</radialGradient>
<linearGradient id="paint2_linear_34_476" x1="93.7105" y1="408.298" x2="595.589" y2="299.418" gradientUnits="userSpaceOnUse">
<stop stop-color="#E2000B"/>
<stop offset="1" stop-color="#580000"/>
</linearGradient>
<linearGradient id="paint3_linear_34_476" x1="-16.4459" y1="396.859" x2="535.445" y2="240.953" gradientUnits="userSpaceOnUse">
<stop stop-color="#E2000B"/>
<stop offset="1" stop-color="#580000"/>
</linearGradient>
<clipPath id="clip0_34_476">
<rect width="1000" height="465" fill="white" transform="matrix(-1 0 0 1 1000 0)"/>
</clipPath>
</defs>
</svg>
