<svg width="65" height="60" viewBox="0 0 65 60" fill="none" xmlns="http://www.w3.org/2000/svg">
<path d="M16.964 19.2036C21.1997 15.0175 26.9148 12.6701 32.8699 12.6701C38.8251 12.6701 44.5401 15.0175 48.7757 19.2036C49.0444 19.4722 49.361 19.7603 49.6777 20.0481C49.9172 20.2558 50.2245 20.3685 50.5414 20.3649H56.6063C56.7251 20.3648 56.8417 20.3332 56.9444 20.2733C57.047 20.2134 57.132 20.1274 57.1905 20.024C57.249 19.9206 57.2791 19.8034 57.2777 19.6845C57.2762 19.5657 57.2432 19.4495 57.1821 19.3476C56.0831 17.6118 54.7958 16.0027 53.3436 14.5495C50.6566 11.8404 47.4597 9.69027 43.9375 8.22289C40.4153 6.7555 36.6375 6 32.8219 6C29.0063 6 25.2284 6.7555 21.7062 8.22289C18.184 9.69027 14.9873 11.8404 12.3003 14.5495C10.865 16.0029 9.59682 17.6123 8.51938 19.3476C8.45544 19.4483 8.41976 19.5642 8.4163 19.6834C8.41283 19.8025 8.4416 19.9205 8.49958 20.0247C8.55757 20.1289 8.6427 20.2155 8.74582 20.2754C8.84894 20.3353 8.9663 20.3662 9.08553 20.3649H15.0352C15.4893 20.3627 15.928 20.1995 16.2731 19.9043C16.5155 19.683 16.7461 19.4489 16.964 19.2036Z" fill="#D51F11"/>
<path d="M58.5734 23.5411H53.8712C53.6845 23.5436 53.5064 23.6197 53.3753 23.7526C53.2442 23.8855 53.1707 24.0645 53.1707 24.2512V43.7893C53.1697 43.9689 53.2067 44.1465 53.279 44.3108C53.3514 44.4751 53.4576 44.6224 53.5907 44.7429C53.7239 44.8633 53.8809 44.9543 54.0516 45.0099C54.2223 45.0656 54.4029 45.0846 54.5814 45.0657C57.0345 44.8199 59.3415 43.7847 61.1561 42.1158C62.9708 40.447 64.195 38.2345 64.645 35.8105C65.0949 33.3866 64.7463 30.8822 63.6515 28.6733C62.5567 26.4644 60.7748 24.6701 58.5734 23.5603V23.5411Z" fill="#D51F11"/>
<path d="M7.16624 23.5411H11.8684C12.0568 23.5411 12.2373 23.6159 12.3705 23.7491C12.5037 23.8823 12.5786 24.0629 12.5786 24.2512V43.7893C12.5782 43.9693 12.54 44.1472 12.4666 44.3115C12.3931 44.4759 12.286 44.6228 12.1522 44.7431C12.0183 44.8634 11.8606 44.9544 11.6894 45.0099C11.5182 45.0655 11.3373 45.0845 11.1583 45.0657C8.70527 44.8199 6.39813 43.7847 4.58349 42.1158C2.76886 40.447 1.54461 38.2345 1.09465 35.8105C0.644693 33.3866 0.993333 30.8822 2.08813 28.6733C3.18293 26.4644 4.96485 24.6701 7.16624 23.5603V23.5411Z" fill="#D51F11"/>
<path d="M32.8648 53.5392C43.0088 53.5392 51.2321 45.3159 51.2321 35.1719C51.2321 25.0279 43.0088 16.8046 32.8648 16.8046C22.7209 16.8046 14.4976 25.0279 14.4976 35.1719C14.4976 45.3159 22.7209 53.5392 32.8648 53.5392Z" fill="#959595"/>
</svg>
