<svg width="65" height="60" viewBox="0 0 65 60" fill="none" xmlns="http://www.w3.org/2000/svg">
<path d="M33.5 13C29.6433 13 25.8731 14.1438 22.6664 16.2864C19.4596 18.4291 16.9603 21.4747 15.4844 25.0378C14.0085 28.601 13.6223 32.5215 14.3747 36.3042C15.1271 40.0868 16.9843 43.5615 19.7114 46.2887C22.4385 49.0158 25.9131 50.8729 29.6958 51.6253C33.4784 52.3777 37.3991 51.9916 40.9623 50.5157C44.5255 49.0398 47.571 46.5403 49.7137 43.3336C51.8564 40.1268 53 36.3566 53 32.4999C53 27.3282 50.9455 22.3684 47.2886 18.7114C43.6316 15.0545 38.6717 13 33.5 13ZM42.6672 25.5851L34.2607 33.3891C34.0491 33.587 33.7699 33.6966 33.4802 33.6954H25.7751C25.4083 33.6954 25.0565 33.5496 24.7972 33.2902C24.5378 33.0309 24.3921 32.6791 24.3921 32.3123V32.1543C24.3921 31.7875 24.5378 31.4357 24.7972 31.1764C25.0565 30.917 25.4083 30.7712 25.7751 30.7712H32.1961C32.4837 30.7712 32.7613 30.666 32.9764 30.475L40.7014 23.4316C40.8359 23.3058 40.9943 23.2081 41.1672 23.1444C41.34 23.0806 41.5238 23.0522 41.7079 23.0605C41.8919 23.0687 42.0725 23.1136 42.239 23.1926C42.4054 23.2716 42.5543 23.3832 42.677 23.5206L42.7956 23.6489C43.035 23.9228 43.156 24.2807 43.132 24.6438C43.1079 25.0068 42.9407 25.3452 42.6672 25.5851Z" fill="#959595"/>
<path d="M63.1265 12.4375L59.9162 13.9811C57.197 10.0318 53.631 6.73739 49.4772 4.3371C45.3235 1.93681 40.6864 0.49096 35.9031 0.104844C31.1197 -0.281273 26.3103 0.402117 21.8245 2.10501C17.3387 3.8079 13.2891 6.4875 9.97026 9.94936C6.65137 13.4112 4.14649 17.5684 2.63778 22.1183C1.12907 26.6681 0.654419 31.4965 1.2483 36.2525C1.84218 41.0086 3.4897 45.5725 6.07107 49.613C8.65244 53.6534 12.1028 57.0687 16.1714 59.6104C16.4715 59.7978 16.8072 59.921 17.1574 59.9726C17.5076 60.0241 17.8647 60.0029 18.2062 59.91C18.5478 59.817 18.8663 59.6544 19.1419 59.4326C19.4175 59.2108 19.6442 58.9344 19.8077 58.6208L20.0257 58.1855C20.3179 57.623 20.3883 56.9716 20.2233 56.3598C20.0582 55.7479 19.6695 55.2199 19.1339 54.8802C15.7597 52.8135 12.8868 50.0248 10.7222 46.715C8.55766 43.4053 7.15548 39.657 6.61673 35.7406C6.07798 31.8242 6.41608 27.8371 7.60671 24.067C8.79734 20.2968 10.8108 16.8376 13.5019 13.9386C16.193 11.0396 19.4947 8.77317 23.1689 7.30268C26.8431 5.83219 30.7982 5.19443 34.749 5.43515C38.6999 5.67588 42.548 6.7891 46.016 8.69475C49.484 10.6004 52.4853 13.2508 54.8036 16.455L51.7518 17.9196C51.5128 18.0323 51.3129 18.214 51.1777 18.4409C51.0426 18.6679 50.9784 18.9299 50.9933 19.1935C51.0082 19.4571 51.1015 19.7102 51.2614 19.9205C51.4212 20.1308 51.6403 20.2885 51.8905 20.3737L59.3416 22.9764C59.9264 23.176 60.5664 23.1373 61.1229 22.8686C61.6793 22.6 62.1073 22.1233 62.314 21.5416L64.9199 14.1C65.0093 13.8549 65.0242 13.5889 64.963 13.3353C64.9017 13.0817 64.767 12.8518 64.5756 12.6743C64.3841 12.4969 64.1446 12.3797 63.8868 12.3375C63.6291 12.2954 63.3646 12.3303 63.1265 12.4375Z" fill="#D51F11"/>
</svg>
