<svg width="898" height="540" viewBox="0 0 898 540" fill="none" xmlns="http://www.w3.org/2000/svg">
<path d="M743.939 423.135C745.315 423.588 1019.27 300.95 496.958 279.907L497.987 277.27C497.987 277.27 1004.64 284.008 757.659 430.913L743.939 423.135Z" fill="url(#paint0_linear_41_1561)"/>
<path d="M814.665 404.528C816.041 404.98 997.77 272.582 490.204 272.755C489.933 272.749 489.672 272.654 489.461 272.484C489.25 272.315 489.1 272.081 489.036 271.818C488.971 271.555 488.995 271.278 489.103 271.03C489.212 270.781 489.399 270.576 489.636 270.445C489.636 270.445 985.724 254.581 828.386 412.306L814.665 404.528Z" fill="url(#paint1_linear_41_1561)"/>
<path d="M482.5 270C482.5 279.364 474.621 287.987 461.548 294.298C448.509 300.593 430.462 304.5 410.5 304.5C390.538 304.5 372.491 300.593 359.452 294.298C346.379 287.987 338.5 279.364 338.5 270C338.5 260.636 346.379 252.013 359.452 245.702C372.491 239.407 390.538 235.5 410.5 235.5C430.462 235.5 448.509 239.407 461.548 245.702C474.621 252.013 482.5 260.636 482.5 270Z" stroke="black"/>
<defs>
<linearGradient id="paint0_linear_41_1561" x1="878.859" y1="375.966" x2="511.162" y2="325.383" gradientUnits="userSpaceOnUse">
<stop stop-color="#E2000B"/>
<stop offset="1" stop-color="#580000"/>
</linearGradient>
<linearGradient id="paint1_linear_41_1561" x1="878.859" y1="375.966" x2="511.162" y2="325.383" gradientUnits="userSpaceOnUse">
<stop stop-color="#E2000B"/>
<stop offset="1" stop-color="#580000"/>
</linearGradient>
</defs>
</svg>
