<svg width="108" height="107" viewBox="0 0 108 107" fill="none" xmlns="http://www.w3.org/2000/svg">
<path fill-rule="evenodd" clip-rule="evenodd" d="M54.0134 7.44655C28.7675 7.44655 8.30166 27.9124 8.30166 53.1583C8.30166 78.4042 28.7675 98.8701 54.0134 98.8701C79.2593 98.8701 99.7252 78.4042 99.7252 53.1583C99.7252 27.9124 79.2593 7.44655 54.0134 7.44655ZM0.931763 53.1583C0.931763 23.8421 24.6972 0.0766602 54.0134 0.0766602C83.3296 0.0766602 107.095 23.8421 107.095 53.1583C107.095 82.4745 83.3296 106.24 54.0134 106.24C24.6972 106.24 0.931763 82.4745 0.931763 53.1583Z" fill="white"/>
<path fill-rule="evenodd" clip-rule="evenodd" d="M82.2494 38.179H51.1116V34.494H82.2494V38.179Z" fill="#D51F11"/>
<path fill-rule="evenodd" clip-rule="evenodd" d="M82.2494 73.1952H51.1116V69.5103H82.2494V73.1952Z" fill="#D51F11"/>
<path fill-rule="evenodd" clip-rule="evenodd" d="M82.2494 55.6825H51.1116V51.9976H82.2494V55.6825Z" fill="#D51F11"/>
<path d="M35.6624 63.7433L38.3524 69.1878L44.3588 70.063L40.0106 74.2914L41.0424 80.2795L35.6624 77.4513L30.2916 80.2795L31.3234 74.2914L26.9751 70.063L32.9816 69.1878L35.6624 63.7433Z" fill="#D51F11"/>
<path d="M35.6624 44.1855L38.3524 49.6208L44.3588 50.496L40.0106 54.7337L41.0424 60.7125L35.6624 57.8935L30.2916 60.7125L31.3234 54.7337L26.9751 50.496L32.9816 49.6208L35.6624 44.1855Z" fill="#D51F11"/>
<path d="M35.6624 26.0187L38.3524 31.454L44.3588 32.3291L40.0106 36.5668L41.0424 42.5457L35.6624 39.7267L30.2916 42.5457L31.3234 36.5668L26.9751 32.3291L32.9816 31.454L35.6624 26.0187Z" fill="#D51F11"/>
</svg>
