<svg width="116" height="263" viewBox="0 0 116 263" fill="none" xmlns="http://www.w3.org/2000/svg">
<path fill-rule="evenodd" clip-rule="evenodd" d="M57.7001 82C30.2958 82 8.08014 104.216 8.08014 131.62C8.08014 159.024 30.2958 181.24 57.7001 181.24C85.1045 181.24 107.32 159.024 107.32 131.62C107.32 104.216 85.1045 82 57.7001 82ZM0.0801392 131.62C0.0801392 99.7974 25.8775 74 57.7001 74C89.5228 74 115.32 99.7974 115.32 131.62C115.32 163.443 89.5228 189.24 57.7001 189.24C25.8775 189.24 0.0801392 163.443 0.0801392 131.62Z" fill="white"/>
<path fill-rule="evenodd" clip-rule="evenodd" d="M88.3501 115.36H54.5501V111.36H88.3501V115.36Z" fill="#D51F11"/>
<path fill-rule="evenodd" clip-rule="evenodd" d="M88.3501 153.37H54.5501V149.37H88.3501V153.37Z" fill="#D51F11"/>
<path fill-rule="evenodd" clip-rule="evenodd" d="M88.3501 134.36H54.5501V130.36H88.3501V134.36Z" fill="#D51F11"/>
<path d="M37.78 143.11L40.7 149.02L47.22 149.97L42.5 154.56L43.62 161.06L37.78 157.99L31.95 161.06L33.07 154.56L28.35 149.97L34.87 149.02L37.78 143.11Z" fill="#D51F11"/>
<path d="M37.78 121.88L40.7 127.78L47.22 128.73L42.5 133.33L43.62 139.82L37.78 136.76L31.95 139.82L33.07 133.33L28.35 128.73L34.87 127.78L37.78 121.88Z" fill="#D51F11"/>
<path d="M37.78 102.16L40.7 108.06L47.22 109.01L42.5 113.61L43.62 120.1L37.78 117.04L31.95 120.1L33.07 113.61L28.35 109.01L34.87 108.06L37.78 102.16Z" fill="#D51F11"/>
<path fill-rule="evenodd" clip-rule="evenodd" d="M56.28 252.803L56 167.013L60 167L60.28 252.79L56.28 252.803Z" fill="#D51F11"/>
<path fill-rule="evenodd" clip-rule="evenodd" d="M56.29 97.2419L56 0.0119303L60 -1.26763e-08L60.29 97.23L56.29 97.2419Z" fill="#D51F11"/>
<path d="M59.8454 261.825L69.3854 252.285C69.7213 251.938 69.9132 251.477 69.9228 250.994C69.9323 250.511 69.7587 250.043 69.4368 249.683C69.1149 249.323 68.6687 249.099 68.1879 249.054C67.7071 249.01 67.2275 249.15 66.8454 249.445L58.4354 257.855L49.9454 249.305C49.5445 249.046 49.0615 248.947 48.5912 249.027C48.121 249.106 47.6975 249.359 47.4041 249.735C47.1107 250.111 46.9687 250.584 47.0059 251.059C47.0432 251.535 47.2571 251.979 47.6054 252.305L57.1454 261.845C57.5075 262.198 57.9941 262.393 58.4996 262.39C59.005 262.386 59.4886 262.183 59.8454 261.825Z" fill="#D51F11"/>
</svg>
