<svg width="107" height="107" viewBox="0 0 107 107" fill="none" xmlns="http://www.w3.org/2000/svg">
<path fill-rule="evenodd" clip-rule="evenodd" d="M53.5719 7.44655C28.326 7.44655 7.86013 27.9124 7.86013 53.1583C7.86013 78.4042 28.326 98.8701 53.5719 98.8701C78.8178 98.8701 99.2837 78.4042 99.2837 53.1583C99.2837 27.9124 78.8178 7.44655 53.5719 7.44655ZM0.490234 53.1583C0.490234 23.8421 24.2557 0.0766602 53.5719 0.0766602C82.8881 0.0766602 106.654 23.8421 106.654 53.1583C106.654 82.4745 82.8881 106.24 53.5719 106.24C24.2557 106.24 0.490234 82.4745 0.490234 53.1583Z" fill="white"/>
<path fill-rule="evenodd" clip-rule="evenodd" d="M55.1564 40.7677C48.1199 40.7677 42.4157 46.4719 42.4157 53.5084C42.4157 60.5449 48.1199 66.2491 55.1564 66.2491C62.1929 66.2491 67.8971 60.5449 67.8971 53.5084C67.8971 46.4719 62.1929 40.7677 55.1564 40.7677ZM38.7308 53.5084C38.7308 44.4368 46.0848 37.0828 55.1564 37.0828C64.2281 37.0828 71.5821 44.4368 71.5821 53.5084C71.5821 62.5801 64.2281 69.9341 55.1564 69.9341C46.0848 69.9341 38.7308 62.5801 38.7308 53.5084Z" fill="#D51F11"/>
<path fill-rule="evenodd" clip-rule="evenodd" d="M78.0676 55.4337H61.2551V51.7488H78.0676V55.4337Z" fill="#D51F11"/>
<path fill-rule="evenodd" clip-rule="evenodd" d="M49.0579 55.4337H32.2453V51.7488H49.0579V55.4337Z" fill="#D51F11"/>
<path fill-rule="evenodd" clip-rule="evenodd" d="M56.9989 30.6802V47.4927H53.314V30.6802H56.9989Z" fill="#D51F11"/>
<path fill-rule="evenodd" clip-rule="evenodd" d="M56.9989 59.6898V76.5024H53.314V59.6898H56.9989Z" fill="#D51F11"/>
</svg>
