<svg width="898" height="633" viewBox="0 0 898 633" fill="none" xmlns="http://www.w3.org/2000/svg">
<g clip-path="url(#clip0_33_150)">
<mask id="mask0_33_150" style="mask-type:alpha" maskUnits="userSpaceOnUse" x="0" y="0" width="898" height="1070">
<path d="M0 0H898V1070H0V0Z" fill="url(#paint0_linear_33_150)"/>
</mask>
<g mask="url(#mask0_33_150)">
<mask id="mask1_33_150" style="mask-type:alpha" maskUnits="userSpaceOnUse" x="0" y="0" width="898" height="1070">
<path d="M0 0H898V1070H0V0Z" fill="url(#paint1_linear_33_150)"/>
</mask>
<g mask="url(#mask1_33_150)">
<path d="M1136.5 245.39H-14.5V637.39H1136.5V245.39Z" fill="url(#paint2_linear_33_150)"/>
<path d="M671.68 248.39C671.68 248.39 575.45 249.14 525.68 340.39C489.5 406.72 458.16 507.39 449.68 644.39C281.68 643.39 -2.32001 644.39 -2.32001 644.39L1.67999 269.39L5.67999 245.39L671.68 248.39Z" fill="url(#paint3_linear_33_150)"/>
<path d="M662.5 248.39C662.5 248.39 568.5 246.39 516.5 336.39C464.5 426.39 438.5 525.39 424.5 644.39C256.5 643.39 -11.5 644.39 -11.5 644.39L-7.5 269.39L-3.5 245.39L662.5 248.39Z" fill="url(#paint4_linear_33_150)"/>
<path d="M663 248.39C663 248.39 569 246.39 517 336.39C465 426.39 439 525.39 425 644.39C257 643.39 -11 644.39 -11 644.39L-7 269.39L-3 245.39L663 248.39Z" fill="url(#paint5_linear_33_150)"/>
<path d="M571.17 256.06L519.5 275.39V272.06L571.17 256.06Z" fill="white"/>
<path d="M499.83 285.72V288.39L362.17 347.06V342.72L499.83 285.72Z" fill="white"/>
<path d="M335.83 332.39V335.72L-0.5 470.72V460.06L335.83 332.39Z" fill="white"/>
<path d="M236.83 353.06L236.5 348.72L-1.83 416.06V427.06L236.83 353.06Z" fill="white"/>
<path d="M696.66 248.05C696.66 248.05 590.33 241.72 540 325.72C489.67 409.72 462.83 542.05 459 738.39C458.51 763.17 732 700.39 732 700.39L729 637.39C729 637.39 639.5 477.22 620 421.89C598.16 365.89 586.66 319.8 613.66 282.3C624.55 267.18 659.72 255.98 697.81 247.99L696.66 248.05Z" fill="url(#paint6_linear_33_150)"/>
<path d="M627 271.18L603.85 267.84C597.414 270.975 591.191 274.53 585.22 278.48L613 283.39C613.28 282.98 619.5 274.8 627 271.18Z" fill="white"/>
<path d="M548.06 313.63C545.162 317.525 542.462 321.563 539.97 325.73C533.231 336.888 527.219 348.468 521.97 360.4L603.3 372.29C598.89 353.49 596.79 335.88 598.85 319.57L548.06 313.63Z" fill="white"/>
<path d="M360.75 234.14V240.64L523.25 246.14V244.14L360.75 234.14Z" fill="white"/>
<path d="M420.5 219.39V223.14L528.25 237.64V235.89L420.5 219.39Z" fill="white"/>
<path d="M467.75 219.64V223.89L54 124.39V108.89L467.75 219.64Z" fill="white"/>
<path d="M559.75 239.89V242.39L594 246.39L559.75 239.89Z" fill="white"/>
<path d="M-1.5 33.39L149.5 94.89L145.5 117.39L293.5 166.89L281 179.89L283 198.89L363.5 220.89L362 225.39L347.5 230.39V245.39H-3L-1.5 33.39Z" fill="#959595"/>
<path d="M-8 51.89L134.5 104.39V115.89L-49 53.89L-8 51.89Z" fill="#C2C2C2"/>
<path d="M-6.5 103.39L281 179.89L282.25 198.14L-11.5 120.89L-6.5 103.39Z" fill="#C2C2C2"/>
<path d="M254.5 190.39L246.5 201.89L353 228.39L362 225.39L363.5 220.89L254.5 190.39Z" fill="#C2C2C2"/>
<path d="M-2.25 172.89L111 193.89L113.5 173.89L-9.5 150.89L-2.25 172.89L-1.87 175.01Z" fill="#C2C2C2"/>
<path d="M1 224.39L292 233.39L278 221.89L-14.5 195.39L-7 223.89L1 224.39Z" fill="#C2C2C2"/>
<path d="M47.17 266.39L46.5 269.39L338.5 258.06V256.06L47.17 266.39Z" fill="#D8D8D8"/>
<path d="M-11.5 270.39C-11.5 270.39 166.55 264.69 232 261.89C302 258.89 579 247.39 579 247.39C579 247.39 302 261.89 182 273.89C57.49 286.34 -61 298.89 -61 298.89L-40.5 285.89L-15.5 269.89" fill="url(#paint7_linear_33_150)"/>
<path d="M408.83 268.72V271.06L244.5 298.06V292.06L408.83 268.72Z" fill="white"/>
<path d="M340.83 259.06V265.06L503.83 254.72V252.39L340.83 259.06Z" fill="white"/>
<path d="M-0.5 328.05C-0.5 328.05 238.16 279.39 341.5 270.05C444.84 260.71 501.5 254.72 589.16 251.72C676.82 248.72 683.83 248.05 683.83 248.05C683.83 248.05 531.16 250.72 456.83 256.72C382.5 262.72 312.83 268.72 256.5 277.05C200.17 285.38 151.83 292.39 86.16 304.39C20.49 316.39 -9.5 323.72 -9.5 323.72L-0.5 328.05Z" fill="#F0F0F0"/>
<path d="M25 291.89L73.5 298.89L219 279.89C219 279.89 183.5 274.39 182 274.39C180.5 274.39 25 291.89 25 291.89Z" fill="#F0F0F0"/>
<path d="M127.17 276.06V279.06L334.83 262.06V259.72L127.17 276.06Z" fill="#C8C8C8"/>
<path d="M203.5 265.39L406.5 255.06L201.83 264.06V266.39L203.5 265.39Z" fill="#D5D5D5"/>
<path d="M18.5 271.72V274.39L176.83 266.72V264.72L18.5 271.72Z" fill="#D8D8D8"/>
<path d="M40.17 273.72V276.39L198.5 268.72V266.72L40.17 273.72Z" fill="white"/>
<path d="M102.25 6.89001L98.5 2.39001H95.75L-2.25 172.89L-0.75 181.39L102.25 6.89001Z" fill="#7A7A7A"/>
<path d="M95.75 2.39001L-2.25 172.89L-1.87 175.01L98.26 2.39001H95.75Z" fill="white"/>
<path d="M128.34 70.26C115.55 59.26 100.43 51.56 85.39 44.16C91.7967 33.4934 98.21 22.8267 104.63 12.16C119.17 20.71 133.63 29.67 145.11 42.27C139.483 51.5967 133.893 60.9267 128.34 70.26Z" fill="#787878"/>
<path d="M111.06 98.87C97.33 89.07 81.67 82.51 66.18 76.11L85.43 44.11C100.43 51.51 115.59 59.18 128.38 70.21C122.65 79.85 116.84 89.36 111.06 98.87Z" fill="#EBEBEB"/>
<path d="M77.18 155.71C61.25 148.88 44.31 144.55 27.65 140.01L46.89 108.01C62.99 113.01 79.42 118.01 94.15 126.41C88.28 136.1 82.7 145.85 77.18 155.71Z" fill="#EBEBEB"/>
<path d="M94.15 126.46C79.42 118.04 62.99 113.07 46.89 108.06C53.31 97.3934 59.7267 86.7267 66.14 76.0601C81.63 82.4601 97.29 89.0599 111.02 98.8199L94.15 126.46Z" fill="#787878"/>
<path d="M61.14 184.14C43.63 179.79 25.97 176.06 8.39999 171.96L27.65 140.01C44.31 144.55 61.25 148.88 77.18 155.71C71.86 165.203 66.5133 174.68 61.14 184.14Z" fill="#787878"/>
<path d="M153.51 100.08C146.71 88.9 138.219 78.8408 128.34 70.26C133.88 60.9267 139.47 51.5933 145.11 42.26C154.64 52.59 161.11 64.3199 167.23 76.8199C159.26 89.8399 158.17 92.02 153.51 100.08Z" fill="#EBEBEB"/>
<path d="M138.06 124.97C130.378 115.002 121.282 106.21 111.06 98.87C116.88 89.36 122.69 79.87 128.38 70.26C138.259 78.8408 146.75 88.9 153.55 100.08C148.66 108.52 143.69 117.04 138.06 124.97Z" fill="#787878"/>
<path d="M106.88 173.53C97.5704 166.657 87.6252 160.69 77.18 155.71C82.7 145.85 88.28 136.1 94.18 126.46C104.61 132.33 113.78 140.05 122.11 148.6C116.38 156.48 111.69 165.1 106.88 173.53Z" fill="#787878"/>
<path d="M122.06 148.63C113.73 140.08 104.56 132.36 94.13 126.49L111.06 98.87C121.282 106.21 130.378 115.002 138.06 124.97C132.727 132.85 127.393 140.737 122.06 148.63Z" fill="#EBEBEB"/>
<path d="M94.06 195.81C83.5775 190.67 72.5381 186.755 61.16 184.14C66.5266 174.667 71.86 165.19 77.16 155.71C87.6051 160.69 97.5504 166.657 106.86 173.53C102.57 181.07 101.65 182.79 94.06 195.81Z" fill="#EBEBEB"/>
<path d="M170.13 131.12C167.26 120.22 159.39 109.53 153.51 100.12C158.17 92.06 159.26 89.88 167.23 76.91C172.12 88.21 177.98 99.83 180.92 111.85C173.56 124.05 173.36 125.01 170.13 131.12Z" fill="#787878"/>
<path d="M157.74 152.84C153.14 142.84 144.61 133.59 138.03 124.97C143.69 117.04 148.66 108.52 153.51 100.08C159.39 109.53 167.26 120.22 170.13 131.08C166.89 137.24 162.83 143.95 157.74 152.84Z" fill="#EBEBEB"/>
<path d="M132.27 195.47C125.01 187.22 115.27 180.47 106.88 173.53C111.69 165.1 116.38 156.48 122.08 148.6C129.89 156.69 139.13 164.74 145.64 174.01C140.38 183.19 135.67 190.5 132.27 195.47Z" fill="#EBEBEB"/>
<path d="M145.64 174.01C139.13 164.74 129.89 156.69 122.08 148.6C127.413 140.707 132.747 132.83 138.08 124.97C144.66 133.59 153.19 142.82 157.79 152.84C152.65 161.73 150.91 164.83 145.64 174.01Z" fill="#787878"/>
<path d="M120.92 212.63C113.15 205.73 102.99 200.79 94.04 195.8C101.65 182.8 102.57 181.06 106.88 173.52C115.32 180.41 125.01 187.21 132.27 195.46C128.86 200.45 128.86 200.09 120.92 212.63Z" fill="#787878"/>
<path d="M172.17 150.42C172.07 142.42 171.96 138.15 170.17 131.12C173.4 125.01 173.6 124.05 180.96 111.81C182.61 119.31 182.71 123.95 182.77 132.4C176.28 142.93 175.39 144.75 172.17 150.42Z" fill="#EBEBEB"/>
<path d="M160.94 169.79C160.52 162.73 160.21 159.02 157.74 152.79C162.83 143.9 166.89 137.19 170.13 131.07C171.96 138.07 172.07 142.39 172.13 150.37C168.95 156.1 165.93 160.92 160.94 169.79Z" fill="#787878"/>
<path d="M137.78 208.54C136.62 202.95 135.78 200.15 132.27 195.47C135.67 190.47 140.38 183.19 145.64 174.01C149.02 179.63 149.53 182.85 150.2 189.01C146.487 195.782 142.338 202.306 137.78 208.54Z" fill="#787878"/>
<path d="M150.2 189.06C149.53 182.85 149.02 179.63 145.64 174.06C150.91 164.88 152.64 161.78 157.74 152.89C160.21 159.07 160.52 162.78 160.94 169.89C155.96 178.63 154.77 180.88 150.2 189.06Z" fill="#EBEBEB"/>
<path d="M127.24 223.51C125.43 218.51 124.29 216.12 120.92 212.64C128.86 200.09 128.86 200.45 132.27 195.47C135.81 200.15 136.62 202.95 137.78 208.54C134.81 212.42 135.18 211.21 127.24 223.51Z" fill="#EBEBEB"/>
<path d="M172.11 168.93C171.97 162.53 172.27 158.41 172.17 150.42C175.39 144.75 176.28 142.93 182.73 132.42C182.8 140.86 182.51 145.19 182.61 151.42C176.99 160.55 175.38 163.39 172.11 168.93Z" fill="#787878"/>
<path d="M161.54 186.51C161.16 180.51 161.37 176.84 160.94 169.79C165.94 160.92 168.94 156.1 172.17 150.42C172.27 158.42 171.97 162.53 172.11 168.93C168.83 174.47 166.89 177.63 161.54 186.51Z" fill="#EBEBEB"/>
<path d="M139.6 222.49C139.01 217.1 138.95 214.13 137.78 208.54C142.336 202.322 146.485 195.815 150.2 189.06C150.87 195.28 150.63 198.48 151 204.06C146.66 211.28 141.88 219.14 139.6 222.49Z" fill="#EBEBEB"/>
<path d="M151 204.04C150.63 198.48 150.87 195.28 150.2 189.04C154.77 180.86 155.96 178.64 160.94 169.77C161.37 176.77 161.16 180.49 161.54 186.49C156.2 195.42 155.34 196.8 151 204.04Z" fill="#787878"/>
<path d="M130.55 236.63C129.883 232.158 128.775 227.763 127.24 223.51C135.18 211.21 134.81 212.42 137.78 208.51C138.95 214.1 139.01 217.07 139.6 222.46C137.33 225.84 138.21 224.05 130.55 236.63Z" fill="#787878"/>
<path d="M173.51 183.63C172.6 176.18 172.25 175.36 172.11 168.96C175.38 163.42 176.99 160.58 182.61 151.45C182.66 156.518 182.994 161.579 183.61 166.61C179.15 174.07 176.99 177.75 173.51 183.63Z" fill="#EBEBEB"/>
<path d="M163.34 200.36C162.26 193.16 161.93 192.51 161.54 186.51C166.89 177.6 168.83 174.51 172.11 168.93C172.25 175.33 172.6 176.15 173.51 183.6C170.06 189.46 168.72 191.63 163.34 200.36Z" fill="#787878"/>
<path d="M141.77 235.25C140.633 231.077 139.907 226.804 139.6 222.49C141.88 219.14 146.66 211.28 151 204.04C151.209 208.488 151.831 212.907 152.86 217.24C148.65 224.01 143.82 232.11 141.77 235.25Z" fill="#787878"/>
<path d="M152.86 217.24C151.831 212.907 151.209 208.488 151 204.04C155.34 196.8 156.2 195.42 161.54 186.51C161.93 192.51 162.26 193.16 163.34 200.36C157.96 209.09 157.06 210.48 152.86 217.24Z" fill="#EBEBEB"/>
<path d="M132.94 249.46C131.25 243.09 131.51 241.92 130.55 236.63C138.21 224.05 137.33 225.84 139.55 222.49C139.857 226.804 140.583 231.077 141.72 235.25C139.71 238.4 140.84 236.27 132.94 249.46Z" fill="#EBEBEB"/>
<path d="M179.24 204.38C174.95 196.13 174.43 191.06 173.51 183.6C176.99 177.75 179.15 174.07 183.62 166.6C184.37 174.26 184.86 179.22 188.87 187.77C185.66 193.52 183.06 197.96 179.24 204.38Z" fill="#787878"/>
<path d="M169.72 220.43C165.07 212.61 164.42 207.56 163.34 200.36C168.72 191.63 170.03 189.46 173.51 183.6C174.43 191.06 174.95 196.13 179.24 204.38C175.45 210.81 174.42 212.51 169.72 220.43Z" fill="#EBEBEB"/>
<path d="M150.5 252.37C144.61 246.17 143.39 241.71 141.77 235.25C143.77 232.11 148.65 224.01 152.86 217.25C154.24 224.08 155.26 228.83 160.58 235.93C157.06 241.92 152.22 249.84 150.5 252.37Z" fill="#EBEBEB"/>
<path d="M160.58 235.92C155.26 228.82 154.24 224.07 152.86 217.24C157.06 210.48 157.96 209.09 163.34 200.36C164.42 207.56 165.07 212.61 169.72 220.43C165.06 228.34 164.15 229.92 160.58 235.92Z" fill="#787878"/>
<path d="M142.19 265.63C135.91 260.15 134.63 255.84 132.94 249.48C140.84 236.29 139.71 238.42 141.77 235.27C143.39 241.73 144.61 246.19 150.5 252.39C148.79 254.9 150.21 252.25 142.19 265.63Z" fill="#787878"/>
<path d="M198.06 220.26C186.7 216.73 183.56 212.63 179.27 204.38C183.06 197.96 185.69 193.52 188.9 187.75C192.9 196.3 195.9 200.62 206.53 205.75C204.82 209.08 201.86 213.94 198.06 220.26Z" fill="#EBEBEB"/>
<path d="M189.69 234.22C177.69 232.04 174.36 228.22 169.69 220.43C174.39 212.51 175.42 210.81 179.21 204.43C183.5 212.68 186.64 216.78 198 220.31C194.2 226.57 193.63 227.38 189.69 234.22Z" fill="#787878"/>
<path d="M173.85 261.04C160.54 261.34 156.39 258.57 150.5 252.37C152.22 249.84 157.01 241.92 160.58 235.92C165.9 243.01 169.68 246.38 182.1 247.64C179.24 252.63 174.77 259.89 173.85 261.04Z" fill="#787878"/>
<path d="M182.06 247.63C169.64 246.37 165.86 243 160.54 235.91C164.11 229.91 164.98 228.33 169.68 220.42C174.32 228.23 177.68 232.03 189.68 234.21C185.74 241.06 184.95 242.68 182.06 247.63Z" fill="#EBEBEB"/>
<path d="M167.16 271.44C152.88 273.34 148.46 271.09 142.16 265.61C150.16 252.25 148.76 254.9 150.47 252.37C156.36 258.57 160.47 261.37 173.82 261.04C172.93 262.2 174.86 258.63 167.16 271.44Z" fill="#EBEBEB"/>
<path d="M704.33 245.39C704.33 245.39 637.33 255.39 619.33 289.39C601.33 323.39 607.33 347.39 609.83 359.39C612.33 371.39 625.33 412.39 656.83 476.39C688.33 540.39 729.33 619.89 753.33 651.39C777.33 682.89 1150.83 672.05 1150.83 672.05L1221.5 419.39L1138.5 245.32C1138.5 245.32 705.41 246.47 704.33 245.39Z" fill="#D8D8D8"/>
</g>
</g>
</g>
<defs>
<linearGradient id="paint0_linear_33_150" x1="449" y1="411.351" x2="449" y2="617.757" gradientUnits="userSpaceOnUse">
<stop stop-color="white"/>
<stop offset="1" stop-color="#D9D9D9" stop-opacity="0"/>
</linearGradient>
<linearGradient id="paint1_linear_33_150" x1="577.429" y1="411.116" x2="898" y2="411.116" gradientUnits="userSpaceOnUse">
<stop stop-color="white"/>
<stop offset="1" stop-color="#D9D9D9" stop-opacity="0"/>
</linearGradient>
<linearGradient id="paint2_linear_33_150" x1="556.29" y1="455.62" x2="606.29" y2="304.62" gradientUnits="userSpaceOnUse">
<stop stop-color="#DCDCDC"/>
<stop offset="1" stop-color="#B1B1B1"/>
</linearGradient>
<linearGradient id="paint3_linear_33_150" x1="262.02" y1="466.05" x2="314.02" y2="317.38" gradientUnits="userSpaceOnUse">
<stop stop-color="#DCDCDC"/>
<stop offset="1" stop-color="white"/>
</linearGradient>
<linearGradient id="paint4_linear_33_150" x1="199.48" y1="461.9" x2="401.48" y2="149.9" gradientUnits="userSpaceOnUse">
<stop stop-color="#DCDCDC"/>
<stop offset="1" stop-color="#B1B1B1"/>
</linearGradient>
<linearGradient id="paint5_linear_33_150" x1="326" y1="495.47" x2="326" y2="358.77" gradientUnits="userSpaceOnUse">
<stop stop-color="#D8D8D8"/>
<stop offset="1" stop-color="#B1B1B1"/>
</linearGradient>
<linearGradient id="paint6_linear_33_150" x1="595.5" y1="578.02" x2="595.5" y2="380.89" gradientUnits="userSpaceOnUse">
<stop stop-color="#D8D8D8"/>
<stop offset="1" stop-color="#A3A3A3"/>
</linearGradient>
<linearGradient id="paint7_linear_33_150" x1="-108.32" y1="294.47" x2="330.27" y2="254.18" gradientUnits="userSpaceOnUse">
<stop stop-color="#787878"/>
<stop offset="1" stop-color="#A3A3A3"/>
</linearGradient>
<clipPath id="clip0_33_150">
<rect width="898" height="633" fill="white"/>
</clipPath>
</defs>
</svg>
