<svg width="67" height="50" viewBox="0 0 67 50" fill="none" xmlns="http://www.w3.org/2000/svg">
<g clip-path="url(#clip0_107_42)">
<path d="M16.7363 13.759C21.1501 9.39692 27.1057 6.95068 33.3113 6.95068C39.517 6.95068 45.4724 9.39692 49.8863 13.759C50.1663 14.039 50.4962 14.3392 50.8262 14.6392C51.0758 14.8556 51.396 14.973 51.7262 14.9692H58.0463C58.1701 14.9692 58.2917 14.9362 58.3986 14.8738C58.5056 14.8114 58.5941 14.7218 58.6551 14.614C58.7161 14.5062 58.7475 14.3841 58.7459 14.2603C58.7443 14.1364 58.71 14.0154 58.6463 13.9092C57.5011 12.1004 56.1596 10.4235 54.6463 8.90918C51.8463 6.08614 48.5149 3.84552 44.8445 2.31641C41.1742 0.787289 37.2374 0 33.2613 0C29.2851 0 25.3483 0.787289 21.6779 2.31641C18.0075 3.84552 14.6763 6.08614 11.8763 8.90918C10.3806 10.4237 9.0591 12.1008 7.93633 13.9092C7.86969 14.0141 7.83252 14.1348 7.82891 14.259C7.82529 14.3832 7.85527 14.5062 7.9157 14.6147C7.97613 14.7233 8.06483 14.8136 8.17229 14.876C8.27975 14.9384 8.40205 14.9706 8.52629 14.9692H14.7262C15.1995 14.9669 15.6566 14.7968 16.0163 14.4893C16.2688 14.2586 16.5091 14.0147 16.7363 13.759Z" fill="#D51F11"/>
<path d="M60.0963 18.2791H55.1963C55.0018 18.2817 54.8162 18.361 54.6796 18.4995C54.543 18.638 54.4663 18.8245 54.4663 19.019V39.3792C54.4653 39.5662 54.5038 39.7514 54.5792 39.9226C54.6547 40.0938 54.7653 40.2473 54.9041 40.3728C55.0428 40.4983 55.2064 40.5932 55.3843 40.6511C55.5622 40.7091 55.7504 40.7289 55.9364 40.7092C58.4927 40.453 60.8968 39.3743 62.7877 37.6353C64.6787 35.8962 65.9545 33.5906 66.4234 31.0647C66.8922 28.5388 66.5289 25.929 65.3881 23.6272C64.2472 21.3253 62.3903 19.4556 60.0963 18.2991V18.2791Z" fill="#D51F11"/>
<path d="M6.52641 18.2791H11.4264C11.6227 18.2791 11.8108 18.3571 11.9496 18.4958C12.0884 18.6346 12.1664 18.8228 12.1664 19.019V39.3792C12.166 39.5667 12.1263 39.7521 12.0497 39.9233C11.9732 40.0946 11.8616 40.2477 11.7221 40.373C11.5826 40.4984 11.4183 40.5932 11.2399 40.6511C11.0615 40.709 10.873 40.7288 10.6864 40.7092C8.13018 40.453 5.72598 39.3743 3.835 37.6353C1.94402 35.8962 0.668268 33.5906 0.19938 31.0647C-0.269508 28.5388 0.0937997 25.929 1.23466 23.6272C2.37552 21.3253 4.2324 19.4556 6.52641 18.2991V18.2791Z" fill="#D51F11"/>
<path d="M33.3163 49.539C43.887 49.539 52.4563 40.9698 52.4563 30.399C52.4563 19.8283 43.887 11.259 33.3163 11.259C22.7456 11.259 14.1763 19.8283 14.1763 30.399C14.1763 40.9698 22.7456 49.539 33.3163 49.539Z" fill="#959595"/>
</g>
<defs>
<clipPath id="clip0_107_42">
<rect width="67" height="50" fill="white"/>
</clipPath>
</defs>
</svg>
