<svg width="857" height="550" viewBox="0 0 857 550" fill="none" xmlns="http://www.w3.org/2000/svg">
<g clip-path="url(#clip0_37_1431)">
<mask id="mask0_37_1431" style="mask-type:alpha" maskUnits="userSpaceOnUse" x="-1000" y="5" width="2474" height="441">
<rect x="-1000" y="5" width="2474" height="441" fill="url(#paint0_linear_37_1431)"/>
</mask>
<g mask="url(#mask0_37_1431)">
<path d="M2221.26 296.42H417.873C409.781 294.066 401.489 292.459 393.104 291.619C349.344 286.491 352.688 272.681 300.058 266.17C247.428 259.659 256.284 273.87 226.715 270.318C197.145 266.765 183.624 280.976 165.214 285.703C146.804 290.43 104.1 289.255 92.4056 279.757C66.0312 258.292 44.5 265 25 260.5C23 260 19.5 260.5 17 261C9.77861 262.992 -51.1158 281.258 -84.4442 272.978C-111.903 266.141 -120.777 268.01 -127 269C-139.777 271.032 -139.437 276.13 -165.469 277.914C-191.502 279.697 -227.252 285.941 -264.622 277.319C-297.951 269.619 -287.698 277.705 -307.401 268.043C-313.983 264.818 -338.144 272.889 -361.205 282.001V314.57L-251.041 326.106" fill="#D8D8D8"/>
<path d="M465.793 296.183V310.691H-360.937L-362.17 310.825L-1017.49 307.866L-1008.5 799.373H2221.47V296.183H465.793Z" fill="url(#paint1_radial_37_1431)"/>
<path d="M-23 357L-545.513 310.824L-635.424 307.866L126.343 305.488L-23 357Z" fill="#D8D8D8"/>
<path d="M-696.048 300.166L487.145 298.799V308.625L-687.162 305.206L-696.048 300.166Z" fill="url(#paint2_radial_37_1431)"/>
</g>
</g>
<defs>
<linearGradient id="paint0_linear_37_1431" x1="237" y1="307.631" x2="237" y2="446" gradientUnits="userSpaceOnUse">
<stop stop-color="white"/>
<stop offset="1" stop-color="white" stop-opacity="0"/>
</linearGradient>
<radialGradient id="paint1_radial_37_1431" cx="0" cy="0" r="1" gradientUnits="userSpaceOnUse" gradientTransform="translate(-713.469 351.924) rotate(179.26) scale(628.157 383.331)">
<stop stop-color="#919191"/>
<stop offset="1" stop-color="#D8D8D8"/>
</radialGradient>
<radialGradient id="paint2_radial_37_1431" cx="0" cy="0" r="1" gradientUnits="userSpaceOnUse" gradientTransform="translate(-280.696 301.248) scale(807.602 776.856)">
<stop offset="0.13" stop-color="white"/>
<stop offset="0.21" stop-color="#FCFCFC" stop-opacity="0.94"/>
<stop offset="0.38" stop-color="#F4F4F4" stop-opacity="0.8"/>
<stop offset="0.62" stop-color="#E8E8E8" stop-opacity="0.56"/>
<stop offset="0.88" stop-color="#D8D8D8" stop-opacity="0.25"/>
</radialGradient>
<clipPath id="clip0_37_1431">
<rect width="857" height="550" fill="white"/>
</clipPath>
</defs>
</svg>
