<svg width="1000" height="550" viewBox="0 0 1000 550" fill="none" xmlns="http://www.w3.org/2000/svg">
<g clip-path="url(#clip0_304_10)">
<mask id="mask0_304_10" style="mask-type:luminance" maskUnits="userSpaceOnUse" x="0" y="0" width="1000" height="550">
<path d="M1000 0H0V550H1000V0Z" fill="white"/>
</mask>
<g mask="url(#mask0_304_10)">
<mask id="mask1_304_10" style="mask-type:alpha" maskUnits="userSpaceOnUse" x="0" y="5" width="2474" height="441">
<path d="M2474 5H0V446H2474V5Z" fill="url(#paint0_linear_304_10)"/>
</mask>
<g mask="url(#mask1_304_10)">
<path d="M528.409 216.165V201.3C528.409 201.3 520.133 193.006 513.625 192.708C507.117 192.411 502.094 202.177 502.094 202.177V258.664C502.094 258.664 497.369 253.03 488.201 275.223H481.099C481.099 275.223 480.207 257.772 472.184 257.177C464.16 256.583 461.782 273.157 461.782 273.157C461.782 273.157 461.203 267.211 454.1 262.499V199.189C454.1 199.189 445.185 191.207 429.554 196.826H412.199V215.169C412.199 215.169 403.283 211.914 403.031 220.788C403.031 220.788 406.433 209.164 395.928 215.466H382.332V233.512H376.716V192.099C376.716 192.099 374.338 186.153 336.493 192.099V271.076H265.17V260.432H262.199V288.914H258.425V202.251C258.425 202.251 235.364 170.307 208.157 200.483L204.309 201.969V216.834H200.178V177.784C200.178 177.784 183.625 166.843 163.224 177.784V218.915C163.224 218.915 154.636 218.32 154.309 226.897V234.33H145.2V200.899H139.866V178.705H133.076V200.601H107.905V230.777L105.928 230.866C105.928 230.866 102.882 224.564 97.0126 224.266H64.1747V252.673L59.1525 250.295V227.819L38.4541 218.35C38.4541 218.35 41.1138 192.604 30.4749 193.199C19.836 193.793 11.4705 186.346 11.4705 186.346H-23.6855V309.412C-23.6855 309.412 316.196 309.724 323.58 309.903C528.513 314.63 566.27 310.289 566.27 310.289L528.409 216.165Z" fill="#E5E5E5"/>
<path d="M644.917 260.522H559.553V308.892H644.917V260.522Z" fill="#DFDFDF"/>
<path d="M262.659 310.438V294.087H256.939V199.725C256.939 199.725 234.65 172.21 212.199 197.361V296.851H204.903V217.964H197.801V176.342C192.428 173.672 186.42 172.545 180.445 173.087V295.662H162.704L162.511 218.93C162.511 218.93 156.404 218.93 156.404 221.502V235.697H144.517V200.765H140.966V312.935L262.659 310.438Z" fill="#C5C5C5"/>
<path d="M412.659 311.211V215.556C412.065 213.683 406.136 213.4 405.854 218.112C405.601 222.453 405.958 287.977 405.958 287.977H401.025L401.723 213.816C401.723 213.816 395.78 209.877 388.514 215.6C388.514 215.6 394.13 219.539 388.41 223.687V279.103C388.41 279.103 385.438 286.535 384.472 290.549H373.432L373.09 190.404C373.09 190.404 369.881 189.468 360.965 189.661V311.062L412.659 311.211Z" fill="#C5C5C5"/>
<path d="M325.943 308.253V271.18L278.038 271.329V310.037H325.75L325.943 308.253Z" fill="#C5C5C5"/>
<path d="M62.9565 308.238V255.765L57.8302 252.316L57.429 235.266C57.429 235.266 52.5999 228.265 47.5776 233.289V300.538H39.8807V286.743L34.6653 281.511V194.656C34.6653 194.656 30.7871 190.196 25.1111 195.815L12.1096 186.257L-1.50101 186.45V224.014L1.8571 216.923L-8.79674 220.074V227.507H-11.7685V236.188H-25.3643V265.918H13.6698V308.922L62.9565 308.238Z" fill="#C5C5C5"/>
<path d="M112.05 314.184V269.812L106.924 264.684V234.3C106.924 234.3 100.981 235.326 91.5454 229.96C87.2066 227.507 86.9095 225.5 86.9095 225.5L86.6123 309.219C86.6123 309.219 112.734 313.485 112.05 314.184Z" fill="#C5C5C5"/>
<path d="M518.573 194.18C517.771 193.793 516.731 194.968 517.206 195.666L519.063 198.639C519.15 198.783 519.197 198.947 519.197 199.115V209.119C519.197 209.242 519.222 209.363 519.27 209.476C519.319 209.588 519.39 209.689 519.479 209.773L523.937 213.98C524.023 214.062 524.092 214.161 524.138 214.271C524.184 214.382 524.207 214.5 524.205 214.619V289.984C524.205 290.217 524.112 290.44 523.948 290.604C523.783 290.769 523.56 290.861 523.328 290.861H520.356C520.122 290.861 519.898 290.769 519.731 290.605C519.564 290.441 519.468 290.218 519.465 289.984V276.368C519.465 276.131 519.371 275.904 519.203 275.737C519.036 275.57 518.81 275.476 518.573 275.476H506.017C505.808 275.479 505.605 275.407 505.445 275.274C505.284 275.14 505.176 274.953 505.141 274.747C504.591 271.581 502.273 259.362 499.94 262.469C497.607 265.576 492.986 275.535 491.901 277.929C491.829 278.08 491.715 278.208 491.573 278.297C491.431 278.386 491.267 278.434 491.099 278.434H480.846C480.646 278.435 480.452 278.369 480.295 278.244C480.138 278.12 480.029 277.945 479.985 277.75C479.123 274.079 474.933 257.148 470.965 262.172C467.206 266.943 465.349 275.981 464.873 278.523C464.838 278.727 464.733 278.911 464.575 279.045C464.417 279.178 464.218 279.251 464.011 279.252H461.797C461.561 279.252 461.334 279.158 461.167 278.99C461 278.823 460.906 278.596 460.906 278.36V271.165C460.904 271.014 460.865 270.866 460.792 270.734C460.72 270.602 460.616 270.49 460.49 270.407L451.575 265.011C451.448 264.929 451.343 264.817 451.27 264.685C451.198 264.552 451.159 264.404 451.159 264.253V199.219C451.159 197.316 450.921 196.989 448.647 196.246H448.529C448.321 196.112 446.374 195.607 446.136 195.547C444.981 195.286 443.809 195.102 442.63 194.997C442.27 194.968 441.913 195.081 441.635 195.312C441.358 195.542 441.181 195.872 441.144 196.231V291.783C441.144 292.019 441.05 292.246 440.883 292.413C440.715 292.581 440.489 292.675 440.252 292.675H419.836C419.72 292.673 419.604 292.694 419.496 292.737C419.388 292.78 419.29 292.844 419.207 292.926C419.124 293.008 419.058 293.105 419.013 293.212C418.968 293.32 418.945 293.435 418.945 293.552V298.888C418.945 299.004 418.968 299.12 419.013 299.227C419.058 299.335 419.124 299.432 419.207 299.513C419.29 299.595 419.388 299.659 419.496 299.703C419.604 299.746 419.72 299.767 419.836 299.765H564.71C564.829 299.765 564.946 299.741 565.056 299.694C565.165 299.648 565.264 299.579 565.346 299.493C565.428 299.406 565.492 299.304 565.533 299.193C565.574 299.081 565.592 298.962 565.586 298.844L564.472 266.899C564.464 266.667 564.367 266.448 564.2 266.287C564.034 266.126 563.812 266.037 563.58 266.037H556.151C556.035 266.039 555.919 266.017 555.811 265.974C555.703 265.931 555.605 265.867 555.522 265.785C555.439 265.704 555.373 265.606 555.328 265.499C555.283 265.391 555.259 265.276 555.259 265.16V213.698C555.259 213.461 555.166 213.234 554.998 213.067C554.831 212.9 554.604 212.806 554.368 212.806H528.885C528.725 212.805 528.567 212.763 528.429 212.682C528.291 212.601 528.176 212.484 528.098 212.345L526.389 209.149C526.318 209.027 526.282 208.888 526.285 208.747L526.181 199.398C526.181 199.398 524.695 198.015 523.209 197.049C521.712 196.016 520.165 195.059 518.573 194.18Z" fill="#C5C5C5"/>
<path d="M644.917 302.337V260.522L634.279 260.819V285.673H621.262V260.67L610.029 260.522V287.739H587.845V278.568H577.206V302.247L644.917 302.337Z" fill="#C5C5C5"/>
<path d="M1465.79 296.183V310.691H639.062L637.83 310.825L-17.4893 307.866L-8.49964 799.373H3221.47V296.183H1465.79Z" fill="url(#paint1_radial_304_10)"/>
<path d="M977 357L454.487 310.824L364.576 307.866L1126.34 305.488L977 357Z" fill="#D8D8D8"/>
<path d="M687.117 102.939L404.799 247.322L400.46 245.731L655.571 103.727L687.117 102.939Z" fill="white"/>
<path d="M367.741 269.812C367.741 269.812 466.507 223.255 467.503 223.062C468.499 222.869 479.123 223.255 479.123 223.255L370.891 269.812H367.741Z" fill="white"/>
<path d="M301.5 294.845L319.435 276.903H325.349L304.249 294.458L301.5 294.845Z" fill="white"/>
<path d="M68.6631 244.75L258.915 297.401L79.3169 245.345L68.6631 244.75Z" fill="white"/>
<path d="M115.394 243.769L274.487 304.313L97.8457 225.218H78.5293L116.969 242.193L115.394 243.769Z" fill="white"/>
<path d="M280.787 301.742L180.252 257.564L185.572 257.965L209.42 268.608L208.633 266.839L131.56 228.77L141.605 228.577L280.787 301.742Z" fill="white"/>
<path d="M239.985 272.756L234.264 273.35L136.092 215.764L147.727 215.957L239.985 272.756Z" fill="white"/>
<path d="M245.304 265.858L199.375 226.213H206.27L247.667 265.858H245.304Z" fill="white"/>
<path d="M284.145 495.431L279.42 362.495H272.318L259.703 495.565L284.145 495.431Z" fill="#C7C7C7"/>
<path d="M273.789 344.538H278.529L278.38 314.674L275.572 314.808L273.789 344.538Z" fill="#C7C7C7"/>
<path d="M166.151 358.154H157.875L-68.3506 473.535L-24.2942 464.066L166.151 358.154Z" fill="#C7C7C7"/>
<path d="M197.503 333.597L100.802 380.645H88.6768L193.655 333.895L197.503 333.597Z" fill="#C7C7C7"/>
<path d="M245.26 326.358H241.188L259.747 309.338H261.604L245.26 326.358Z" fill="#C7C7C7"/>
<path d="M336.805 376.601L452.704 523.228L476.359 523.823L303.075 330.937H300.713L336.805 376.601Z" fill="white"/>
<path d="M332.912 324.916L324.948 320.873H319.034L326.463 324.916H332.912Z" fill="white"/>
<path d="M341.263 329.168L334.264 325.615H327.726L334.249 329.168H341.263Z" fill="white"/>
<path d="M350.579 333.895L343.982 330.55H336.775L342.942 333.895H350.579Z" fill="white"/>
<path d="M418.201 388.523H431.025L333.833 331.338H327.919L418.201 388.523Z" fill="#C7C7C7"/>
<path d="M363.982 340.405L355.824 336.258H347.875L355.483 340.405H363.982Z" fill="white"/>
<path d="M379.301 348.492L368.811 343.17H359.955L369.732 348.492H379.301Z" fill="white"/>
<path d="M397.548 357.768L386.671 352.238H376.612L386.746 357.768H397.548Z" fill="white"/>
<path d="M426.27 372.35L408.796 363.476H397.251L413.536 372.35H426.27Z" fill="white"/>
<path d="M474.799 397.011L441.025 379.857H427.295L458.796 397.011H474.799Z" fill="white"/>
<path d="M586.983 454.003L500.415 410.018H482.704L563.447 454.003H586.983Z" fill="white"/>
<path d="M358.662 377.88H367.934L322.986 338.042H319.435L358.662 377.88Z" fill="#C7C7C7"/>
<path d="M217.31 322.657L-25.7651 378.266L-26.3594 369.986L196.612 321.468L217.31 322.657Z" fill="white"/>
<path d="M468.276 378.861H489.762L450.936 363.283H460.193L312.139 309.635H306.419L468.276 378.861Z" fill="#C7C7C7"/>
<path d="M491.931 359.536H501.01L324.16 309.828H320.624L491.931 359.536Z" fill="#C7C7C7"/>
<path d="M870.058 484.387H904.367L487.206 361.306H479.316L870.058 484.387Z" fill="#C7C7C7"/>
<path d="M972 450.5H993.887L569.806 356.965H563.298L972 450.5Z" fill="#EBEBEB"/>
<path d="M86.0178 241.599L75.9584 242.193L-27.251 213.192V206.384L86.0178 241.599Z" fill="white"/>
<path d="M25.0967 243.368L25.3939 246.92L157.578 275.61L94.2943 263.777V265.858L204.012 286.565L25.0967 243.368Z" fill="white"/>
<path d="M3.20967 243.962L-2.10979 245.731L-26.3594 242.193L-25.4679 240.409L-22.511 239.235L3.20967 243.962Z" fill="white"/>
<path d="M319.435 269.411L365.958 212.597H353.937L313.714 269.203L319.435 269.411Z" fill="white"/>
<path d="M249.078 327.28L252.615 323.236H258.781L255.483 327.28H249.078Z" fill="white"/>
<path d="M245.364 331.516L248.469 327.963H254.918L252.035 331.516H245.364Z" fill="white"/>
<path d="M241.233 336.258L244.16 332.898H250.906L248.172 336.258H241.233Z" fill="white"/>
<path d="M235.275 342.769L238.9 338.622H245.973L242.6 342.769H235.275Z" fill="white"/>
<path d="M227.875 350.84L232.526 345.519H240.609L236.27 350.84H227.875Z" fill="white"/>
<path d="M219.762 360.116L224.591 354.602H233.804L229.301 360.116H219.762Z" fill="white"/>
<path d="M207.013 374.713L214.769 365.839H224.636L217.399 374.713H207.013Z" fill="white"/>
<path d="M186.047 399.359L201.04 382.205H212.466L198.469 399.359H186.047Z" fill="white"/>
<path d="M137.385 456.366L175.839 412.381H189.628L153.759 456.366H137.385Z" fill="white"/>
<path d="M30.3417 124.687H5.69095C4.4518 124.687 3.44727 125.691 3.44727 126.931C3.44727 128.171 4.4518 129.176 5.69095 129.176H30.3417C31.5809 129.176 32.5854 128.171 32.5854 126.931C32.5854 125.691 31.5809 124.687 30.3417 124.687Z" fill="#C0C0C0"/>
<path d="M30.4453 17.6892H5.79446C4.55531 17.6892 3.55078 18.6941 3.55078 19.9338C3.55078 21.1735 4.55531 22.1784 5.79446 22.1784H30.4453C31.6844 22.1784 32.689 21.1735 32.689 19.9338C32.689 18.6941 31.6844 17.6892 30.4453 17.6892Z" fill="#C0C0C0"/>
<path d="M493.506 9.06738H13.6553V126.619H493.506V9.06738Z" fill="#8B8B8B"/>
<path d="M29.8365 328.38V110.639H16.627V331.338C16.627 331.338 29.3016 328.38 29.8365 328.38Z" fill="#979797"/>
<path d="M482.466 5.21753H340.445C328.136 5.21753 318.157 15.2004 318.157 27.5148V99.1783C318.157 111.493 328.136 121.476 340.445 121.476H482.466C494.776 121.476 504.754 111.493 504.754 99.1783V27.5148C504.754 15.2004 494.776 5.21753 482.466 5.21753Z" fill="#AEAEAE"/>
<path d="M480.683 7.12036H343.135C330.825 7.12036 320.846 17.1032 320.846 29.4177V96.8596C320.846 109.174 330.825 119.157 343.135 119.157H480.683C492.992 119.157 502.971 109.174 502.971 96.8596V29.4177C502.971 17.1032 492.992 7.12036 480.683 7.12036Z" fill="#949494"/>
<path d="M293.789 5.21753H31.1144C18.805 5.21753 8.82617 15.2004 8.82617 27.5148V99.1783C8.82617 111.493 18.805 121.476 31.1144 121.476H293.789C306.098 121.476 316.077 111.493 316.077 99.1783V27.5148C316.077 15.2004 306.098 5.21753 293.789 5.21753Z" fill="#AEAEAE"/>
<path d="M291.13 8.01221H35.8546C23.5452 8.01221 13.5664 17.995 13.5664 30.3095V97.7514C13.5664 110.066 23.5452 120.049 35.8546 120.049H291.13C303.439 120.049 313.418 110.066 313.418 97.7514V30.3095C313.418 17.995 303.439 8.01221 291.13 8.01221Z" fill="#949494"/>
<path d="M17.7115 334.043V18.4769C17.7115 18.2539 17.34 11.0444 14.3534 11.0444C11.9017 11.1485 11.5005 18.1052 11.5302 17.912C11.5599 17.7188 11.5302 18.1647 11.5302 18.2985V333.434C11.5015 333.895 11.6341 334.352 11.9052 334.726C12.1763 335.1 12.569 335.369 13.0161 335.485L15.7799 336.02C16.0397 336.029 16.2985 335.983 16.5397 335.886C16.781 335.789 16.9994 335.643 17.1811 335.457C17.3628 335.271 17.5039 335.05 17.5952 334.806C17.6865 334.563 17.7261 334.303 17.7115 334.043Z" fill="#FCFCFC"/>
<path d="M490.861 7.1499H26.1221C25.7803 7.1499 15.0671 7.50677 15.2454 10.4203C15.394 12.8135 25.6467 13.2149 25.3495 13.1851H25.914H490.074C491.56 13.1851 494.16 12.5905 494.204 10.2122C494.249 7.83377 492.733 7.1499 490.861 7.1499Z" fill="#FCFCFC"/>
<path d="M488.589 123.26H27.1625C24.0606 123.26 21.5459 125.775 21.5459 128.878C21.5459 131.982 24.0606 134.497 27.1625 134.497H488.589C491.691 134.497 494.205 131.982 494.205 128.878C494.205 125.775 491.691 123.26 488.589 123.26Z" fill="#C0C0C0"/>
<path d="M59.4945 141.053C64.9927 141.053 69.4499 136.627 69.4499 131.168C69.4499 125.708 64.9927 121.282 59.4945 121.282C53.9963 121.282 49.5391 125.708 49.5391 131.168C49.5391 136.627 53.9963 141.053 59.4945 141.053Z" fill="#9B9B9B"/>
<path d="M56.1991 138.522C59.2672 138.065 61.3322 134.857 60.8112 131.358C60.2903 127.858 57.3807 125.391 54.3125 125.848C51.2444 126.305 49.1795 129.513 49.7005 133.013C50.2214 136.513 53.1309 138.979 56.1991 138.522Z" fill="#DEDEDE"/>
<path d="M54.2646 138.318C54.2646 138.318 58.6331 141.097 62.4816 139.328C63.3582 138.927 63.5217 136.177 60.9957 135.627C59.7334 135.328 58.4094 135.425 57.2046 135.907C55.9999 136.388 54.9731 137.23 54.2646 138.318Z" fill="#DEDEDE"/>
<path d="M54.8145 123.512C54.8145 123.512 60.1934 123.274 62.2439 126.485L65.6318 122.159C65.6318 122.159 62.4817 117.7 58.2024 119.186L54.8145 123.512Z" fill="#9B9B9B"/>
<path d="M55.1113 123.215C55.1113 123.215 59.6581 123.022 61.4263 125.682L64.2792 122.041C64.2792 122.041 61.6195 118.28 58.0682 119.469L55.1113 123.215Z" fill="#B2B2B2"/>
<path d="M165.765 141.647C171.263 141.647 175.72 137.222 175.72 131.762C175.72 126.303 171.263 121.877 165.765 121.877C160.267 121.877 155.81 126.303 155.81 131.762C155.81 137.222 160.267 141.647 165.765 141.647Z" fill="#9B9B9B"/>
<path d="M162.453 139.121C165.521 138.664 167.586 135.456 167.065 131.956C166.544 128.456 163.634 125.99 160.566 126.447C157.498 126.904 155.433 130.112 155.954 133.611C156.475 137.111 159.385 139.578 162.453 139.121Z" fill="#DEDEDE"/>
<path d="M160.535 138.912C160.535 138.912 164.889 141.692 168.737 139.923C169.629 139.522 169.792 136.757 167.251 136.222C165.991 135.926 164.67 136.025 163.468 136.506C162.267 136.988 161.242 137.828 160.535 138.912Z" fill="#DEDEDE"/>
<path d="M161.084 124.107C161.084 124.107 166.463 123.869 168.514 127.08L171.902 122.754C171.902 122.754 168.752 118.295 164.472 119.781L161.084 124.107Z" fill="#9B9B9B"/>
<path d="M161.382 123.809C161.382 123.809 165.914 123.616 167.682 126.277L170.55 122.62C170.55 122.62 167.89 118.874 164.339 120.064L161.382 123.809Z" fill="#B2B2B2"/>
<path d="M271.619 141.647C277.118 141.647 281.575 137.222 281.575 131.762C281.575 126.303 277.118 121.877 271.619 121.877C266.121 121.877 261.664 126.303 261.664 131.762C261.664 137.222 266.121 141.647 271.619 141.647Z" fill="#9B9B9B"/>
<path d="M268.326 139.114C271.395 138.657 273.459 135.449 272.939 131.95C272.418 128.45 269.508 125.983 266.44 126.44C263.372 126.898 261.307 130.105 261.828 133.605C262.349 137.105 265.258 139.571 268.326 139.114Z" fill="#DEDEDE"/>
<path d="M266.389 138.912C266.389 138.912 270.758 141.692 274.606 139.923C275.483 139.522 275.661 136.757 273.12 136.222C271.858 135.927 270.535 136.026 269.332 136.508C268.128 136.989 267.101 137.828 266.389 138.912Z" fill="#DEDEDE"/>
<path d="M266.954 124.107C266.954 124.107 272.333 123.869 274.383 127.08L277.771 122.754C277.771 122.754 274.621 118.295 270.341 119.781L266.954 124.107Z" fill="#9B9B9B"/>
<path d="M267.251 123.809C267.251 123.809 271.783 123.616 273.551 126.277L276.419 122.62C276.419 122.62 273.759 118.874 270.208 120.064L267.251 123.809Z" fill="#B2B2B2"/>
<path d="M358.766 141.454C364.265 141.454 368.722 137.028 368.722 131.569C368.722 126.11 364.265 121.684 358.766 121.684C353.268 121.684 348.811 126.11 348.811 131.569C348.811 137.028 353.268 141.454 358.766 141.454Z" fill="#9B9B9B"/>
<path d="M355.46 138.925C358.528 138.468 360.593 135.26 360.072 131.76C359.551 128.261 356.642 125.794 353.574 126.251C350.506 126.708 348.441 129.916 348.962 133.416C349.483 136.915 352.392 139.382 355.46 138.925Z" fill="#DEDEDE"/>
<path d="M353.536 138.779C353.536 138.779 357.89 141.543 361.738 139.789C362.63 139.388 362.793 136.623 360.252 136.088C358.992 135.792 357.671 135.891 356.47 136.373C355.268 136.854 354.244 137.694 353.536 138.779Z" fill="#DEDEDE"/>
<path d="M354.086 123.914C354.086 123.914 359.465 123.691 361.515 126.886L364.918 122.561C364.918 122.561 361.753 118.101 357.489 119.588L354.086 123.914Z" fill="#9B9B9B"/>
<path d="M354.383 123.616C354.383 123.616 358.915 123.408 360.698 126.084L363.625 122.427C363.625 122.427 360.965 118.681 357.414 119.87L354.383 123.616Z" fill="#B2B2B2"/>
<path d="M456.745 141.261C462.244 141.261 466.701 136.835 466.701 131.376C466.701 125.916 462.244 121.49 456.745 121.49C451.247 121.49 446.79 125.916 446.79 131.376C446.79 136.835 451.247 141.261 456.745 141.261Z" fill="#9B9B9B"/>
<path d="M453.44 138.716C456.508 138.258 458.573 135.051 458.052 131.551C457.531 128.051 454.621 125.585 451.553 126.042C448.485 126.499 446.42 129.706 446.941 133.206C447.462 136.706 450.371 139.173 453.44 138.716Z" fill="#DEDEDE"/>
<path d="M451.515 138.511C451.515 138.511 455.869 141.291 459.732 139.522C460.609 139.12 460.772 136.37 458.246 135.82C456.984 135.525 455.661 135.625 454.458 136.106C453.254 136.587 452.227 137.427 451.515 138.511Z" fill="#DEDEDE"/>
<path d="M452.065 123.705C452.065 123.705 457.444 123.468 459.494 126.678L462.882 122.353C462.882 122.353 459.717 117.893 455.453 119.305L452.065 123.705Z" fill="#9B9B9B"/>
<path d="M452.362 123.408C452.362 123.408 456.82 123.215 458.677 125.876L461.53 122.234C461.53 122.234 458.87 118.488 455.319 119.662L452.362 123.408Z" fill="#B2B2B2"/>
<path d="M990 366.5L988.811 358.815L445.602 308.446L448.558 312.593L990 366.5Z" fill="#A7A7A7"/>
<path d="M988.628 359.195L487.25 312.697L990.5 352" fill="white"/>
<path d="M-24.19 335.871L222.838 308.446L-36.0176 308.847L-24.19 335.871Z" fill="#D3D3D3"/>
<path d="M-15.721 338.235L230.133 312.593V307.658L-15.9141 331.531L-15.721 338.235Z" fill="#979797"/>
<path d="M-16.4937 311.806L186.552 310.037V304.908L-18.6631 306.677L-16.4937 311.806Z" fill="white"/>
<path d="M303.952 300.166L1487.15 298.799V308.625H313.5L303.952 300.166Z" fill="url(#paint2_radial_304_10)"/>
<path d="M100.862 67.0108V56.9473H96.5232V66.9959L83.7148 64.2756L98.5291 78.2932L114.101 64.3946L100.862 67.0108Z" fill="#C2C2C2"/>
<path d="M243.997 67.3081V57.2446H239.643V67.2933L226.85 64.573L241.664 78.5906L257.236 64.6919L243.997 67.3081Z" fill="#C2C2C2"/>
<path d="M427.875 32.7623C427.817 32.6832 427.735 32.6247 427.642 32.5952C427.548 32.5657 427.448 32.5666 427.355 32.5981C427.262 32.6296 427.182 32.69 427.126 32.7703C427.069 32.8506 427.04 32.9466 427.043 33.0446C427.043 34.0434 426.647 35.0015 425.942 35.7091C425.238 36.4168 424.282 36.8164 423.283 36.8204H406.716C406.098 36.8192 405.493 36.646 404.968 36.3205C404.444 35.9949 404.02 35.5299 403.744 34.9771C403.731 34.9083 403.731 34.8378 403.744 34.769V34.5758H403.15V35.2297C403.164 35.3034 403.164 35.3791 403.15 35.4527C402.872 36 402.447 36.4578 401.921 36.7734C401.395 37.089 400.791 37.2494 400.178 37.2365H383.833C382.853 37.2325 381.914 36.8414 381.221 36.1481C380.528 35.4548 380.137 34.5156 380.133 33.5351C380.135 33.4371 380.106 33.341 380.05 33.2608C379.994 33.1805 379.913 33.1202 379.821 33.0887C379.728 33.0572 379.628 33.0561 379.534 33.0857C379.441 33.1152 379.359 33.1737 379.301 33.2528C373.358 40.7744 369.138 51.5515 369.836 66.3866C370.891 88.6839 393.254 101.943 403.179 102.806C412.927 102.419 436.522 89.5015 437.622 66.3866C438.201 51.3731 433.848 40.4028 427.875 32.7623Z" fill="#E1E1E1"/>
<path d="M371.649 66.3864C372.644 87.554 393.729 100.144 403.09 100.977C412.273 100.605 434.546 88.3418 435.571 66.3864C435.863 60.9961 435.362 55.5921 434.086 50.3472H373.164C371.868 55.589 371.357 60.9944 371.649 66.3864Z" fill="#B5B5B5"/>
<path d="M377.563 38.9458C375.767 42.1876 374.403 45.6509 373.506 49.2472H433.699C432.816 45.66 431.483 42.1987 429.732 38.9458H377.563Z" fill="#B5B5B5"/>
<path d="M388.187 76.6878C388.986 76.7277 389.787 76.693 390.579 76.5838C392.27 76.4054 393.866 75.7156 395.155 74.6066C396.75 73.2116 397.78 71.2824 398.053 69.1811H397.949C397.305 69.9021 396.51 70.4727 395.622 70.8529C394.734 71.233 393.774 71.4134 392.808 71.3811C391.964 71.4285 391.12 71.3006 390.328 71.0057C389.536 70.7107 388.814 70.2551 388.207 69.6672C387.6 69.0794 387.12 68.3722 386.799 67.5901C386.479 66.808 386.324 65.9679 386.344 65.1229C386.342 64.1545 386.534 63.1955 386.909 62.3027C387.283 61.4098 387.833 60.6013 388.526 59.9249C389.219 59.2485 390.039 58.7179 390.941 58.3647C391.842 58.0116 392.805 57.8429 393.773 57.8688C398.23 57.8688 401.01 61.2729 401.01 66.4756C401.101 68.2484 400.811 70.02 400.16 71.6712C399.509 73.3225 398.512 74.8152 397.236 76.0487C395.455 77.6048 393.23 78.5615 390.876 78.7838C389.972 78.9242 389.057 78.979 388.142 78.9472L388.187 76.6878ZM389.271 64.9445C389.231 65.5128 389.31 66.0831 389.506 66.6182C389.701 67.1533 390.009 67.6411 390.406 68.0496C390.803 68.458 391.281 68.7779 391.811 68.9882C392.34 69.1986 392.907 69.2947 393.476 69.2702C394.315 69.307 395.15 69.1315 395.903 68.76C396.657 68.3884 397.304 67.8329 397.786 67.1446C397.974 66.842 398.067 66.4898 398.053 66.1337C398.053 62.6405 396.671 59.9797 393.595 59.9797C391.054 59.9945 389.271 62.0458 389.271 64.9445Z" fill="#DFDFDF"/>
<path d="M420.861 68.1999C420.861 75.1566 417.994 79.0067 412.971 79.0067C408.514 79.0067 405.542 75.2606 405.453 68.4822C405.364 61.7038 408.737 57.8242 413.358 57.8242C417.979 57.8242 420.861 61.6742 420.861 68.1999ZM408.529 68.512C408.529 73.8336 410.356 76.866 413.15 76.866C416.285 76.866 417.786 73.5512 417.786 68.3187C417.786 63.0863 416.3 59.9647 413.179 59.9647C410.49 59.9944 408.529 62.9674 408.529 68.512Z" fill="#DFDFDF"/>
</g>
</g>
</g>
<defs>
<linearGradient id="paint0_linear_304_10" x1="1237" y1="307.631" x2="1237" y2="446" gradientUnits="userSpaceOnUse">
<stop stop-color="white"/>
<stop offset="1" stop-color="white" stop-opacity="0"/>
</linearGradient>
<radialGradient id="paint1_radial_304_10" cx="0" cy="0" r="1" gradientUnits="userSpaceOnUse" gradientTransform="translate(286.531 351.924) rotate(179.26) scale(628.157 383.331)">
<stop stop-color="#919191"/>
<stop offset="1" stop-color="#D8D8D8"/>
</radialGradient>
<radialGradient id="paint2_radial_304_10" cx="0" cy="0" r="1" gradientUnits="userSpaceOnUse" gradientTransform="translate(719.304 301.248) scale(807.602 776.855)">
<stop offset="0.13" stop-color="white"/>
<stop offset="0.21" stop-color="#FCFCFC" stop-opacity="0.94"/>
<stop offset="0.38" stop-color="#F4F4F4" stop-opacity="0.8"/>
<stop offset="0.62" stop-color="#E8E8E8" stop-opacity="0.56"/>
<stop offset="0.88" stop-color="#D8D8D8" stop-opacity="0.25"/>
</radialGradient>
<clipPath id="clip0_304_10">
<rect width="1000" height="550" fill="white"/>
</clipPath>
</defs>
</svg>
