<svg width="62" height="61" viewBox="0 0 62 61" fill="none" xmlns="http://www.w3.org/2000/svg">
<path d="M52.17 9.15001C47.2083 4.20007 40.6842 1.12321 33.7086 0.443485C26.7331 -0.236242 19.7377 1.5232 13.9137 5.42214C8.08982 9.32108 3.7976 15.1184 1.76813 21.8267C-0.261338 28.535 0.0974524 35.7393 2.7834 42.2128C5.46936 48.6862 10.3164 54.0284 16.4989 57.3294C22.6814 60.6304 29.817 61.686 36.6905 60.3166C43.5639 58.9472 49.7501 55.2373 54.1954 49.8189C58.6407 44.4004 61.0701 37.6086 61.07 30.6C61.0748 26.6143 60.2909 22.667 58.7634 18.9856C57.236 15.3042 54.9951 11.9615 52.17 9.15001ZM39.17 18.68H35.17C33.76 18.68 33.46 19.26 33.46 20.68V24.21H39.16L38.61 30.4H33.52V48.9H26.14V30.52H22.29V24.25H26.14V19.32C26.14 14.69 28.62 12.27 34.14 12.27H39.25L39.17 18.68Z" fill="white"/>
</svg>
