<svg width="45" height="33" viewBox="0 0 45 33" fill="none" xmlns="http://www.w3.org/2000/svg">
<path d="M31.85 0.530042C28.8266 0.855141 25.8224 1.33916 22.85 1.98005C15.76 3.37005 13.5 3.67006 10.04 3.67006C7.35679 3.74422 4.68092 3.35516 2.12995 2.52003C1.71835 2.37236 1.29745 2.25212 0.86997 2.16005C0.72997 2.16005 0.709956 3.56005 0.729956 9.88005V17.62L1.98997 18.03C5.15724 19.0492 8.4924 19.4432 11.81 19.19C15.4781 18.9248 19.1194 18.3697 22.7 17.53C33.75 15.37 37.46 15.36 44 17.53C44.2 17.6 44.2299 17.53 44.1899 16.53V15.43L43.56 15.19C41.9345 14.6344 40.2605 14.2326 38.56 13.99C37.0866 13.8179 35.6013 13.7711 34.12 13.85C31.0417 13.9212 27.9774 14.2896 24.97 14.9501C23.89 15.1501 22.97 15.33 22.86 15.33C22.75 15.33 22.6899 15.04 22.6899 14.27C22.6899 13.5 22.69 13.2 22.92 13.13C25.9299 12.4915 28.9705 12.0075 32.03 11.68C36.1192 11.2562 40.2514 11.7586 44.12 13.15C44.25 13.15 44.28 12.97 44.25 12.1V10.9801L42.86 10.5101C38.19 8.96005 33.26 8.94005 25.17 10.5101C23.91 10.7501 22.84 10.94 22.8 10.94C22.7568 10.578 22.7568 10.2121 22.8 9.85005V8.75004L23.93 8.52003C33.12 6.65003 39.1299 6.71005 44.0999 8.73005C44.2899 8.81005 44.32 8.73005 44.32 7.73005C44.32 6.73005 44.32 6.64004 43.97 6.47004C41.7428 5.63384 39.4041 5.13175 37.03 4.98005C32.9048 4.83529 28.778 5.21838 24.75 6.12004C24.1185 6.28216 23.4715 6.37603 22.82 6.40004C22.7398 6.03914 22.7195 5.66751 22.76 5.30003V4.30003L24.76 3.89003C27.813 3.21484 30.9241 2.83644 34.05 2.76005C37.0159 2.56719 39.9915 2.93702 42.82 3.85005C43.2323 4.01078 43.6571 4.13787 44.09 4.23005C44.32 4.23005 44.32 2.30003 44.09 2.11003C42.853 1.60746 41.5704 1.2257 40.26 0.970044C37.4916 0.425739 34.66 0.277589 31.85 0.530042ZM21.27 3.53004C21.5 3.53004 21.51 3.53004 21.36 3.75004C21.2603 3.87814 21.2106 4.03805 21.22 4.20006C21.22 4.39006 21.22 4.43004 21.04 4.37004C20.9577 4.35283 20.8724 4.35665 20.792 4.38112C20.7116 4.40559 20.6387 4.44994 20.58 4.51005C20.33 4.73005 20.33 4.72004 20.4 4.43004C20.431 4.3521 20.4361 4.26623 20.4145 4.18516C20.3929 4.1041 20.3457 4.03218 20.28 3.98005C20.09 3.84005 20.09 3.81003 20.34 3.74003C20.4961 3.66592 20.6203 3.53816 20.6899 3.38005C20.7699 3.14005 20.78 3.14005 20.89 3.32005C20.9311 3.38363 20.9873 3.43606 21.0536 3.4727C21.1199 3.50933 21.1942 3.52903 21.27 3.53004ZM2.69996 3.72004C2.71626 3.79937 2.75367 3.87282 2.80823 3.93266C2.86279 3.9925 2.93247 4.0365 3.00995 4.06004C3.28995 4.19004 3.30996 4.23003 3.13996 4.33003C2.96996 4.43003 2.95996 4.52003 3.01996 4.71003C3.07996 4.90003 3.09996 4.97003 2.85996 4.77003C2.79307 4.70618 2.71186 4.65925 2.62314 4.63316C2.53443 4.60707 2.44076 4.60257 2.34995 4.62004C2.12995 4.68004 2.08997 4.62004 2.14997 4.43004C2.16659 4.34903 2.16626 4.26546 2.14905 4.18458C2.13184 4.1037 2.09812 4.02726 2.04996 3.96003C1.89996 3.77003 1.90996 3.76004 2.16996 3.84004C2.42996 3.92004 2.43995 3.84003 2.43995 3.74003C2.43995 3.64003 2.50995 3.53004 2.56995 3.53004C2.62995 3.53004 2.69996 3.60006 2.69996 3.70006V3.72004ZM17.61 4.25004C17.74 4.25004 17.84 4.25003 17.84 4.30003C17.8387 4.31712 17.8341 4.33381 17.8263 4.3491C17.8186 4.3644 17.8079 4.37802 17.7949 4.38917C17.7819 4.40032 17.7668 4.40877 17.7505 4.41407C17.7342 4.41937 17.717 4.42142 17.7 4.42006C17.61 4.42006 17.57 4.57004 17.61 4.78004C17.65 4.99004 17.61 5.15005 17.42 5.04005C17.23 4.93005 17.12 4.96003 16.93 5.14003C16.74 5.32003 16.67 5.36005 16.74 5.04005C16.81 4.72005 16.74 4.67003 16.6 4.61003C16.46 4.55003 16.43 4.51004 16.68 4.40004C16.8528 4.32479 16.9892 4.18478 17.06 4.01005L17.12 3.74003L17.26 4.03004C17.33 4.19004 17.46 4.27005 17.61 4.23005V4.25004ZM6.38996 4.54005C6.40903 4.62122 6.45724 4.69252 6.52546 4.74046C6.59367 4.7884 6.67713 4.8096 6.75995 4.80003C7.03995 4.80003 7.03995 4.80005 6.81995 4.98005C6.74619 5.02561 6.69078 5.0956 6.66337 5.17784C6.63595 5.26008 6.63828 5.34934 6.66996 5.43004C6.74996 5.68004 6.72997 5.69003 6.48997 5.55003C6.3304 5.47728 6.15205 5.45631 5.97996 5.49003C5.78996 5.55003 5.75997 5.49003 5.80997 5.30003C5.83625 5.21935 5.83476 5.13221 5.80576 5.05247C5.77676 4.97273 5.72193 4.90498 5.64997 4.86003C5.41997 4.68003 5.42995 4.68006 5.75995 4.67006C6.08995 4.66006 6.09995 4.61005 6.09995 4.48005C6.09995 4.18005 6.32996 4.23004 6.38996 4.53004V4.54005ZM13.96 4.80003C14.17 4.80003 14.18 4.80005 14.05 4.98005C14.0057 5.04525 13.9749 5.11865 13.9594 5.19594C13.944 5.27322 13.9441 5.35282 13.96 5.43004C14.02 5.64004 13.96 5.65005 13.78 5.54005C13.6 5.43005 13.4899 5.44005 13.3799 5.54005C13.2699 5.64005 13.02 5.70005 13.11 5.44005C13.1376 5.36947 13.1375 5.29106 13.1096 5.22056C13.0818 5.15007 13.0283 5.09272 12.96 5.06004C12.75 4.95004 12.77 4.92004 13.08 4.81004C13.39 4.70004 13.42 4.58006 13.43 4.45006C13.44 4.32006 13.43 4.28005 13.57 4.51005C13.6089 4.58276 13.6646 4.64514 13.7324 4.69209C13.8002 4.73904 13.8782 4.76919 13.96 4.78004V4.80003ZM10.01 4.73005C10.01 4.86005 10.14 4.92006 10.36 4.92006C10.58 4.92006 10.67 4.92005 10.47 5.16005C10.4023 5.22631 10.3536 5.30947 10.329 5.40092C10.3044 5.49237 10.3047 5.58876 10.33 5.68004C10.41 5.92004 10.39 5.93004 10.15 5.78004C10.0759 5.71732 9.982 5.6829 9.88495 5.6829C9.78791 5.6829 9.69402 5.71732 9.61997 5.78004C9.37997 5.93004 9.36996 5.92004 9.44996 5.68004C9.47521 5.58876 9.47555 5.49237 9.45093 5.40092C9.42631 5.30947 9.37764 5.22631 9.30997 5.16005C9.10997 4.93005 9.10996 4.92006 9.41996 4.92006C9.72996 4.92006 9.75995 4.86005 9.75995 4.73005C9.75995 4.60005 9.82996 4.54005 9.88996 4.54005C9.94996 4.54005 10.01 4.61003 10.01 4.71003V4.73005ZM19.14 5.35005C19.19 5.46005 19.32 5.50003 19.51 5.46003C19.7 5.42003 19.8 5.39004 19.56 5.65004C19.4977 5.70987 19.4506 5.78377 19.4227 5.86555C19.3949 5.94733 19.3871 6.03461 19.4 6.12004C19.47 6.28004 19.4 6.31004 19.21 6.25004C19.1217 6.22752 19.029 6.22858 18.9412 6.25316C18.8535 6.27773 18.7737 6.32493 18.71 6.39003C18.46 6.61003 18.46 6.61004 18.53 6.28004C18.6 5.95004 18.5299 5.92003 18.4099 5.83003C18.2899 5.74003 18.23 5.70005 18.52 5.63005C18.81 5.56005 18.85 5.46003 18.85 5.36003C18.85 5.26003 19.05 5.10003 19.14 5.33003V5.35005ZM4.84995 6.06004C5.12995 6.06004 5.16996 6.25005 4.91996 6.35005C4.66996 6.45005 4.75996 6.52003 4.79996 6.71003C4.83996 6.90003 4.86996 6.99005 4.63996 6.79005C4.40996 6.59005 4.34995 6.61003 4.15995 6.71003C3.96995 6.81003 3.92998 6.81003 3.99998 6.55003C4.02397 6.46175 4.02554 6.36888 4.00458 6.27983C3.98363 6.19078 3.94079 6.10837 3.87995 6.04005C3.68995 5.84005 3.69997 5.83003 3.92997 5.89003C4.15997 5.95003 4.20995 5.89004 4.28995 5.65004L4.36997 5.36003L4.48997 5.70006C4.55997 5.91006 4.69995 6.04005 4.84995 6.04005V6.06004ZM15.78 6.06004C16.1 6.06004 16.1 6.06003 15.9 6.30003C15.8408 6.35497 15.7975 6.42483 15.7747 6.50224C15.7518 6.57965 15.7502 6.66177 15.77 6.74003C15.83 6.92003 15.77 6.94005 15.53 6.88005C15.29 6.82005 15.18 6.88004 15.14 6.93004C14.99 7.17004 14.84 7.08005 14.9 6.82005C14.9243 6.73675 14.9208 6.6478 14.8902 6.56663C14.8595 6.48546 14.8033 6.41646 14.73 6.37004C14.51 6.20004 14.51 6.20004 14.82 6.18004C14.915 6.19516 15.0123 6.17362 15.0921 6.11979C15.172 6.06596 15.2284 5.98384 15.25 5.89003C15.33 5.65003 15.35 5.65003 15.4 5.83003C15.4318 5.90162 15.4862 5.96086 15.5548 5.99876C15.6233 6.03666 15.7024 6.05117 15.78 6.04005V6.06004ZM8.50995 6.55003C8.76995 6.64003 8.76996 6.65005 8.57996 6.73005C8.38996 6.81005 8.38995 6.89005 8.43995 7.07005C8.48995 7.25005 8.31997 7.42005 8.17997 7.19005C8.03997 6.96005 8.01996 7.12005 7.85996 7.19005C7.69996 7.26005 7.59996 7.29005 7.63996 7.07005C7.64799 6.99103 7.63972 6.91121 7.61564 6.83552C7.59155 6.75984 7.55219 6.68989 7.49998 6.63005C7.34998 6.44005 7.35997 6.42006 7.58997 6.42006C7.67046 6.41651 7.74773 6.38747 7.81064 6.33714C7.87356 6.28681 7.91882 6.21777 7.93995 6.14003L8.02997 5.85005L8.12995 6.14003C8.21042 6.30818 8.34395 6.44523 8.50995 6.53004V6.55003ZM12.17 6.44005C12.44 6.44005 12.44 6.44004 12.24 6.68004C12.1808 6.73497 12.1375 6.8048 12.1147 6.88221C12.0918 6.95963 12.0902 7.04178 12.11 7.12004C12.2 7.35004 12.02 7.38004 11.82 7.18004C11.62 6.98004 11.66 7.08004 11.61 7.18004C11.56 7.28004 11.25 7.35004 11.3 7.09004C11.3088 7.02215 11.2995 6.95313 11.2732 6.88994C11.2469 6.82674 11.2044 6.77162 11.15 6.73005C10.99 6.59005 10.99 6.58004 11.15 6.56004C11.2324 6.53872 11.3083 6.49746 11.3711 6.43992C11.4339 6.38238 11.4816 6.31033 11.51 6.23005C11.67 5.92005 11.67 5.92006 11.77 6.17006C11.7971 6.25176 11.8519 6.32141 11.925 6.36705C11.998 6.41268 12.0846 6.43144 12.17 6.42006V6.44005ZM21.28 6.69005C21.5 6.69005 21.51 6.69004 21.36 6.90004C21.2608 7.02063 21.2108 7.17418 21.22 7.33003C21.22 7.50003 21.22 7.53005 20.99 7.48005C20.9114 7.46765 20.8312 7.47097 20.7539 7.48985C20.6767 7.50873 20.6039 7.5428 20.54 7.59004C20.35 7.74004 20.3399 7.72005 20.4099 7.48005C20.43 7.44519 20.4423 7.40642 20.446 7.36638C20.4497 7.32634 20.4448 7.28595 20.4315 7.248C20.4182 7.21004 20.3969 7.17542 20.369 7.14644C20.3412 7.11745 20.3074 7.09479 20.27 7.08003C20.06 6.95003 20.07 6.94004 20.34 6.87004C20.4281 6.83501 20.5067 6.77959 20.5693 6.70833C20.6318 6.63706 20.6766 6.55196 20.7 6.46003C20.78 6.13003 20.7799 6.13005 20.9099 6.41005C20.9507 6.4867 21.011 6.55116 21.0848 6.59684C21.1586 6.64253 21.2432 6.6678 21.33 6.67006L21.28 6.69005ZM2.95997 7.16005C3.20997 7.23005 3.28997 7.45006 3.05997 7.45006C2.82997 7.45006 2.94995 7.57005 3.00995 7.79005C3.06995 8.01005 3.08996 8.13004 2.82996 7.90004C2.76774 7.83578 2.68971 7.78902 2.6037 7.76445C2.5177 7.73987 2.42675 7.73837 2.33997 7.76005C2.12997 7.82005 2.09997 7.76005 2.14997 7.57005C2.16578 7.48078 2.16045 7.38903 2.13441 7.3022C2.10836 7.21536 2.06231 7.13587 1.99998 7.07005C1.79998 6.84005 1.79997 6.84004 2.05997 6.90004C2.13868 6.93187 2.22643 6.93312 2.30601 6.90352C2.38558 6.87391 2.45121 6.81558 2.48997 6.74003C2.61997 6.51003 2.62996 6.51003 2.66996 6.80003C2.68353 6.87744 2.71759 6.9498 2.76859 7.00959C2.81959 7.06939 2.88567 7.11442 2.95997 7.14003V7.16005ZM17.61 7.32005C17.84 7.32005 17.85 7.32004 17.7 7.53004C17.5986 7.65725 17.5487 7.81782 17.56 7.98005C17.56 8.18005 17.56 8.22003 17.33 8.14003C17.2518 8.1163 17.1689 8.1121 17.0888 8.12779C17.0086 8.14348 16.9335 8.17861 16.87 8.23005C16.69 8.37005 16.68 8.35003 16.75 8.11003C16.7687 8.07544 16.7803 8.03742 16.7838 7.99824C16.7874 7.95906 16.783 7.91954 16.7708 7.88212C16.7587 7.8447 16.739 7.81014 16.7131 7.78056C16.6872 7.75098 16.6555 7.72698 16.62 7.71003C16.4 7.58003 16.41 7.57004 16.62 7.50004C16.7014 7.47345 16.7758 7.42919 16.8381 7.3704C16.9003 7.31162 16.9488 7.23978 16.98 7.16005C17.06 6.93005 17.07 6.93005 17.18 7.10005C17.2259 7.17011 17.2905 7.22594 17.3665 7.26127C17.4425 7.29661 17.5268 7.31003 17.61 7.30003V7.32005ZM14.04 7.82005C14.32 7.82005 14.34 7.82003 14.15 7.96003C14.083 8.01024 14.0284 8.07509 13.9902 8.14961C13.9521 8.22413 13.9315 8.30634 13.93 8.39003C13.93 8.62003 13.88 8.67004 13.67 8.62004C13.5921 8.60382 13.5118 8.60435 13.4342 8.62159C13.3566 8.63884 13.2836 8.6724 13.22 8.72004C13.03 8.87004 13.02 8.86003 13.09 8.61003C13.1337 8.53017 13.1445 8.43643 13.1203 8.34868C13.096 8.26093 13.0385 8.18607 12.96 8.14003C12.74 7.96003 12.74 7.96006 13.01 7.95006C13.28 7.94005 13.32 7.85003 13.37 7.61003C13.42 7.37003 13.46 7.27003 13.59 7.55003C13.6325 7.63096 13.6978 7.69773 13.7777 7.74214C13.8576 7.78654 13.9488 7.80665 14.04 7.80003V7.82005ZM6.38996 7.70006C6.41286 7.77829 6.46236 7.84606 6.52991 7.89171C6.59746 7.93735 6.67882 7.958 6.75995 7.95006C7.01995 7.95006 7.01995 7.95004 6.81995 8.09004C6.61995 8.23004 6.60996 8.32004 6.66996 8.56004C6.72996 8.80004 6.74995 8.88005 6.50995 8.66005C6.26995 8.44005 6.18998 8.47005 5.99998 8.57005C5.80998 8.67005 5.75997 8.67003 5.80997 8.46003C5.82894 8.38302 5.83069 8.30279 5.81513 8.22502C5.79958 8.14724 5.76711 8.07385 5.71998 8.01005C5.59998 7.85005 5.60997 7.82005 5.83997 7.82005C6.06997 7.82005 6.09995 7.75003 6.09995 7.64003C6.09995 7.34003 6.32996 7.39004 6.38996 7.68004V7.70006ZM10.01 7.89003C10.01 8.01003 10.14 8.08003 10.37 8.08003C10.6 8.08003 10.7 8.08003 10.47 8.27003C10.3987 8.31589 10.3438 8.38324 10.3132 8.46232C10.2827 8.54141 10.278 8.62814 10.3 8.71003C10.38 8.98003 10.3 9.04004 10.04 8.81004C9.77995 8.58004 9.84997 8.69004 9.73997 8.81004C9.62997 8.93004 9.39998 8.98003 9.46998 8.71003C9.49452 8.62926 9.49218 8.5427 9.46332 8.46336C9.43447 8.38402 9.38067 8.31617 9.30997 8.27003C9.07997 8.09003 9.08996 8.09003 9.41996 8.08003C9.74996 8.07003 9.75995 8.01003 9.75995 7.89003C9.75995 7.77003 9.81996 7.70006 9.88996 7.70006C9.95996 7.70006 10.01 7.77004 10.01 7.87004V7.89003ZM19.1 8.39003C19.1 8.51003 19.21 8.58003 19.37 8.58003C19.53 8.58003 19.61 8.58003 19.48 8.77003C19.4372 8.83591 19.4097 8.91047 19.3993 8.98829C19.389 9.06612 19.396 9.14528 19.42 9.22004C19.49 9.45004 19.47 9.48004 19.24 9.40004C19.0812 9.34518 18.9087 9.34518 18.75 9.40004C18.53 9.52004 18.52 9.49005 18.57 9.23005C18.62 8.97005 18.57 8.91005 18.48 8.91005C18.39 8.91005 18.33 8.69004 18.6 8.62004C18.6637 8.60494 18.7216 8.5712 18.7661 8.52311C18.8106 8.47503 18.8398 8.41479 18.85 8.35005C18.85 8.24005 18.91 8.15004 18.97 8.15004C19.03 8.15004 19.1 8.27004 19.1 8.37004V8.39003ZM4.93995 9.21003C5.12995 9.21003 5.12995 9.21005 4.93995 9.38005C4.8839 9.42013 4.84017 9.47507 4.81367 9.53868C4.78716 9.60228 4.77895 9.67201 4.78995 9.74003C4.83995 9.98003 4.61997 10.06 4.48997 9.84004C4.44392 9.80023 4.38747 9.77437 4.32725 9.76552C4.26702 9.75666 4.20553 9.76519 4.14997 9.79005C3.93997 9.86005 3.89996 9.79004 3.97996 9.65004C4.0008 9.56478 3.99885 9.47554 3.97428 9.39128C3.9497 9.30702 3.90338 9.23074 3.83997 9.17006C3.61997 8.92006 3.61997 8.92003 3.83997 8.99003C4.05997 9.06003 4.13997 8.99003 4.20997 8.80003C4.27997 8.61003 4.28998 8.56004 4.46998 8.87004C4.51346 8.95985 4.57973 9.03666 4.66221 9.09282C4.74469 9.14897 4.84045 9.18251 4.93995 9.19005V9.21003ZM15.77 9.21003C15.92 9.21003 15.95 9.21005 15.85 9.38005C15.8074 9.44597 15.7792 9.52009 15.7672 9.59761C15.7551 9.67513 15.7595 9.7543 15.78 9.83003C15.85 10.1 15.83 10.11 15.61 10C15.5367 9.94409 15.4471 9.91377 15.355 9.91377C15.2628 9.91377 15.1732 9.94409 15.1 10C14.85 10.18 14.8399 10.17 14.9099 9.91005C14.9331 9.83218 14.93 9.74886 14.901 9.67296C14.8721 9.59705 14.819 9.53277 14.75 9.49003C14.52 9.32003 14.52 9.31004 14.75 9.31004C14.98 9.31004 15.08 9.20003 15.17 8.96003C15.26 8.72003 15.31 8.61003 15.42 8.89003C15.4402 8.97003 15.4847 9.04182 15.5474 9.09553C15.6101 9.14924 15.6878 9.18226 15.77 9.19005V9.21003ZM8.50995 9.59004C8.74995 9.59004 8.76996 9.59004 8.60996 9.81004C8.55845 9.87004 8.52025 9.94029 8.49784 10.0161C8.47543 10.092 8.46933 10.1717 8.47996 10.25C8.47996 10.46 8.47998 10.47 8.24998 10.35C8.1856 10.2917 8.10182 10.2594 8.01496 10.2594C7.92809 10.2594 7.84435 10.2917 7.77997 10.35C7.58997 10.49 7.57995 10.48 7.65995 10.21C7.69137 10.1287 7.69466 10.0393 7.66929 9.95591C7.64391 9.87254 7.59134 9.80005 7.51996 9.75004C7.31996 9.60004 7.32996 9.58005 7.57996 9.57005C7.66309 9.56763 7.74338 9.53936 7.8097 9.48918C7.87601 9.439 7.92504 9.36939 7.94996 9.29005L8.02997 9.00004L8.13996 9.29005C8.17132 9.36192 8.2231 9.42298 8.28889 9.46565C8.35467 9.50832 8.43155 9.53071 8.50995 9.53004V9.59004ZM12.1899 9.59004C12.4499 9.59004 12.45 9.59003 12.26 9.77003C12.1915 9.81782 12.1408 9.88683 12.1155 9.96635C12.0902 10.0459 12.0918 10.1315 12.12 10.21C12.19 10.47 12.12 10.49 11.92 10.35C11.72 10.21 11.5899 10.24 11.4399 10.35C11.2899 10.46 11.24 10.4801 11.3 10.2301C11.36 9.98005 11.3 9.91003 11.2 9.86003C11.1 9.81003 10.99 9.57005 11.27 9.57005C11.3492 9.56598 11.4249 9.53657 11.4862 9.48616C11.5474 9.43575 11.5908 9.367 11.61 9.29005L11.6899 9.00004L11.8 9.29005C11.8326 9.36517 11.8875 9.42847 11.9572 9.47139C12.027 9.51431 12.1082 9.53477 12.1899 9.53004V9.59004ZM21.3 9.77003C21.55 9.69003 21.55 9.70005 21.3 9.91005C21.227 9.97502 21.1783 10.0629 21.1619 10.1593C21.1456 10.2556 21.1625 10.3546 21.21 10.44C21.31 10.71 21.3 10.73 21.06 10.59C20.9773 10.5358 20.8768 10.5159 20.7797 10.5346C20.6826 10.5532 20.5966 10.609 20.54 10.69C20.28 10.92 20.28 10.92 20.35 10.61C20.3814 10.5287 20.3847 10.4393 20.3593 10.3559C20.3339 10.2725 20.2813 10.2 20.21 10.15C20.01 10 20.02 9.98004 20.28 9.97004C20.54 9.96004 20.59 9.87005 20.64 9.63005C20.69 9.39005 20.73 9.29005 20.86 9.57005C20.99 9.85005 21.11 9.81004 21.33 9.75004L21.3 9.77003ZM2.72996 9.97004C2.76365 10.0534 2.81379 10.1291 2.87736 10.1927C2.94092 10.2562 3.01661 10.3063 3.09995 10.34C3.35995 10.44 3.35995 10.4601 3.15995 10.5401C2.95995 10.6201 2.94995 10.71 3.00995 10.97C3.06995 11.23 3.08996 11.28 2.82996 11.05C2.76368 10.9906 2.68622 10.9449 2.60209 10.9157C2.51795 10.8865 2.42885 10.8744 2.33997 10.88C2.14997 10.93 2.10995 10.8801 2.15995 10.7001C2.16968 10.5177 2.10881 10.3387 1.98997 10.2001C1.74997 9.93005 1.74995 9.93003 2.09995 10.02C2.44995 10.11 2.43995 10.02 2.43995 9.91005C2.43995 9.80005 2.65996 9.66006 2.72996 9.95006V9.97004ZM17.62 10.47C17.83 10.47 17.84 10.47 17.71 10.66C17.6651 10.725 17.634 10.7984 17.6186 10.8758C17.6031 10.9532 17.6036 11.0328 17.62 11.11C17.7 11.38 17.62 11.4201 17.33 11.2301C17.21 11.1601 17.0699 11.18 16.9099 11.33C16.7499 11.48 16.67 11.53 16.74 11.24C16.7714 11.1587 16.7746 11.0693 16.7493 10.9859C16.7239 10.9025 16.6713 10.83 16.6 10.78C16.4 10.63 16.41 10.61 16.67 10.6C16.93 10.59 16.98 10.5001 17.03 10.2601C17.08 10.0201 17.12 9.92006 17.25 10.2001C17.2861 10.2691 17.3388 10.3281 17.4034 10.3718C17.468 10.4154 17.5424 10.4423 17.62 10.4501V10.47ZM13.96 10.9801C14.17 10.9801 14.18 10.9801 14.05 11.1701C14.0054 11.2332 13.9744 11.3049 13.9589 11.3806C13.9434 11.4564 13.9438 11.5344 13.96 11.61C14.04 11.89 13.96 11.94 13.7 11.71C13.44 11.48 13.48 11.62 13.28 11.81L13.01 12.05L13.09 11.71C13.14 11.46 13.09 11.33 12.96 11.24C12.83 11.15 12.75 11.12 13.01 11.11C13.27 11.1 13.32 11.0001 13.37 10.7601C13.42 10.5201 13.46 10.4201 13.59 10.7001C13.6262 10.7699 13.6788 10.83 13.7432 10.8753C13.8076 10.9205 13.8819 10.9496 13.96 10.96V10.9801ZM6.34995 10.7901C6.34995 10.8901 6.46996 10.9801 6.60996 10.9801C6.74996 10.9801 6.94998 11.17 6.71998 11.31C6.63998 11.31 6.60996 11.5 6.63996 11.62C6.66996 11.74 6.63996 11.94 6.38996 11.72C6.13996 11.5 6.17996 11.62 5.97996 11.72C5.77996 11.82 5.70995 11.84 5.78995 11.59C5.81831 11.4966 5.81926 11.397 5.79267 11.3031C5.76608 11.2091 5.71307 11.1248 5.63996 11.06C5.40996 10.8 5.40996 10.8 5.69996 10.87C5.98996 10.94 6.00997 10.8701 6.05997 10.7601C6.10997 10.6501 6.32996 10.53 6.32996 10.77L6.34995 10.7901ZM10.35 11.2301C10.5 11.2301 10.51 11.2301 10.35 11.4201C10.3099 11.4852 10.2839 11.558 10.2736 11.6337C10.2633 11.7095 10.2688 11.7865 10.29 11.86C10.37 12.12 10.35 12.13 10.11 12C10.0349 11.9484 9.94601 11.9208 9.85496 11.9208C9.7639 11.9208 9.67498 11.9484 9.59995 12C9.35995 12.13 9.33996 12.1101 9.41996 11.8201C9.45404 11.739 9.45538 11.6478 9.42368 11.5658C9.39198 11.4837 9.32972 11.4172 9.24998 11.38C9.04998 11.27 9.04995 11.25 9.31995 11.24C9.40681 11.2492 9.49397 11.2256 9.56428 11.1737C9.63459 11.1219 9.68297 11.0457 9.69996 10.96L9.75995 10.69L9.94996 10.96C9.9918 11.0264 10.0474 11.0831 10.1129 11.1262C10.1785 11.1693 10.2525 11.1979 10.33 11.21L10.35 11.2301ZM19.09 11.56C19.09 11.72 19.17 11.7501 19.43 11.6701C19.69 11.5901 19.77 11.6 19.55 11.85C19.4762 11.9119 19.4231 11.995 19.3981 12.088C19.3731 12.181 19.3772 12.2795 19.4099 12.37C19.4799 12.62 19.47 12.63 19.22 12.49C18.97 12.35 18.8999 12.39 18.6899 12.58C18.4799 12.77 18.42 12.81 18.52 12.52C18.5595 12.4373 18.566 12.3427 18.5381 12.2553C18.5102 12.168 18.4501 12.0945 18.37 12.05C18.16 11.88 18.16 11.88 18.43 11.86C18.5111 11.868 18.5925 11.8474 18.66 11.8017C18.7276 11.7561 18.7771 11.6883 18.8 11.61C18.89 11.29 19.1 11.25 19.1 11.53L19.09 11.56ZM4.87995 12.2901C5.11995 12.3701 5.11997 12.38 4.92997 12.49C4.86297 12.5316 4.81368 12.5964 4.79154 12.6721C4.7694 12.7477 4.77596 12.8289 4.80997 12.9C4.86997 13.16 4.85996 13.1601 4.66996 13.0101C4.60247 12.9624 4.52602 12.929 4.44523 12.9118C4.36444 12.8946 4.28099 12.894 4.19996 12.91C3.99996 12.96 3.94998 12.9101 3.96998 12.7601C3.97845 12.6826 3.97034 12.6041 3.9462 12.53C3.92207 12.4558 3.88244 12.3877 3.82996 12.33C3.67996 12.14 3.68997 12.12 3.92997 12.12C4.00428 12.1194 4.07701 12.0986 4.14042 12.0599C4.20383 12.0211 4.25552 11.9659 4.28995 11.9C4.35995 11.71 4.38997 11.72 4.48997 11.9C4.52589 11.987 4.58027 12.0651 4.64933 12.129C4.71839 12.1929 4.80048 12.241 4.88996 12.27L4.87995 12.2901ZM15.8799 12.2901C16.15 12.2101 16.1499 12.21 15.9399 12.47C15.8757 12.5301 15.8288 12.6064 15.8041 12.6908C15.7795 12.7753 15.7781 12.8648 15.8 12.9501C15.88 13.1201 15.8 13.1501 15.61 13.0701C15.5196 13.0435 15.4237 13.0416 15.3323 13.0645C15.2409 13.0873 15.1573 13.1341 15.09 13.2001C14.87 13.4001 14.87 13.4 14.93 13.15C14.9486 13.0698 14.9503 12.9865 14.9348 12.9055C14.9193 12.8245 14.887 12.7477 14.84 12.68C14.7 12.52 14.71 12.48 14.93 12.43C15.0092 12.4016 15.0814 12.3566 15.1418 12.2979C15.2021 12.2393 15.2493 12.1684 15.28 12.09L15.36 11.81L15.47 12.09C15.53 12.26 15.62 12.3101 15.85 12.2601L15.8799 12.2901ZM8.57996 12.7601C8.81996 12.7601 8.82996 12.76 8.57996 12.93C8.50777 12.9817 8.45483 13.056 8.42948 13.1411C8.40413 13.2262 8.40781 13.3173 8.43995 13.4C8.51995 13.66 8.50995 13.6801 8.31995 13.5401C8.25416 13.4892 8.17735 13.4546 8.09571 13.439C8.01406 13.4233 7.92986 13.4271 7.84995 13.4501C7.61995 13.5301 7.57997 13.4501 7.61997 13.2901C7.63057 13.1201 7.57705 12.9524 7.46998 12.8201C7.28998 12.6 7.30997 12.59 7.55997 12.66C7.80997 12.73 7.85996 12.6601 7.91996 12.4501L8.00995 12.19L8.13996 12.47C8.17902 12.5459 8.2376 12.61 8.30967 12.6557C8.38173 12.7014 8.46468 12.7271 8.54996 12.7301L8.57996 12.7601ZM12.23 12.71C12.44 12.71 12.46 12.71 12.23 12.87C12.1666 12.9389 12.1223 13.023 12.1012 13.1142C12.0802 13.2053 12.0832 13.3004 12.11 13.39C12.19 13.68 12.18 13.69 11.97 13.53C11.76 13.37 11.71 13.36 11.49 13.53C11.27 13.7 11.24 13.67 11.3 13.43C11.3216 13.3435 11.3137 13.2521 11.2774 13.1706C11.2412 13.0891 11.1787 13.022 11.1 12.9801C10.84 12.7901 10.84 12.7901 11.17 12.7901C11.261 12.8019 11.3532 12.7784 11.4276 12.7245C11.5019 12.6706 11.5529 12.5903 11.57 12.5L11.6599 12.22L11.8 12.5101C11.91 12.6501 12.03 12.73 12.2 12.68L12.23 12.71ZM21.3 12.88C21.53 12.88 21.54 12.88 21.39 13.1C21.2874 13.2227 21.2372 13.3807 21.25 13.5401C21.25 13.7401 21.25 13.78 21.05 13.72C20.85 13.66 20.76 13.72 20.71 13.72C20.66 13.72 20.37 13.86 20.46 13.6C20.4873 13.5335 20.488 13.4591 20.462 13.392C20.4359 13.325 20.3851 13.2706 20.32 13.24C20.12 13.12 20.13 13.1101 20.37 13.0401C20.5261 12.9659 20.6503 12.8381 20.72 12.68C20.8 12.44 20.81 12.44 20.92 12.62C20.9559 12.6833 21.0064 12.7372 21.0673 12.7772C21.1281 12.8172 21.1976 12.8421 21.27 12.85L21.3 12.88ZM2.72996 13.0701C2.74625 13.1494 2.78367 13.2228 2.83823 13.2827C2.89279 13.3425 2.96247 13.3865 3.03995 13.41C3.31995 13.54 3.33996 13.58 3.16996 13.68C2.99996 13.78 2.98996 13.87 3.04996 14.06C3.10996 14.25 3.12996 14.32 2.88996 14.12C2.82306 14.0562 2.74189 14.0093 2.65317 13.9832C2.56446 13.9571 2.47076 13.9526 2.37995 13.97C2.15995 14.03 2.11997 13.97 2.17997 13.78C2.19843 13.7014 2.19994 13.6197 2.18442 13.5404C2.16891 13.4611 2.13672 13.386 2.08997 13.3201C1.96997 13.1601 1.97997 13.14 2.20997 13.14C2.43997 13.14 2.46998 13.0701 2.46998 13.0101C2.46998 12.9756 2.48365 12.9425 2.50803 12.9181C2.53241 12.8937 2.56547 12.88 2.59995 12.88C2.63995 12.85 2.69996 12.9401 2.69996 13.0401L2.72996 13.0701ZM17.67 13.56C17.92 13.49 17.92 13.5001 17.72 13.7001C17.6485 13.766 17.6009 13.8538 17.5846 13.9497C17.5683 14.0456 17.5843 14.1442 17.6299 14.2301C17.7299 14.5101 17.72 14.52 17.48 14.38C17.24 14.24 17.18 14.28 17.07 14.38C16.96 14.48 16.71 14.55 16.8 14.28C16.8142 14.2488 16.8212 14.2148 16.8206 14.1805C16.82 14.1462 16.8117 14.1125 16.7964 14.0818C16.781 14.0512 16.759 14.0243 16.732 14.0032C16.7049 13.9821 16.6735 13.9674 16.64 13.96C16.44 13.88 16.46 13.85 16.71 13.75C16.8828 13.6748 17.0192 13.5348 17.09 13.36L17.15 13.08L17.28 13.36C17.33 13.53 17.45 13.6 17.64 13.53L17.67 13.56ZM6.41996 13.89C6.44107 13.9693 6.49017 14.0384 6.55817 14.0843C6.62618 14.1303 6.70849 14.15 6.78995 14.14C7.06995 14.14 7.06995 14.14 6.84995 14.33C6.77619 14.3756 6.72078 14.4456 6.69337 14.5278C6.66595 14.6101 6.66828 14.6993 6.69996 14.78C6.77996 15.03 6.75996 15.04 6.51996 14.9C6.3604 14.8273 6.18205 14.8063 6.00995 14.84C5.81995 14.9 5.78997 14.84 5.83997 14.65C5.86625 14.5694 5.86476 14.4822 5.83576 14.4025C5.80676 14.3227 5.75193 14.255 5.67997 14.21C5.44997 14.03 5.45995 14.03 5.78995 14.02C6.11995 14.01 6.12995 13.96 6.12995 13.83C6.12995 13.7 6.32996 13.53 6.38996 13.86L6.41996 13.89ZM13.98 14.11C14.23 14.03 14.3 14.21 14.07 14.35C13.99 14.35 13.96 14.56 13.99 14.72C14.02 14.88 13.99 15 13.82 14.89C13.7412 14.8434 13.6515 14.8188 13.56 14.8188C13.4685 14.8188 13.3787 14.8434 13.3 14.89C13.07 15.02 13.05 15.01 13.12 14.8201C13.1407 14.7395 13.1405 14.655 13.1195 14.5745C13.0985 14.494 13.0574 14.4202 13 14.36C12.8 14.14 12.8 14.12 13.06 14.12C13.1434 14.125 13.2259 14.1007 13.2934 14.0515C13.3609 14.0022 13.4092 13.931 13.43 13.85L13.49 13.5701L13.6299 13.86C13.6486 13.9287 13.691 13.9885 13.7496 14.0288C13.8082 14.0691 13.8792 14.0872 13.95 14.08L13.98 14.11ZM10.04 14.11C10.04 14.24 10.17 14.3 10.39 14.3C10.61 14.3 10.7 14.3001 10.5 14.5401C10.4315 14.6079 10.3823 14.6928 10.3577 14.786C10.3331 14.8792 10.3339 14.9773 10.36 15.0701C10.45 15.3401 10.4399 15.34 10.1599 15.15C9.87995 14.96 9.85995 14.96 9.62995 15.15C9.39995 15.34 9.38996 15.35 9.47996 15.0701C9.50676 14.9749 9.50695 14.8743 9.4805 14.7791C9.45406 14.6838 9.40198 14.5977 9.32996 14.53C9.12996 14.3 9.12995 14.2901 9.43995 14.2901C9.74995 14.2901 9.77997 14.23 9.77997 14.1C9.77997 13.97 9.84995 13.91 9.90995 13.91C9.96995 13.91 10.01 13.95 10.01 14.05L10.04 14.11ZM19.48 14.81C19.8 14.81 19.8099 14.81 19.6 14.99C19.523 15.0325 19.4649 15.1024 19.4371 15.1857C19.4093 15.2691 19.4139 15.3599 19.45 15.44C19.52 15.68 19.5 15.7 19.26 15.63C19.1702 15.5975 19.0728 15.5925 18.9801 15.6157C18.8875 15.6389 18.8039 15.6891 18.74 15.7601C18.49 15.9901 18.49 15.99 18.56 15.66C18.63 15.33 18.5599 15.3 18.4099 15.21C18.2599 15.12 18.22 15.07 18.52 14.99C18.6112 14.9657 18.696 14.9218 18.7686 14.8613C18.8411 14.8009 18.8996 14.7254 18.9399 14.64C19.0199 14.4 19.04 14.39 19.09 14.58C19.14 14.77 19.24 14.75 19.45 14.75L19.48 14.81ZM4.89997 15.44C5.15997 15.44 5.19997 15.6401 4.89997 15.7301C4.59997 15.8201 4.73997 15.9 4.77997 16.09C4.81997 16.28 4.84997 16.3701 4.61997 16.1701C4.38997 15.9701 4.32996 15.99 4.13996 16.09C3.94996 16.19 3.90996 16.19 3.97996 15.93C4.00395 15.8418 4.00555 15.7489 3.98459 15.6598C3.96364 15.5708 3.9208 15.4884 3.85996 15.4201C3.66996 15.2201 3.68995 15.21 3.93995 15.27C4.18995 15.33 4.22995 15.2701 4.28995 15.0401L4.36997 14.74L4.48997 15.08C4.58997 15.24 4.72997 15.38 4.86997 15.38L4.89997 15.44ZM15.82 15.44C16.14 15.44 16.1499 15.44 15.9399 15.63C15.8652 15.6668 15.8077 15.7312 15.7797 15.8096C15.7517 15.888 15.7554 15.9743 15.79 16.05C15.87 16.33 15.74 16.41 15.52 16.19C15.3 15.97 15.33 16.1201 15.22 16.2601C15.11 16.4001 14.85 16.5 14.93 16.19C14.9536 16.1082 14.9497 16.0209 14.919 15.9414C14.8883 15.862 14.8325 15.7948 14.76 15.75C14.54 15.58 14.54 15.58 14.85 15.56C14.9447 15.5728 15.0409 15.5503 15.1202 15.4969C15.1994 15.4434 15.2563 15.3627 15.28 15.27C15.36 15.03 15.38 15.03 15.43 15.21C15.48 15.39 15.58 15.38 15.79 15.38L15.82 15.44ZM8.57996 15.87C8.82996 15.94 8.82996 15.95 8.57996 16.08C8.54489 16.0961 8.51337 16.1191 8.48728 16.1475C8.46119 16.1759 8.44102 16.2093 8.42798 16.2456C8.41495 16.2819 8.4093 16.3205 8.41135 16.359C8.41341 16.3976 8.42312 16.4353 8.43995 16.47C8.49995 16.69 8.43997 16.7 8.27997 16.6C8.20964 16.5556 8.12815 16.532 8.04496 16.532C7.96177 16.532 7.8803 16.5556 7.80997 16.6C7.62997 16.7 7.58995 16.69 7.62995 16.47C7.63798 16.391 7.62971 16.3112 7.60563 16.2355C7.58154 16.1598 7.54218 16.0899 7.48997 16.03C7.33997 15.84 7.34996 15.81 7.57996 15.81C7.66225 15.8075 7.74136 15.7776 7.80475 15.7251C7.86815 15.6726 7.91221 15.6004 7.92997 15.52L8.01996 15.25L8.14997 15.52C8.1941 15.5925 8.25217 15.6554 8.32084 15.7052C8.38951 15.755 8.4674 15.7906 8.54996 15.81L8.57996 15.87ZM12.2 15.81C12.47 15.81 12.47 15.81 12.27 16.05C12.2117 16.1077 12.1691 16.1793 12.1463 16.2581C12.1236 16.3369 12.1214 16.4202 12.14 16.5C12.23 16.72 12.05 16.76 11.85 16.56C11.65 16.36 11.69 16.46 11.64 16.56C11.59 16.66 11.28 16.72 11.33 16.47C11.3388 16.4022 11.3295 16.3331 11.3032 16.2699C11.2769 16.2067 11.2344 16.1516 11.18 16.11C11.02 15.97 11.02 15.95 11.18 15.94C11.2624 15.9187 11.3383 15.8775 11.4011 15.8199C11.4639 15.7624 11.5116 15.6903 11.54 15.61C11.7 15.3 11.7 15.3 11.8 15.55C11.8351 15.6161 11.889 15.6703 11.9548 15.7059C12.0206 15.7415 12.0954 15.7568 12.17 15.75L12.2 15.81ZM21.3 16.03C21.58 15.95 21.6 16.13 21.3 16.24C21 16.35 21.1199 16.41 21.1899 16.65C21.2599 16.89 21.25 16.96 21.03 16.85C20.81 16.74 20.74 16.76 20.56 16.93C20.38 17.1 20.33 17.13 20.37 16.87C20.3866 16.7058 20.3402 16.5413 20.24 16.41C20.09 16.22 20.1 16.19 20.34 16.19C20.58 16.19 20.63 16.09 20.68 15.85L20.77 15.5101L20.9 15.8C20.99 15.93 21.12 16.01 21.27 15.97L21.3 16.03ZM2.98997 16.53C3.23997 16.61 3.31997 16.82 3.08997 16.82C2.85997 16.82 2.97995 16.95 3.03995 17.16C3.09995 17.37 3.11996 17.51 2.85996 17.28C2.79774 17.2158 2.71971 17.169 2.6337 17.1445C2.5477 17.1199 2.45675 17.1183 2.36997 17.14C2.15997 17.2 2.12997 17.1401 2.17997 16.9501C2.1966 16.8608 2.19165 16.7688 2.16556 16.6819C2.13947 16.5949 2.09299 16.5154 2.02997 16.4501C1.82997 16.2201 1.82997 16.22 2.08997 16.28C2.16868 16.3119 2.25643 16.3131 2.336 16.2835C2.41558 16.2539 2.48121 16.1956 2.51996 16.12C2.64996 15.89 2.65996 15.89 2.69996 16.18C2.71741 16.2454 2.75005 16.3058 2.79523 16.3562C2.84041 16.4065 2.89686 16.4456 2.95997 16.47L2.98997 16.53ZM17.64 16.7001C17.87 16.7001 17.88 16.7 17.73 16.91C17.6308 17.0306 17.5808 17.1842 17.59 17.34C17.59 17.51 17.59 17.54 17.36 17.49C17.1996 17.4666 17.0362 17.5022 16.9 17.59C16.71 17.75 16.7 17.7501 16.76 17.4801C16.7903 17.4089 16.7938 17.3292 16.7699 17.2557C16.746 17.1822 16.6963 17.1197 16.6299 17.08C16.4399 16.96 16.46 16.95 16.7 16.88C16.7827 16.8531 16.8582 16.8075 16.9206 16.7468C16.983 16.6861 17.0307 16.612 17.06 16.53C17.14 16.31 17.15 16.3101 17.26 16.4801C17.3028 16.5309 17.3565 16.5717 17.417 16.5993C17.4775 16.627 17.5434 16.6409 17.61 16.64L17.64 16.7001ZM14.07 17.2001H14.33L14.05 17.4C13.82 17.56 13.8 17.64 13.9 17.85C14 18.06 14.01 18.0901 13.71 18.0101C13.6222 17.9844 13.5297 17.9792 13.4396 17.9948C13.3494 18.0104 13.264 18.0464 13.1899 18.1C13.0299 18.24 13.01 18.21 13.08 17.93C13.15 17.65 13.08 17.59 12.93 17.52C12.78 17.45 12.74 17.4 13.01 17.34C13.1035 17.3194 13.1887 17.2712 13.2547 17.2017C13.3206 17.1322 13.3642 17.0446 13.3799 16.9501V16.63L13.52 16.91C13.5683 17.0011 13.6459 17.0733 13.7402 17.115C13.8345 17.1567 13.94 17.1655 14.04 17.14L14.07 17.2001ZM6.41996 17.08C6.44286 17.1583 6.49236 17.2261 6.55991 17.2717C6.62746 17.3174 6.70882 17.338 6.78995 17.33C7.04995 17.33 7.04995 17.33 6.84995 17.47C6.64995 17.61 6.63996 17.7 6.69996 17.94C6.75996 18.18 6.77995 18.26 6.53995 18.0401C6.29995 17.8201 6.21997 17.8501 6.02997 17.9501C5.83997 18.0501 5.78997 18.05 5.83997 17.82C5.85542 17.7347 5.85081 17.6468 5.82651 17.5635C5.80222 17.4802 5.75888 17.4037 5.69996 17.34C5.49996 17.13 5.50995 17.1201 5.81995 17.1701C6.12995 17.2201 6.12995 17.17 6.12995 17.03C6.12995 16.89 6.32996 16.71 6.38996 17.02L6.41996 17.08ZM10.04 17.28C10.04 17.39 10.17 17.46 10.39 17.46C10.61 17.46 10.71 17.46 10.49 17.63C10.4152 17.6723 10.358 17.7398 10.3287 17.8205C10.2993 17.9012 10.2998 17.9897 10.33 18.07C10.41 18.3601 10.33 18.41 10.07 18.19C9.80995 17.97 9.87996 18.07 9.76996 18.19C9.65996 18.31 9.42998 18.36 9.49998 18.09C9.52366 18.0077 9.52095 17.92 9.49225 17.8393C9.46356 17.7586 9.41031 17.6889 9.33997 17.64C9.10997 17.47 9.11996 17.47 9.44996 17.46C9.77996 17.45 9.78995 17.39 9.78995 17.19C9.78995 16.99 9.84996 16.9801 9.91996 17.0101C9.97328 17.0676 10.0051 17.1418 10.01 17.22L10.04 17.28Z" fill="white"/>
<path d="M32.3299 18.24C28.8859 18.5897 25.4639 19.1305 22.0799 19.86C15.7499 21.11 13.2099 21.43 9.92994 21.43C7.24918 21.4808 4.57887 21.0819 2.02994 20.25C1.607 20.0848 1.16796 19.9641 0.719944 19.89C0.661214 20.2401 0.641065 20.5956 0.659916 20.9501V21.9501L1.19992 22.18C4.40395 23.3244 7.80179 23.8273 11.1999 23.66C14.3199 23.5 16.3499 23.2 23.1999 21.86C26.4469 21.1617 29.738 20.6873 33.0499 20.44C36.4959 20.1777 39.9596 20.6026 43.2399 21.69C44.2399 22.06 44.2399 22.08 44.2399 20.88V19.82L43.3299 19.53C41.7038 18.9859 40.0296 18.5975 38.3299 18.37C36.3356 18.1831 34.3305 18.1397 32.3299 18.24Z" fill="white"/>
<path d="M31.9701 22.7C29.8701 22.9 27.2001 23.33 23.5801 24.03C15.2501 25.66 13.1401 25.91 9.0301 25.81C6.67181 25.8412 4.32527 25.4727 2.0901 24.72C1.67092 24.5694 1.24357 24.4425 0.810096 24.34C0.605619 25.0319 0.605619 25.7681 0.810096 26.46C2.01992 26.9638 3.27581 27.349 4.5601 27.61C9.1001 28.55 13.1501 28.29 22.4701 26.47C24.5901 26.05 27.0201 25.6 27.8501 25.47C34.4301 24.41 39.7601 24.73 43.9701 26.47C44.1701 26.56 44.2001 26.47 44.1601 25.47V24.34L43.4601 24.07C42.0266 23.5631 40.5507 23.185 39.0501 22.94C36.7005 22.6678 34.3327 22.5875 31.9701 22.7Z" fill="white"/>
<path d="M32.3299 27.11C28.894 27.4759 25.4794 28.02 22.0999 28.74C18.7135 29.4932 15.2784 30.0078 11.8199 30.28C8.50006 30.5181 5.16513 30.1279 1.9899 29.13C1.3599 28.93 0.819891 28.75 0.759891 28.75C0.664872 29.0948 0.63102 29.4535 0.659885 29.81V30.89L1.3899 31.15C4.43105 32.2303 7.65809 32.6894 10.8799 32.5C14.3999 32.4 15.8799 32.19 23.1799 30.77C29.6199 29.52 32.5899 29.17 35.9299 29.3C38.3354 29.3311 40.721 29.7394 42.9999 30.51L44.1699 30.9C44.1699 30.9 44.1699 30.41 44.1699 29.8V28.69L43.3499 28.4C39.8007 27.2333 36.0526 26.7946 32.3299 27.11Z" fill="white"/>
</svg>
