<svg width="37" height="37" viewBox="0 0 37 37" fill="none" xmlns="http://www.w3.org/2000/svg">
<path d="M18.1099 0.589969C14.5685 0.587996 11.106 1.63599 8.16006 3.60144C5.21412 5.56689 2.91698 8.36156 1.559 11.6323C0.201028 14.903 -0.15682 18.5028 0.530683 21.9769C1.21819 25.4509 2.92018 28.6431 5.42154 31.1501C7.9229 33.657 11.1113 35.3661 14.5838 36.0614C18.0563 36.7567 21.657 36.4069 24.9307 35.0562C28.2044 33.7055 31.0043 31.4146 32.9763 28.4731C34.9483 25.5315 36.004 22.0714 36.0099 18.53C36.0099 13.7817 34.1243 9.22769 30.7677 5.8692C27.4111 2.51072 22.8582 0.622649 18.1099 0.619998M10.4699 33.39C9.07921 32.6696 7.79665 31.7574 6.65992 30.68H29.5599C28.4196 31.7576 27.1338 32.6698 25.7399 33.39H10.4699ZM4.32992 27.9399C3.74558 27.0877 3.24016 26.184 2.81993 25.24H33.3899C32.9738 26.1861 32.4682 27.0901 31.8799 27.9399H4.32992ZM1.88992 22.54C1.6737 21.6493 1.5266 20.7433 1.44992 19.83H34.7599C34.6909 20.7402 34.5471 21.6433 34.3299 22.53H1.88992M4.10992 9.37995H4.32992L4.52992 8.76996C4.56078 8.71286 4.59765 8.65925 4.63992 8.60999L4.88992 9.37995H5.77992L5.05992 9.95996L5.32992 10.84L4.60992 10.3199L3.87993 10.86L4.15993 9.94995L3.87993 9.72998C3.94993 9.60998 4.02992 9.49995 4.10992 9.37995ZM5.32992 17.89L4.60992 17.36L3.87993 17.9L4.15993 16.9999L3.43992 16.42H4.32992L4.60992 15.55L4.88992 16.42H5.77992L5.05992 16.9999L5.32992 17.89ZM16.3299 4.98999L16.5999 5.85999H17.4999L16.7699 6.43L17.0499 7.31995L16.3299 6.79999L15.5999 7.33997L15.8799 6.43L15.1499 5.85999H16.0499L16.3299 4.98999ZM16.0499 12.9L16.3299 12.03L16.5999 12.9H17.4999L16.7699 13.48L17.0499 14.37L16.3299 13.84L15.5999 14.3799L15.8799 13.48L15.1499 12.9H16.0499ZM14.4299 9.95996L14.6999 10.84L13.9799 10.3199L13.2499 10.86L13.5299 9.94995L12.7999 9.37995H13.6999L13.9799 8.50995L14.2599 9.37995H15.1499L14.4299 9.95996ZM14.6999 17.89L13.9799 17.36L13.2499 17.9L13.5299 16.9999L12.7999 16.42H13.6999L13.9799 15.55L14.2599 16.42H15.1499L14.4299 16.9999L14.6999 17.89ZM12.0799 6.43L12.3599 7.31995L11.6299 6.79999L10.9099 7.33997L11.1799 6.43L10.4599 5.85999H11.3299L11.6099 4.98999L11.8899 5.85999H12.7899L12.0599 6.43M11.3299 12.9L11.6099 12.03L11.8899 12.9H12.7899L12.0599 13.48L12.3399 14.37L11.6099 13.84L10.8899 14.3799L11.1599 13.48L10.4399 12.9H11.3299ZM9.70993 9.95996L9.98993 10.84L9.25992 10.3199L8.53992 10.86L8.81991 9.94995L8.08993 9.37995H8.98993L9.32992 8.52997L9.60992 9.39997H10.5099L9.77994 9.97998M9.05993 16.4399L9.32992 15.53L9.60992 16.4H10.5099L9.77994 16.98L10.0599 17.87L9.32992 17.34L8.60992 17.8799L8.88992 16.98L8.15991 16.4L9.05993 16.4399ZM7.39993 13.53L7.67993 14.42L6.95993 13.89L6.22992 14.43L6.50992 13.53L5.77992 12.95H6.67993L6.95993 12.08L7.22992 12.95H8.12991L7.39993 13.53ZM18.1099 14.46H34.3299C34.551 15.3467 34.7015 16.2495 34.7799 17.16H18.1099V14.46ZM18.1099 11.7499V9.04999H31.8499C32.4393 9.90088 32.9481 10.8047 33.3699 11.7499H18.1099ZM18.1099 6.33997V3.63996H25.6599C27.0649 4.35259 28.3613 5.26173 29.5099 6.33997H18.1099ZM14.2399 2.27997V2.38996H15.1299L14.4099 2.95996L14.6799 3.84998L13.9599 3.31995L13.2299 3.87L13.5099 2.95996L13.0499 2.59998C13.4299 2.47998 13.8099 2.36997 14.1999 2.27997M7.19992 5.90998H8.09991L7.36993 6.47998L7.64993 7.37L6.92993 6.84998L6.19992 7.38996L6.45993 6.53998L7.18992 5.87M2.49992 12.87H3.39993L2.66992 13.45L2.94992 14.34L2.21992 13.81L1.95993 13.9999C2.09993 13.5299 2.23992 13.06 2.41992 12.61L2.49992 12.87Z" fill="white"/>
</svg>
