<svg width="62" height="61" viewBox="0 0 62 61" fill="none" xmlns="http://www.w3.org/2000/svg">
<path d="M30.88 25.05C29.7828 25.052 28.7107 25.3792 27.7994 25.9902C26.888 26.6013 26.1782 27.4688 25.7596 28.4831C25.3411 29.4974 25.2326 30.613 25.4479 31.6889C25.6632 32.7648 26.1926 33.7528 26.9691 34.528C27.7457 35.3032 28.7346 35.8308 29.811 36.0441C30.8873 36.2574 32.0027 36.147 33.0162 35.7266C34.0298 35.3062 34.896 34.5949 35.5054 33.6824C36.1148 32.7699 36.4401 31.6973 36.4401 30.6C36.4401 29.8704 36.2962 29.1478 36.0166 28.4738C35.7371 27.7998 35.3274 27.1875 34.8109 26.6721C34.2945 26.1566 33.6815 25.748 33.007 25.4696C32.3325 25.1913 31.6097 25.0487 30.88 25.05Z" fill="white"/>
<path d="M43.86 20.79C43.5866 20.0674 43.1602 19.4125 42.61 18.87C42.0752 18.3177 41.4222 17.8938 40.7 17.63C39.7114 17.2603 38.6655 17.0674 37.61 17.06C35.86 16.98 35.33 16.96 30.88 16.96C26.43 16.96 25.88 16.96 24.17 17.06C23.1115 17.0687 22.0625 17.2615 21.07 17.63C20.3518 17.9047 19.6998 18.3283 19.1569 18.8729C18.614 19.4175 18.1924 20.0709 17.92 20.79C17.5584 21.7777 17.3625 22.8184 17.3401 23.87C17.2601 25.63 17.2401 26.16 17.2401 30.6C17.2401 35.04 17.2401 35.6 17.3401 37.32C17.3617 38.375 17.5577 39.419 17.92 40.41C18.1863 41.1309 18.6099 41.7834 19.1601 42.32C19.6912 42.8767 20.3453 43.3014 21.07 43.56C22.0615 43.9331 23.1107 44.1294 24.17 44.14C25.92 44.22 26.45 44.24 30.88 44.24C35.31 44.24 35.88 44.24 37.61 44.14C38.6663 44.1312 39.7125 43.9348 40.7 43.56C41.4259 43.3038 42.0806 42.8788 42.61 42.32C43.1598 41.7811 43.5862 41.1295 43.86 40.41C44.2226 39.4194 44.4153 38.3748 44.4301 37.32C44.5101 35.56 44.5201 35.05 44.5201 30.6C44.5201 26.15 44.5201 25.6 44.4301 23.87C44.4146 22.8186 44.2219 21.7773 43.86 20.79ZM30.86 39.14C29.1686 39.14 27.5151 38.6383 26.1089 37.6984C24.7026 36.7585 23.6068 35.4225 22.9599 33.8596C22.3131 32.2968 22.1444 30.5771 22.4751 28.9183C22.8058 27.2595 23.6211 25.7361 24.8178 24.5407C26.0146 23.3454 27.539 22.5319 29.1982 22.2031C30.8574 21.8743 32.5768 22.0451 34.1389 22.6937C35.701 23.3424 37.0357 24.4398 37.974 25.8472C38.9123 27.2545 39.412 28.9086 39.4101 30.6C39.4114 31.721 39.1917 32.8313 38.7636 33.8674C38.3355 34.9034 37.7074 35.845 36.9152 36.6381C36.123 37.4313 35.1822 38.0605 34.1466 38.4898C33.1111 38.9191 32.0011 39.14 30.88 39.14H30.86ZM39.7501 23.72C39.3545 23.72 38.9678 23.6027 38.6389 23.383C38.31 23.1632 38.0537 22.8508 37.9023 22.4854C37.7509 22.1199 37.7113 21.7178 37.7885 21.3298C37.8657 20.9419 38.0561 20.5855 38.3358 20.3058C38.6156 20.0261 38.9719 19.8356 39.3599 19.7585C39.7478 19.6813 40.15 19.7209 40.5154 19.8723C40.8809 20.0236 41.1932 20.28 41.413 20.6089C41.6328 20.9378 41.7501 21.3245 41.7501 21.72C41.7501 22.247 41.5421 22.7527 41.1714 23.1272C40.8006 23.5017 40.297 23.7147 39.7701 23.72H39.7501Z" fill="white"/>
<path d="M52.3401 9.15003C47.3782 4.19253 40.851 1.10867 33.8704 0.423843C26.8899 -0.260987 19.8878 1.49557 14.0571 5.39426C8.22635 9.29296 3.92766 15.0926 1.89335 21.8052C-0.140961 28.5178 0.214941 35.728 2.90043 42.2076C5.58592 48.6873 10.4349 54.0354 16.6212 57.3409C22.8075 60.6464 29.9486 61.7048 36.8277 60.3359C43.7069 58.9669 49.8987 55.2553 54.3482 49.8332C58.7978 44.4111 61.2298 37.6141 61.2301 30.6C61.2368 26.6149 60.4547 22.6679 58.9289 18.9865C57.4032 15.3051 55.1639 11.962 52.3401 9.15003ZM47.4201 37.45C47.3937 38.8338 47.1333 40.2031 46.6501 41.5C46.2246 42.6064 45.5711 43.6108 44.7321 44.4481C43.8931 45.2854 42.8873 45.9368 41.7801 46.36C40.5015 46.8479 39.1483 47.1118 37.7801 47.14C36.0101 47.22 35.4401 47.24 30.9101 47.24C26.3801 47.24 25.8301 47.24 24.0601 47.14C22.6919 47.1116 21.3388 46.8477 20.0601 46.36C18.9529 45.9368 17.9471 45.2854 17.1081 44.4481C16.2691 43.6108 15.6156 42.6064 15.1901 41.5C14.7069 40.2031 14.4465 38.8338 14.4201 37.45C14.3401 35.68 14.3201 35.11 14.3201 30.6C14.3201 26.09 14.3201 25.52 14.4201 23.74C14.4508 22.373 14.7111 21.0208 15.1901 19.74C15.612 18.6337 16.2668 17.6311 17.1101 16.8C17.9555 15.9456 18.9802 15.2898 20.1101 14.88C21.3888 14.3923 22.7419 14.1285 24.1101 14.1C25.8801 14.02 26.4501 14 30.9601 14C35.4701 14 36.0601 14 37.8301 14.1C39.1983 14.1283 40.5515 14.3921 41.8301 14.88C42.9348 15.3076 43.9384 15.9605 44.7768 16.7972C45.6153 17.634 46.2703 18.6362 46.7001 19.74C47.1791 21.0208 47.4394 22.373 47.4701 23.74C47.5601 25.52 47.5701 26.08 47.5701 30.6C47.5701 35.12 47.5201 35.68 47.4201 37.45Z" fill="white"/>
</svg>
